<svg width="28" height="16" viewBox="0 0 28 16" fill="none" xmlns="http://www.w3.org/2000/svg">
<path d="M1.2721 0.585904C1.64715 0.210962 2.15577 0.000330925 2.6861 0.000330925C3.21642 0.000330925 3.72504 0.210962 4.1001 0.585904L14.0001 10.4859L23.9001 0.585904C24.2773 0.221588 24.7825 0.0199995 25.3069 0.0245562C25.8313 0.0291128 26.3329 0.23945 26.7037 0.610267C27.0746 0.981083 27.2849 1.48271 27.2894 2.0071C27.294 2.5315 27.0924 3.0367 26.7281 3.4139L15.4141 14.7279C15.039 15.1028 14.5304 15.3135 14.0001 15.3135C13.4698 15.3135 12.9612 15.1028 12.5861 14.7279L1.2721 3.4139C0.897154 3.03885 0.686523 2.53023 0.686523 1.9999C0.686523 1.46957 0.897154 0.960959 1.2721 0.585904Z" fill="#FFBC00"/>
</svg>
