<svg width="36" height="36" viewBox="0 0 36 36" fill="none" xmlns="http://www.w3.org/2000/svg">
<path fill-rule="evenodd" clip-rule="evenodd" d="M5.3999 10.35C5.3999 9.60442 6.00432 9 6.7499 9H29.2499C29.9955 9 30.5999 9.60442 30.5999 10.35C30.5999 11.0956 29.9955 11.7 29.2499 11.7H6.7499C6.00432 11.7 5.3999 11.0956 5.3999 10.35Z" fill="#151515"/>
<path fill-rule="evenodd" clip-rule="evenodd" d="M5.3999 24.75C5.3999 24.0044 6.00432 23.4 6.7499 23.4H29.2499C29.9955 23.4 30.5999 24.0044 30.5999 24.75C30.5999 25.4956 29.9955 26.1 29.2499 26.1H6.7499C6.00432 26.1 5.3999 25.4956 5.3999 24.75Z" fill="#151515"/>
<path fill-rule="evenodd" clip-rule="evenodd" d="M5.3999 17.55C5.3999 16.8044 6.00432 16.2 6.7499 16.2H29.2499C29.9955 16.2 30.5999 16.8044 30.5999 17.55C30.5999 18.2956 29.9955 18.9 29.2499 18.9H6.7499C6.00432 18.9 5.3999 18.2956 5.3999 17.55Z" fill="#151515"/>
</svg>
