<svg width="36" height="36" viewBox="0 0 36 36" fill="none" xmlns="http://www.w3.org/2000/svg">
<path fill-rule="evenodd" clip-rule="evenodd" d="M8.53633 8.82786C8.90162 8.23689 9.58272 8.12633 10.0576 8.58092L27.1414 24.9347C27.6163 25.3893 27.7052 26.2369 27.3399 26.8279C26.9746 27.4188 26.2935 27.5294 25.8186 27.0748L8.73476 10.721C8.25987 10.2664 8.17103 9.41882 8.53633 8.82786Z" fill="#202020"/>
<path fill-rule="evenodd" clip-rule="evenodd" d="M27.4637 8.82786C27.0984 8.23689 26.4173 8.12633 25.9424 8.58092L8.85857 24.9347C8.38369 25.3893 8.29485 26.2369 8.66015 26.8279C9.02544 27.4188 9.70654 27.5294 10.1814 27.0748L27.2652 10.721C27.7401 10.2664 27.829 9.41882 27.4637 8.82786Z" fill="#202020"/>
</svg>
