<svg width="82" height="33" viewBox="0 0 82 33" fill="none" xmlns="http://www.w3.org/2000/svg">
<path d="M33.8489 28C33.6837 28 33.5434 27.94 33.4278 27.82C33.3122 27.7 33.2543 27.5543 33.2543 27.3829V25.48C33.2543 25.2914 33.3122 25.1371 33.4278 25.0171C33.5434 24.8971 33.6837 24.8371 33.8489 24.8371H34.7655C35.2445 24.8371 35.6573 24.7343 36.0042 24.5286C36.351 24.3057 36.673 23.9629 36.9703 23.5C37.2676 23.02 37.5649 22.4114 37.8621 21.6743L42.5938 10.4886C42.6433 10.3171 42.7259 10.1971 42.8415 10.1286C42.9736 10.0429 43.114 10 43.2627 10H45.5666C45.6987 10 45.8143 10.0514 45.9134 10.1543C46.029 10.2571 46.0868 10.3771 46.0868 10.5143C46.0868 10.6 46.0785 10.6771 46.062 10.7457C46.0455 10.8143 46.0207 10.8829 45.9877 10.9514L41.0083 22.7543C40.5954 23.6971 40.2073 24.5029 39.844 25.1714C39.4806 25.8229 39.0843 26.3629 38.6549 26.7914C38.2255 27.2029 37.7135 27.5114 37.1189 27.7171C36.5409 27.9057 35.839 28 35.0132 28H33.8489ZM37.6887 23.5L31.0743 10.8229C31.0248 10.72 31 10.6343 31 10.5657C31 10.4114 31.0578 10.2829 31.1734 10.18C31.289 10.06 31.4129 10 31.545 10H33.9728C34.1214 10 34.2453 10.0429 34.3444 10.1286C34.46 10.1971 34.5508 10.3171 34.6169 10.4886L39.4972 19.9514L37.6887 23.5Z" fill="#151515"/>
<path d="M48.6171 28C48.4355 28 48.2868 27.94 48.1712 27.82C48.0556 27.7 47.9978 27.5543 47.9978 27.3829V10.6429C47.9978 10.4543 48.0556 10.3 48.1712 10.18C48.2868 10.06 48.4355 10 48.6171 10H50.5742C50.8054 10 50.9788 10.0686 51.0944 10.2057C51.21 10.3257 51.2844 10.42 51.3174 10.4886L56.0986 19.7457L60.9293 10.4886C60.9624 10.42 61.0367 10.3257 61.1523 10.2057C61.2679 10.0686 61.4413 10 61.6725 10H63.6048C63.7865 10 63.9351 10.06 64.0508 10.18C64.1664 10.3 64.2242 10.4543 64.2242 10.6429V27.3829C64.2242 27.5543 64.1664 27.7 64.0508 27.82C63.9351 27.94 63.7865 28 63.6048 28H61.5239C61.3422 28 61.1936 27.94 61.078 27.82C60.9789 27.7 60.9293 27.5543 60.9293 27.3829V16.2486L57.4611 23.1143C57.3785 23.2686 57.2712 23.4057 57.1391 23.5257C57.0069 23.6286 56.8335 23.68 56.6188 23.68H55.6031C55.3719 23.68 55.1903 23.6286 55.0581 23.5257C54.9425 23.4057 54.8434 23.2686 54.7609 23.1143L51.2926 16.2486V27.3829C51.2926 27.5543 51.2348 27.7 51.1192 27.82C51.0036 27.94 50.8632 28 50.6981 28H48.6171Z" fill="#151515"/>
<path d="M68.6721 28C68.5069 28 68.3666 27.9486 68.2509 27.8457C68.1353 27.7257 68.0775 27.5714 68.0775 27.3829V10.6429C68.0775 10.4543 68.1353 10.3 68.2509 10.18C68.3666 10.06 68.5069 10 68.6721 10H70.9264C71.1081 10 71.2485 10.06 71.3476 10.18C71.4632 10.3 71.521 10.4543 71.521 10.6429V17.2771H73.6763L77.7143 10.4629C77.7968 10.3257 77.9042 10.2143 78.0363 10.1286C78.185 10.0429 78.3749 10 78.6061 10H81.0586C81.2238 10 81.3476 10.0514 81.4302 10.1543C81.5293 10.2571 81.5789 10.3857 81.5789 10.54C81.5789 10.6257 81.5458 10.7286 81.4798 10.8486L76.7977 18.6914L81.9257 27.1257C81.9752 27.1771 82 27.2714 82 27.4086C82 27.5629 81.9422 27.7 81.8266 27.82C81.7275 27.94 81.5954 28 81.4302 28H78.8786C78.6639 28 78.4987 27.9486 78.3831 27.8457C78.284 27.7429 78.2015 27.6486 78.1354 27.5629L73.8001 20.4914H71.521V27.3829C71.521 27.5543 71.4632 27.7 71.3476 27.82C71.2485 27.94 71.1081 28 70.9264 28H68.6721Z" fill="#151515"/>
<path fill-rule="evenodd" clip-rule="evenodd" d="M11.9892 0.105457C8.90312 0.670109 5.7602 3.40652 3.97346 7.08444C3.18549 8.70634 2.81193 10.2305 2.58403 12.7545C2.39684 14.8268 2.43702 15.3713 2.66561 13.8608C3.29503 9.70109 4.57655 6.57787 6.51858 4.47C9.92185 0.776319 14.6389 0.728608 18.1394 4.35231C20.1686 6.45299 21.6574 9.6903 22.2681 13.3295C22.511 14.7777 22.664 17.856 22.5013 18.0218C22.3833 18.1421 20.7514 17.8022 20.1456 17.5313L19.5879 17.2818L19.5085 19.3053C19.4246 21.4419 19.1741 22.7814 18.5335 24.5202C16.6045 29.755 12.0659 31.5817 8.41174 28.5941C7.67183 27.989 6.50175 26.7066 6.23312 26.2063C6.11978 25.9951 6.1567 25.9774 6.54926 26.0561C6.83282 26.1128 7.25606 26.4111 7.71866 26.8805C8.129 27.2969 8.83484 27.8121 9.34509 28.068C10.1726 28.4827 10.353 28.5198 11.5385 28.519C12.6987 28.518 12.9205 28.4744 13.7128 28.092C16.6262 26.686 18.5406 22.7893 18.2731 18.8098C18.226 18.1089 18.1513 17.4399 18.1074 17.3231C18.046 17.1602 18.1257 17.1107 18.4492 17.1107C18.6811 17.1107 18.8709 17.0569 18.8709 16.9914C18.8709 16.7633 17.1666 16.4884 15.8168 16.4988C14.0511 16.5122 13.4314 16.7603 11.2315 18.3341C10.2966 19.0028 9.16008 19.7199 8.70603 19.9275C7.77404 20.3536 6.32732 20.7004 5.4666 20.704C5.09576 20.7055 4.89038 20.768 4.89174 20.8792C4.8954 21.2002 5.28471 22.7442 5.50053 23.2935L5.71473 23.8391L7.64373 24.105C9.5449 24.3672 9.56092 24.3724 8.75829 24.4598C8.31035 24.5086 6.41678 24.5559 4.55035 24.5647C2.68393 24.5737 0.820902 24.6225 0.410289 24.6734C-0.313882 24.7632 -0.263387 24.7795 2.08749 25.2169C3.42046 25.465 4.52809 25.6874 4.54859 25.711C4.56922 25.7347 4.78437 26.1586 5.02666 26.653C6.01539 28.6697 7.68486 30.6607 9.21736 31.6509C9.55399 31.8684 9.7367 32.0464 9.62336 32.0464C9.25727 32.0464 0.213738 32.8781 0.00307006 32.9311C-0.108915 32.9593 3.02152 32.9896 6.95973 32.9984C11.6532 33.0089 14.12 32.9668 14.12 32.8762C14.12 32.8001 14.0437 32.7334 13.9503 32.7282C13.8571 32.7228 13.9028 32.665 14.0521 32.5996C14.4253 32.4363 14.6396 32.4363 14.3915 32.5996C14.2471 32.6947 14.4154 32.7343 14.9714 32.7358C15.5636 32.7373 15.9777 32.6333 16.6681 32.3092C17.5086 31.9146 17.5572 31.869 17.2784 31.7359C17.038 31.6213 16.8139 31.665 16.1925 31.9477C15.7619 32.1435 15.2263 32.3396 15.0023 32.3833C14.7783 32.4271 14.6867 32.4239 14.7987 32.3764C14.9107 32.3288 15.3875 32.1057 15.8584 31.8807C16.6074 31.5227 16.6924 31.444 16.5371 31.2521C16.381 31.0589 16.4022 31.0432 16.7126 31.1221C17.0088 31.1971 17.1993 31.0882 17.8972 30.4448C18.3545 30.0232 18.8523 29.5014 19.0033 29.2854L19.2777 28.8926L18.8433 28.6123L18.4088 28.3321L19.0628 28.3569L19.717 28.3816L20.3779 27.137C20.7415 26.4524 21.0398 25.8504 21.0408 25.7994C21.0419 25.7482 20.8442 25.638 20.6016 25.5545C20.359 25.471 20.0164 25.2897 19.8405 25.1516C19.5223 24.9022 19.5257 24.9009 20.4413 24.9125L21.3619 24.9243L21.61 24.0945C21.7464 23.6382 21.8732 22.9918 21.8915 22.6582C21.9225 22.0973 21.8942 22.04 21.5163 21.8976C20.9981 21.7022 20.2283 21.2291 20.2283 21.106C20.2283 21.0543 20.4574 21.0662 20.7373 21.1324C21.5376 21.3219 22.0893 21.2868 22.182 21.0407C22.2273 20.9204 22.2644 20.3914 22.2644 19.8652C22.2644 18.9814 22.2864 18.9085 22.5533 18.9085C22.8292 18.9085 22.8394 18.9585 22.7794 20.0149C22.7228 21.0117 22.7407 21.1212 22.9607 21.1212C23.3295 21.1212 23.4855 20.6867 23.4914 19.6437C23.4962 18.7413 23.5147 18.6893 23.9211 18.4245C24.8287 17.8333 24.9123 17.5765 24.903 15.4054C24.8869 11.578 23.7693 7.90286 21.6895 4.83772C20.8435 3.59087 19.2052 2.00436 18.044 1.30709C16.2959 0.257856 13.8306 -0.231564 11.9892 0.105457ZM9.2722 3.33558C7.43618 3.94614 5.78884 5.70289 4.71949 8.19079C4.33073 9.09509 3.66207 11.5689 3.67795 12.0435C3.68352 12.2064 3.83595 11.7795 4.0169 11.0949C4.82115 8.05111 6.53446 5.58063 8.4978 4.63346C9.34251 4.22591 9.55997 4.18027 10.6586 4.18027C11.7486 4.18027 11.978 4.22743 12.787 4.61797C14.8749 5.62572 16.456 7.90493 17.9281 12.0288C18.2472 12.9228 18.533 13.6289 18.5633 13.5979C18.6984 13.4603 18.1524 10.9239 17.7263 9.70897C17.0745 7.85127 16.3013 6.58658 15.014 5.27307C13.5644 3.79388 12.4987 3.24984 10.9301 3.18816C10.2636 3.16188 9.62322 3.21886 9.2722 3.33558ZM16.4785 17.6812C16.6328 18.4675 16.5626 20.7612 16.357 21.6501C16.1033 22.746 15.6121 23.8124 15.0714 24.4403L14.6547 24.9243L15.0679 24.2146C15.8134 22.9338 16.0491 22.0371 16.1174 20.2223C16.1518 19.3096 16.1205 18.3014 16.0482 17.9818C15.9757 17.6624 15.9501 17.3667 15.991 17.3249C16.1831 17.1292 16.4015 17.2888 16.4785 17.6812ZM13.817 19.4271C13.7045 21.5314 12.8879 23.0511 11.6001 23.552C11.034 23.7724 10.9619 23.7723 10.3935 23.5512C9.71403 23.2868 9.04918 22.5907 8.67549 21.7525C8.33084 20.9792 8.35175 20.7517 8.77553 20.6691C9.06397 20.613 9.24071 20.7153 9.70236 21.2061C10.1218 21.6523 10.3777 21.8126 10.6694 21.8121C11.5781 21.811 12.3306 20.925 12.6322 19.5008C12.7391 18.9961 12.8757 18.7677 13.2087 18.5368C13.4486 18.3704 13.6983 18.2303 13.7633 18.2256C13.8284 18.2209 13.8526 18.7617 13.817 19.4271ZM3.3291 20.0196C3.38245 20.7068 3.52633 21.7796 3.64891 22.4038L3.87165 23.5385L4.38068 23.6218C4.66071 23.6678 4.8897 23.6936 4.8897 23.6795C4.8897 23.6654 4.76346 23.2862 4.60913 22.837C4.45493 22.3877 4.20856 21.4685 4.06169 20.7942C3.81016 19.6393 3.48765 18.7702 3.31078 18.7702C3.26748 18.7702 3.27562 19.3324 3.3291 20.0196ZM22.4099 22.9243C22.3213 23.3836 22.1633 24.0059 22.059 24.3072C21.9078 24.7438 21.9046 24.8551 22.0429 24.8551C22.1384 24.8551 23.2079 24.6062 24.4195 24.302C26.88 23.6841 26.7886 23.7012 26.6823 23.8766C26.6397 23.9467 26.2849 24.1127 25.8938 24.2451C25.5027 24.3775 25.2461 24.5075 25.3234 24.5339C25.4007 24.5603 25.7977 24.4665 26.2057 24.3258C26.7625 24.1334 26.9583 23.9951 26.9909 23.7709C27.0336 23.4764 27.0062 23.4722 25.0438 23.4722H23.0533L23.1467 22.7807C23.237 22.1124 23.2288 22.0893 22.9056 22.0893C22.605 22.0893 22.5549 22.1735 22.4099 22.9243ZM21.45 25.9994C21.45 26.0963 21.1752 26.6669 20.8393 27.2673C20.5034 27.8677 20.2603 28.3912 20.299 28.4306C20.3377 28.47 20.5362 28.4437 20.74 28.3722C21.0145 28.2758 21.259 27.9553 21.6829 27.1363C21.9975 26.5282 22.2572 25.9839 22.2598 25.9269C22.2624 25.8699 22.0811 25.8232 21.8572 25.8232C21.6177 25.8232 21.45 25.8958 21.45 25.9994ZM18.6188 30.1945C17.671 31.1645 17.6395 31.2166 18.0007 31.2166C18.4808 31.2166 19.2051 30.7095 19.8533 29.9196C20.2586 29.4256 20.315 29.291 20.1452 29.2245C19.7639 29.0755 19.6274 29.1623 18.6188 30.1945Z" fill="#151515"/>
</svg>
