<svg width="34" height="34" viewBox="0 0 34 34" fill="none" xmlns="http://www.w3.org/2000/svg">
<path d="M16.7798 24.2351L10.8948 18.3501H26.7128V15.6001H11.0928L16.7798 9.9213L14.8355 7.97705L6.70654 16.1088V18.0531L14.8355 26.1821L16.7798 24.2378V24.2351Z" fill="#FFBC00"/>
<path d="M17 0.5C19.1668 0.5 21.3124 0.926785 23.3143 1.75599C25.3161 2.58519 27.1351 3.80057 28.6673 5.33274C30.1994 6.8649 31.4148 8.68385 32.244 10.6857C33.0732 12.6876 33.5 14.8332 33.5 17C33.5 19.1668 33.0732 21.3124 32.244 23.3143C31.4148 25.3161 30.1994 27.1351 28.6673 28.6673C27.1351 30.1994 25.3161 31.4148 23.3143 32.244C21.3124 33.0732 19.1668 33.5 17 33.5C12.6239 33.5 8.42709 31.7616 5.33274 28.6673C2.23839 25.5729 0.5 21.3761 0.5 17C0.5 12.6239 2.23839 8.42709 5.33274 5.33274C8.42709 2.23839 12.6239 0.5 17 0.5ZM17 3.25C13.3533 3.25 9.85591 4.69866 7.27728 7.27728C4.69866 9.85591 3.25 13.3533 3.25 17C3.25 20.6467 4.69866 24.1441 7.27728 26.7227C9.85591 29.3013 13.3533 30.75 17 30.75C20.6467 30.75 24.1441 29.3013 26.7227 26.7227C29.3013 24.1441 30.75 20.6467 30.75 17C30.75 13.3533 29.3013 9.85591 26.7227 7.27728C24.1441 4.69866 20.6467 3.25 17 3.25Z" fill="#FFBC00"/>
</svg>
