<svg width="34" height="34" viewBox="0 0 34 34" fill="none" xmlns="http://www.w3.org/2000/svg">
<path d="M17.2202 9.76495L23.1052 15.6499L7.28721 15.6499V18.3999L22.9072 18.3999L17.2202 24.0787L19.1645 26.0229L27.2935 17.8912V15.9469L19.1645 7.81795L17.2202 9.7622V9.76495Z" fill="#FFBC00"/>
<path d="M17 33.5C14.8332 33.5 12.6876 33.0732 10.6857 32.244C8.68385 31.4148 6.8649 30.1994 5.33274 28.6673C3.80057 27.1351 2.58519 25.3161 1.75599 23.3143C0.926785 21.3124 0.5 19.1668 0.5 17C0.5 14.8332 0.926785 12.6876 1.75599 10.6857C2.58519 8.68385 3.80057 6.8649 5.33274 5.33274C6.8649 3.80057 8.68385 2.58519 10.6857 1.75599C12.6876 0.926788 14.8332 0.5 17 0.5C21.3761 0.5 25.5729 2.23839 28.6673 5.33274C31.7616 8.42709 33.5 12.6239 33.5 17C33.5 21.3761 31.7616 25.5729 28.6673 28.6673C25.5729 31.7616 21.3761 33.5 17 33.5ZM17 30.75C20.6467 30.75 24.1441 29.3013 26.7227 26.7227C29.3013 24.1441 30.75 20.6467 30.75 17C30.75 13.3533 29.3013 9.85591 26.7227 7.27728C24.1441 4.69866 20.6467 3.25 17 3.25C13.3533 3.25 9.85591 4.69866 7.27728 7.27728C4.69866 9.85591 3.25 13.3533 3.25 17C3.25 20.6467 4.69866 24.1441 7.27728 26.7227C9.85591 29.3013 13.3533 30.75 17 30.75Z" fill="#FFBC00"/>
</svg>
