<svg width="28" height="28" viewBox="0 0 28 28" fill="none" xmlns="http://www.w3.org/2000/svg">
<path d="M7.10007 27.901C5.4349 27.8252 4.53033 27.5481 3.92867 27.3135C3.13145 27.0031 2.56308 26.6336 1.96475 26.0361C1.36642 25.4386 0.996107 24.8702 0.687372 24.073C0.4527 23.4713 0.175588 22.5668 0.0998603 20.9016C0.0166434 19.1016 0 18.5615 0 14.0012C0 9.44096 0.0183077 8.90172 0.0990281 7.10007C0.174756 5.4349 0.453532 4.53199 0.68654 3.92867C0.996939 3.13145 1.36725 2.56308 1.96392 1.96392C2.56142 1.36642 3.12979 0.995274 3.92784 0.68654C4.5295 0.451868 5.43407 0.174756 7.09924 0.0990281C8.90005 0.0166434 9.44096 0 13.9996 0C18.5599 0 19.0991 0.0183077 20.9008 0.0990281C22.5659 0.174756 23.4688 0.453532 24.0722 0.68654C24.8694 0.995274 25.4378 1.36642 26.0361 1.96392C26.6344 2.56142 27.0031 3.13062 27.3135 3.92784C27.5481 4.5295 27.8252 5.43407 27.901 7.09924C27.9834 8.90088 28 9.44013 28 14.0004C28 18.559 27.9834 19.0999 27.901 20.9016C27.8252 22.5668 27.5465 23.4713 27.3135 24.073C27.0031 24.8702 26.6336 25.4386 26.0361 26.0361C25.4386 26.6336 24.8694 27.0031 24.0722 27.3135C23.4705 27.5481 22.5659 27.8252 20.9008 27.901C19.1008 27.9834 18.5599 28 13.9996 28C9.44096 28 8.90005 27.9842 7.10007 27.901Z" fill="url(#paint0_radial_65_1541)"/>
<path d="M7.10007 27.901C5.4349 27.8252 4.53033 27.5481 3.92867 27.3135C3.13145 27.0031 2.56308 26.6336 1.96475 26.0361C1.36642 25.4386 0.996107 24.8702 0.687372 24.073C0.4527 23.4713 0.175588 22.5668 0.0998603 20.9016C0.0166434 19.1016 0 18.5615 0 14.0012C0 9.44096 0.0183077 8.90172 0.0990281 7.10007C0.174756 5.4349 0.453532 4.53199 0.68654 3.92867C0.996939 3.13145 1.36725 2.56308 1.96392 1.96392C2.56142 1.36642 3.12979 0.995274 3.92784 0.68654C4.5295 0.451868 5.43407 0.174756 7.09924 0.0990281C8.90005 0.0166434 9.44096 0 13.9996 0C18.5599 0 19.0991 0.0183077 20.9008 0.0990281C22.5659 0.174756 23.4688 0.453532 24.0722 0.68654C24.8694 0.995274 25.4378 1.36642 26.0361 1.96392C26.6344 2.56142 27.0031 3.13062 27.3135 3.92784C27.5481 4.5295 27.8252 5.43407 27.901 7.09924C27.9834 8.90088 28 9.44013 28 14.0004C28 18.559 27.9834 19.0999 27.901 20.9016C27.8252 22.5668 27.5465 23.4713 27.3135 24.073C27.0031 24.8702 26.6336 25.4386 26.0361 26.0361C25.4386 26.6336 24.8694 27.0031 24.0722 27.3135C23.4705 27.5481 22.5659 27.8252 20.9008 27.901C19.1008 27.9834 18.5599 28 13.9996 28C9.44096 28 8.90005 27.9842 7.10007 27.901Z" fill="url(#paint1_radial_65_1541)"/>
<path d="M10.5623 14.0593C10.5623 12.1444 12.1142 10.5917 14.0291 10.5917C15.944 10.5917 17.4967 12.1444 17.4967 14.0593C17.4967 15.9742 15.944 17.527 14.0291 17.527C12.1142 17.527 10.5623 15.9742 10.5623 14.0593ZM8.68771 14.0593C8.68771 17.0094 11.079 19.4007 14.0291 19.4007C16.9791 19.4007 19.3704 17.0094 19.3704 14.0593C19.3704 11.1093 16.9791 8.71798 14.0291 8.71798C11.079 8.71798 8.68779 11.1091 8.68779 14.0593H8.68771ZM18.3337 8.50619C18.3336 8.75307 18.4067 8.99444 18.5438 9.19977C18.6809 9.4051 18.8758 9.56517 19.1038 9.65973C19.3319 9.7543 19.5828 9.77912 19.825 9.73105C20.0672 9.68299 20.2896 9.56419 20.4643 9.38969C20.6389 9.21519 20.7579 8.99282 20.8061 8.7507C20.8544 8.50858 20.8298 8.25759 20.7354 8.02947C20.641 7.80134 20.4811 7.60632 20.2759 7.46908C20.0707 7.33184 19.8293 7.25854 19.5825 7.25844H19.582C19.251 7.25859 18.9337 7.39008 18.6997 7.62404C18.4656 7.85799 18.334 8.17527 18.3337 8.50619ZM9.82661 22.5265C8.81245 22.4803 8.26122 22.3114 7.8949 22.1687C7.40925 21.9796 7.06273 21.7544 6.69841 21.3906C6.33408 21.0268 6.10856 20.6806 5.92033 20.1949C5.77753 19.8288 5.6086 19.2774 5.5625 18.2632C5.51207 17.1667 5.502 16.8374 5.502 14.0595C5.502 11.2816 5.5129 10.9532 5.5625 9.8558C5.60868 8.84164 5.77886 8.29132 5.92033 7.92409C6.1094 7.43843 6.33458 7.09192 6.69841 6.7276C7.06223 6.36327 7.40841 6.13775 7.8949 5.94952C8.26105 5.80672 8.81245 5.63779 9.82661 5.59169C10.9231 5.54126 11.2525 5.53119 14.0291 5.53119C16.8057 5.53119 17.1354 5.54192 18.2328 5.59185C19.2469 5.63804 19.7972 5.80822 20.1645 5.94968C20.6501 6.13792 20.9967 6.36394 21.361 6.72776C21.7253 7.09159 21.95 7.4386 22.1391 7.92425C22.2819 8.29041 22.4508 8.8418 22.4969 9.85597C22.5473 10.9533 22.5574 11.2818 22.5574 14.0597C22.5574 16.8375 22.5473 17.166 22.4969 18.2634C22.4507 19.2775 22.2809 19.8288 22.1391 20.1951C21.95 20.6807 21.7248 21.0273 21.361 21.3907C20.9972 21.7542 20.6501 21.9797 20.1645 22.1688C19.7983 22.3116 19.2469 22.4805 18.2328 22.5267C17.1363 22.5771 16.8069 22.5872 14.0291 22.5872C11.2512 22.5872 10.9227 22.5771 9.82661 22.5267V22.5265ZM9.74048 3.72022C8.63312 3.77065 7.87643 3.94624 7.2156 4.20338C6.53164 4.46892 5.95187 4.82518 5.37293 5.4032C4.79399 5.98122 4.43865 6.56108 4.17311 7.24587C3.91597 7.90711 3.74038 8.66339 3.68995 9.77075C3.63869 10.8799 3.62695 11.2345 3.62695 14.0593C3.62695 16.8842 3.63869 17.2388 3.68995 18.3479C3.74038 19.4554 3.91597 20.2116 4.17311 20.8728C4.43865 21.5568 4.79407 22.1377 5.37293 22.7155C5.95178 23.2932 6.53081 23.649 7.2156 23.9153C7.87767 24.1724 8.63312 24.348 9.74048 24.3984C10.8502 24.4489 11.2042 24.4614 14.0291 24.4614C16.8539 24.4614 17.2085 24.4497 18.3177 24.3984C19.4251 24.348 20.1813 24.1724 20.8425 23.9153C21.5265 23.649 22.1063 23.2935 22.6852 22.7155C23.2641 22.1374 23.6187 21.5568 23.885 20.8728C24.1422 20.2116 24.3186 19.4553 24.3682 18.3479C24.4186 17.238 24.4304 16.8842 24.4304 14.0593C24.4304 11.2345 24.4186 10.8799 24.3682 9.77075C24.3178 8.6633 24.1422 7.9067 23.885 7.24587C23.6187 6.56191 23.2632 5.98214 22.6852 5.4032C22.1072 4.82426 21.5265 4.46892 20.8434 4.20338C20.1813 3.94624 19.425 3.76982 18.3185 3.72022C17.2092 3.66954 16.8548 3.65723 14.0303 3.65723C11.2059 3.65723 10.8506 3.66896 9.7409 3.72022" fill="white"/>
<defs>
<radialGradient id="paint0_radial_65_1541" cx="0" cy="0" r="1" gradientUnits="userSpaceOnUse" gradientTransform="translate(1.81213 27.3866) scale(35.5496)">
<stop offset="0.09" stop-color="#FA8F21"/>
<stop offset="0.78" stop-color="#D82D7E"/>
</radialGradient>
<radialGradient id="paint1_radial_65_1541" cx="0" cy="0" r="1" gradientUnits="userSpaceOnUse" gradientTransform="translate(19.3946 26.4875) scale(31.284)">
<stop offset="0.64" stop-color="#8C3AAA" stop-opacity="0"/>
<stop offset="1" stop-color="#8C3AAA"/>
</radialGradient>
</defs>
</svg>
