<svg width="28" height="28" viewBox="0 0 28 28" fill="none" xmlns="http://www.w3.org/2000/svg">
<path d="M7.10007 27.901C5.4349 27.8252 4.53033 27.5481 3.92867 27.3135C3.13145 27.0031 2.56308 26.6336 1.96475 26.0361C1.36642 25.4386 0.996107 24.8702 0.687372 24.073C0.4527 23.4713 0.175588 22.5668 0.0998603 20.9016C0.0166434 19.1016 0 18.5615 0 14.0012C0 9.44096 0.0183077 8.90172 0.0990281 7.10007C0.174756 5.4349 0.453532 4.53199 0.68654 3.92867C0.996939 3.13145 1.36725 2.56308 1.96392 1.96392C2.56142 1.36642 3.12979 0.995274 3.92784 0.68654C4.5295 0.451868 5.43407 0.174756 7.09924 0.0990281C8.90005 0.0166434 9.44096 0 13.9996 0C18.5599 0 19.0991 0.0183077 20.9008 0.0990281C22.5659 0.174756 23.4688 0.453532 24.0722 0.68654C24.8694 0.995274 25.4378 1.36642 26.0361 1.96392C26.6344 2.56142 27.0031 3.13062 27.3135 3.92784C27.5481 4.5295 27.8252 5.43407 27.901 7.09924C27.9834 8.90088 28 9.44013 28 14.0004C28 18.559 27.9834 19.0999 27.901 20.9016C27.8252 22.5668 27.5465 23.4713 27.3135 24.073C27.0031 24.8702 26.6336 25.4386 26.0361 26.0361C25.4386 26.6336 24.8694 27.0031 24.0722 27.3135C23.4705 27.5481 22.5659 27.8252 20.9008 27.901C19.1008 27.9834 18.5599 28 13.9996 28C9.44096 28 8.90005 27.9842 7.10007 27.901Z" fill="#34AADF"/>
<path d="M6.54425 13.1875C6.54425 13.1875 13.3553 10.4216 15.7175 9.44764C16.623 9.05809 19.6939 7.81142 19.6939 7.81142C19.6939 7.81142 21.1112 7.26605 20.9931 8.59057C20.9537 9.136 20.6388 11.0449 20.3238 13.1096C19.8514 16.0314 19.3395 19.2259 19.3395 19.2259C19.3395 19.2259 19.2608 20.1219 18.5915 20.2778C17.9222 20.4336 16.8198 19.7324 16.623 19.5765C16.4655 19.4597 13.6702 17.7066 12.6466 16.8495C12.371 16.6158 12.0561 16.1483 12.686 15.6029C14.1033 14.3173 15.7962 12.7201 16.8198 11.7072C17.2923 11.2397 17.7647 10.1489 15.7962 11.4734C13.001 13.3823 10.245 15.1744 10.245 15.1744C10.245 15.1744 9.6151 15.5639 8.43401 15.2133C7.25287 14.8627 5.87491 14.3952 5.87491 14.3952C5.87491 14.3952 4.93008 13.8109 6.54425 13.1875Z" fill="white"/>
</svg>
