<svg width="28" height="28" viewBox="0 0 28 28" fill="none" xmlns="http://www.w3.org/2000/svg">
<path d="M7.10007 27.901C5.4349 27.8252 4.53033 27.5481 3.92867 27.3135C3.13145 27.0031 2.56308 26.6336 1.96475 26.0361C1.36642 25.4386 0.996107 24.8702 0.687372 24.073C0.4527 23.4713 0.175588 22.5668 0.0998603 20.9016C0.0166434 19.1016 0 18.5615 0 14.0012C0 9.44096 0.0183077 8.90172 0.0990281 7.10007C0.174756 5.4349 0.453532 4.53199 0.68654 3.92867C0.996939 3.13145 1.36725 2.56308 1.96392 1.96392C2.56142 1.36642 3.12979 0.995274 3.92784 0.68654C4.5295 0.451868 5.43407 0.174756 7.09924 0.0990281C8.90005 0.0166434 9.44096 0 13.9996 0C18.5599 0 19.0991 0.0183077 20.9008 0.0990281C22.5659 0.174756 23.4688 0.453532 24.0722 0.68654C24.8694 0.995274 25.4378 1.36642 26.0361 1.96392C26.6344 2.56142 27.0031 3.13062 27.3135 3.92784C27.5481 4.5295 27.8252 5.43407 27.901 7.09924C27.9834 8.90088 28 9.44013 28 14.0004C28 18.559 27.9834 19.0999 27.901 20.9016C27.8252 22.5668 27.5465 23.4713 27.3135 24.073C27.0031 24.8702 26.6336 25.4386 26.0361 26.0361C25.4386 26.6336 24.8694 27.0031 24.0722 27.3135C23.4705 27.5481 22.5659 27.8252 20.9008 27.901C19.1008 27.9834 18.5599 28 13.9996 28C9.44096 28 8.90005 27.9842 7.10007 27.901Z" fill="#5181B8"/>
<path fill-rule="evenodd" clip-rule="evenodd" d="M23.3479 9.19894C23.4858 8.72921 23.3479 8.40039 22.7045 8.40039H20.5599C20.0084 8.40039 19.7633 8.69789 19.6254 9.02671C19.6254 9.02671 18.5378 11.7512 16.9906 13.5049C16.485 14.0216 16.2706 14.1782 15.9948 14.1782C15.857 14.1782 15.6578 14.0216 15.6578 13.5518V9.19894C15.6578 8.63526 15.5046 8.40039 15.0451 8.40039H11.6749C11.3379 8.40039 11.1234 8.66657 11.1234 8.90144C11.1234 9.43381 11.8893 9.55908 11.9813 11.0309V14.2564C11.9813 14.961 11.8587 15.0863 11.583 15.0863C10.863 15.0863 9.08597 12.3618 8.04428 9.23026C7.82982 8.65092 7.63067 8.40039 7.07919 8.40039H4.93453C4.32177 8.40039 4.19922 8.69789 4.19922 9.02671C4.19922 9.60605 4.91921 12.4871 7.58471 16.292C9.36171 18.8912 11.8587 20.3004 14.1259 20.3004C15.4893 20.3004 15.6578 19.9872 15.6578 19.4549V17.482C15.6578 16.8557 15.7804 16.7304 16.2246 16.7304C16.5463 16.7304 17.0825 16.887 18.354 18.1396C19.8093 19.6271 20.0544 20.3004 20.8663 20.3004H23.0109C23.6237 20.3004 23.9301 19.9872 23.7462 19.3766C23.5471 18.7659 22.8577 17.8734 21.9386 16.8087C21.4331 16.198 20.6824 15.556 20.468 15.2272C20.1463 14.8045 20.2382 14.6166 20.468 14.2564C20.468 14.2408 23.0875 10.4829 23.3479 9.19894Z" fill="white"/>
</svg>
