<svg width="130" height="70" viewBox="0 0 130 70" fill="none" xmlns="http://www.w3.org/2000/svg">
<path d="M50.5973 6.63636V27H45.6854V11.2301H45.5661L41.0121 14.0142V9.75852L46.0334 6.63636H50.5973ZM55.0991 27V23.4602L62.5266 16.9574C63.0835 16.4536 63.5574 15.9929 63.9485 15.5753C64.3396 15.151 64.6379 14.7268 64.8434 14.3026C65.0489 13.8717 65.1516 13.4044 65.1516 12.9006C65.1516 12.3371 65.029 11.8565 64.7837 11.4588C64.5385 11.0545 64.2004 10.7429 63.7695 10.5241C63.3387 10.3054 62.8448 10.196 62.288 10.196C61.7246 10.196 61.2307 10.312 60.8065 10.544C60.3822 10.7694 60.0508 11.0975 59.8121 11.5284C59.5801 11.9593 59.4641 12.483 59.4641 13.0994H54.8008C54.8008 11.714 55.1123 10.5175 55.7354 9.50994C56.3585 8.50237 57.2335 7.7268 58.3604 7.18324C59.494 6.63305 60.8098 6.35795 62.3079 6.35795C63.8524 6.35795 65.1947 6.61648 66.3349 7.13352C67.475 7.65057 68.3567 8.37311 68.9798 9.30114C69.6095 10.2225 69.9244 11.2931 69.9244 12.5128C69.9244 13.2884 69.7686 14.0573 69.457 14.8196C69.1455 15.5819 68.5853 16.4238 67.7766 17.3452C66.9746 18.2666 65.8344 19.3703 64.3562 20.6562L61.9201 22.9034V23.0327H70.1729V27H55.0991ZM72.2685 23.6193V19.7812L80.6108 6.63636H84.0213V11.8466H82.0426L77.1605 19.5824V19.7415H89.2415V23.6193H72.2685ZM82.1023 27V22.446L82.2017 20.7656V6.63636H86.8054V27H82.1023Z" fill="#FFBC00"/>
<path d="M33.916 48.6364L36.2001 43.4545H37.1547L34.3251 50H33.5069L30.7285 43.4545H31.666L33.916 48.6364ZM31.3422 43.4545V50H30.3365V43.4545H31.3422ZM36.4899 50V43.4545H37.4956V50H36.4899ZM41.9956 50.1364C41.4047 50.1364 40.8862 49.9957 40.4402 49.7145C39.997 49.4332 39.6504 49.0398 39.4004 48.5341C39.1532 48.0284 39.0297 47.4375 39.0297 46.7614C39.0297 46.0795 39.1532 45.4844 39.4004 44.9759C39.6504 44.4673 39.997 44.0724 40.4402 43.7912C40.8862 43.5099 41.4047 43.3693 41.9956 43.3693C42.5865 43.3693 43.1035 43.5099 43.5467 43.7912C43.9927 44.0724 44.3393 44.4673 44.5865 44.9759C44.8365 45.4844 44.9615 46.0795 44.9615 46.7614C44.9615 47.4375 44.8365 48.0284 44.5865 48.5341C44.3393 49.0398 43.9927 49.4332 43.5467 49.7145C43.1035 49.9957 42.5865 50.1364 41.9956 50.1364ZM41.9956 49.233C42.4444 49.233 42.8137 49.1179 43.1035 48.8878C43.3933 48.6577 43.6078 48.3551 43.747 47.9801C43.8862 47.6051 43.9558 47.1989 43.9558 46.7614C43.9558 46.3239 43.8862 45.9162 43.747 45.5384C43.6078 45.1605 43.3933 44.8551 43.1035 44.6222C42.8137 44.3892 42.4444 44.2727 41.9956 44.2727C41.5467 44.2727 41.1774 44.3892 40.8876 44.6222C40.5978 44.8551 40.3833 45.1605 40.2441 45.5384C40.1049 45.9162 40.0353 46.3239 40.0353 46.7614C40.0353 47.1989 40.1049 47.6051 40.2441 47.9801C40.3833 48.3551 40.5978 48.6577 40.8876 48.8878C41.1774 49.1179 41.5467 49.233 41.9956 49.233ZM50.8773 46.267V47.2045H47.2637V46.267H50.8773ZM47.5023 43.4545V50H46.4966V43.4545H47.5023ZM51.6444 43.4545V50H50.6387V43.4545H51.6444ZM56.1401 50.1364C55.5492 50.1364 55.0307 49.9957 54.5847 49.7145C54.1415 49.4332 53.7949 49.0398 53.5449 48.5341C53.2978 48.0284 53.1742 47.4375 53.1742 46.7614C53.1742 46.0795 53.2978 45.4844 53.5449 44.9759C53.7949 44.4673 54.1415 44.0724 54.5847 43.7912C55.0307 43.5099 55.5492 43.3693 56.1401 43.3693C56.731 43.3693 57.248 43.5099 57.6912 43.7912C58.1373 44.0724 58.4838 44.4673 58.731 44.9759C58.981 45.4844 59.106 46.0795 59.106 46.7614C59.106 47.4375 58.981 48.0284 58.731 48.5341C58.4838 49.0398 58.1373 49.4332 57.6912 49.7145C57.248 49.9957 56.731 50.1364 56.1401 50.1364ZM56.1401 49.233C56.589 49.233 56.9583 49.1179 57.248 48.8878C57.5378 48.6577 57.7523 48.3551 57.8915 47.9801C58.0307 47.6051 58.1003 47.1989 58.1003 46.7614C58.1003 46.3239 58.0307 45.9162 57.8915 45.5384C57.7523 45.1605 57.5378 44.8551 57.248 44.6222C56.9583 44.3892 56.589 44.2727 56.1401 44.2727C55.6912 44.2727 55.3219 44.3892 55.0321 44.6222C54.7424 44.8551 54.5279 45.1605 54.3887 45.5384C54.2495 45.9162 54.1799 46.3239 54.1799 46.7614C54.1799 47.1989 54.2495 47.6051 54.3887 47.9801C54.5279 48.3551 54.7424 48.6577 55.0321 48.8878C55.3219 49.1179 55.6912 49.233 56.1401 49.233ZM60.6412 50V43.4545H61.6468V46.3011H62.3116L64.6639 43.4545H65.9593L63.3173 46.608L65.9934 50H64.698L62.5502 47.2386H61.6468V50H60.6412ZM69.476 50.1364C68.8851 50.1364 68.3667 49.9957 67.9206 49.7145C67.4775 49.4332 67.1309 49.0398 66.8809 48.5341C66.6337 48.0284 66.5101 47.4375 66.5101 46.7614C66.5101 46.0795 66.6337 45.4844 66.8809 44.9759C67.1309 44.4673 67.4775 44.0724 67.9206 43.7912C68.3667 43.5099 68.8851 43.3693 69.476 43.3693C70.0669 43.3693 70.584 43.5099 71.0272 43.7912C71.4732 44.0724 71.8198 44.4673 72.0669 44.9759C72.3169 45.4844 72.4419 46.0795 72.4419 46.7614C72.4419 47.4375 72.3169 48.0284 72.0669 48.5341C71.8198 49.0398 71.4732 49.4332 71.0272 49.7145C70.584 49.9957 70.0669 50.1364 69.476 50.1364ZM69.476 49.233C69.9249 49.233 70.2942 49.1179 70.584 48.8878C70.8738 48.6577 71.0882 48.3551 71.2275 47.9801C71.3667 47.6051 71.4363 47.1989 71.4363 46.7614C71.4363 46.3239 71.3667 45.9162 71.2275 45.5384C71.0882 45.1605 70.8738 44.8551 70.584 44.6222C70.2942 44.3892 69.9249 44.2727 69.476 44.2727C69.0272 44.2727 68.6578 44.3892 68.3681 44.6222C68.0783 44.8551 67.8638 45.1605 67.7246 45.5384C67.5854 45.9162 67.5158 46.3239 67.5158 46.7614C67.5158 47.1989 67.5854 47.6051 67.7246 47.9801C67.8638 48.3551 68.0783 48.6577 68.3681 48.8878C68.6578 49.1179 69.0272 49.233 69.476 49.233ZM73.3975 50V49.0625H73.6362C73.8322 49.0625 73.9956 49.0241 74.1262 48.9474C74.2569 48.8679 74.362 48.7301 74.4416 48.5341C74.524 48.3352 74.5865 48.0597 74.6291 47.7074C74.6745 47.3523 74.7072 46.9006 74.7271 46.3523L74.8464 43.4545H79.2101V50H78.2044V44.392H75.801L75.6987 46.7273C75.676 47.2642 75.6277 47.7372 75.5538 48.1463C75.4828 48.5526 75.3734 48.8935 75.2257 49.169C75.0808 49.4446 74.8876 49.652 74.6461 49.7912C74.4047 49.9304 74.1021 50 73.7385 50H73.3975ZM83.7995 50.1364C83.1689 50.1364 82.6248 49.9972 82.1674 49.7188C81.7129 49.4375 81.362 49.0455 81.1149 48.5426C80.8706 48.0369 80.7484 47.4489 80.7484 46.7784C80.7484 46.108 80.8706 45.517 81.1149 45.0057C81.362 44.4915 81.7058 44.0909 82.1461 43.804C82.5893 43.5142 83.1064 43.3693 83.6973 43.3693C84.0382 43.3693 84.3748 43.4261 84.7072 43.5398C85.0396 43.6534 85.3422 43.8381 85.6149 44.0938C85.8876 44.3466 86.1049 44.6818 86.2669 45.0994C86.4288 45.517 86.5098 46.0312 86.5098 46.642V47.0682H81.4643V46.1989H85.487C85.487 45.8295 85.4132 45.5 85.2654 45.2102C85.1206 44.9205 84.9132 44.6918 84.6433 44.5241C84.3762 44.3565 84.0609 44.2727 83.6973 44.2727C83.2967 44.2727 82.9501 44.3722 82.6575 44.571C82.3677 44.767 82.1447 45.0227 81.9885 45.3381C81.8322 45.6534 81.7541 45.9915 81.7541 46.3523V46.9318C81.7541 47.4261 81.8393 47.8452 82.0098 48.1889C82.1831 48.5298 82.4231 48.7898 82.7299 48.9688C83.0368 49.1449 83.3933 49.233 83.7995 49.233C84.0637 49.233 84.3024 49.196 84.5154 49.1222C84.7314 49.0455 84.9174 48.9318 85.0737 48.7812C85.2299 48.6278 85.3507 48.4375 85.4359 48.2102L86.4075 48.483C86.3052 48.8125 86.1333 49.1023 85.8919 49.3523C85.6504 49.5994 85.3521 49.7926 84.997 49.9318C84.6419 50.0682 84.2427 50.1364 83.7995 50.1364ZM90.6987 50.1364C90.085 50.1364 89.5566 49.9915 89.1135 49.7017C88.6703 49.4119 88.3294 49.0128 88.0907 48.5043C87.8521 47.9957 87.7328 47.4148 87.7328 46.7614C87.7328 46.0966 87.8549 45.5099 88.0993 45.0014C88.3464 44.4901 88.6902 44.0909 89.1305 43.804C89.5737 43.5142 90.0907 43.3693 90.6816 43.3693C91.1419 43.3693 91.5566 43.4545 91.926 43.625C92.2953 43.7955 92.5978 44.0341 92.8336 44.3409C93.0694 44.6477 93.2157 45.0057 93.2726 45.4148H92.2669C92.1902 45.1165 92.0197 44.8523 91.7555 44.6222C91.4941 44.3892 91.1419 44.2727 90.6987 44.2727C90.3066 44.2727 89.9629 44.375 89.6674 44.5795C89.3748 44.7812 89.1461 45.0668 88.9814 45.4361C88.8194 45.8026 88.7385 46.233 88.7385 46.7273C88.7385 47.233 88.818 47.6733 88.9771 48.0483C89.139 48.4233 89.3663 48.7145 89.6589 48.9219C89.9544 49.1293 90.301 49.233 90.6987 49.233C90.96 49.233 91.1973 49.1875 91.4103 49.0966C91.6234 49.0057 91.8038 48.875 91.9515 48.7045C92.0993 48.5341 92.2044 48.3295 92.2669 48.0909H93.2726C93.2157 48.4773 93.0751 48.8253 92.8507 49.1349C92.6291 49.4418 92.335 49.6861 91.9686 49.8679C91.6049 50.0469 91.1816 50.1364 90.6987 50.1364ZM96.6689 50.1534C96.2541 50.1534 95.8777 50.0753 95.5396 49.919C95.2015 49.7599 94.9331 49.5312 94.7342 49.233C94.5353 48.9318 94.4359 48.5682 94.4359 48.142C94.4359 47.767 94.5098 47.4631 94.6575 47.2301C94.8052 46.9943 95.0027 46.8097 95.2498 46.6761C95.497 46.5426 95.7697 46.4432 96.068 46.3778C96.3691 46.3097 96.6717 46.2557 96.9757 46.2159C97.3734 46.1648 97.6958 46.1264 97.943 46.1009C98.193 46.0724 98.3748 46.0256 98.4885 45.9602C98.6049 45.8949 98.6632 45.7812 98.6632 45.6193V45.5852C98.6632 45.1648 98.5481 44.8381 98.318 44.6051C98.0907 44.3722 97.7456 44.2557 97.2825 44.2557C96.8024 44.2557 96.426 44.3608 96.1532 44.571C95.8805 44.7812 95.6887 45.0057 95.5779 45.2443L94.6234 44.9034C94.7939 44.5057 95.0211 44.196 95.3052 43.9744C95.5922 43.75 95.9047 43.5937 96.2427 43.5057C96.5836 43.4148 96.9189 43.3693 97.2484 43.3693C97.4586 43.3693 97.7001 43.3949 97.9728 43.446C98.2484 43.4943 98.514 43.5952 98.7697 43.7486C99.0282 43.902 99.2427 44.1335 99.4132 44.4432C99.5836 44.7528 99.6689 45.1676 99.6689 45.6875V50H98.6632V49.1136H98.612C98.5439 49.2557 98.4302 49.4077 98.2711 49.5696C98.112 49.7315 97.9004 49.8693 97.6362 49.983C97.372 50.0966 97.0495 50.1534 96.6689 50.1534ZM96.8223 49.25C97.22 49.25 97.5552 49.1719 97.8279 49.0156C98.1035 48.8594 98.3109 48.6577 98.4501 48.4105C98.5922 48.1634 98.6632 47.9034 98.6632 47.6307V46.7102C98.6206 46.7614 98.5268 46.8082 98.3819 46.8509C98.2399 46.8906 98.0751 46.9261 97.8876 46.9574C97.7029 46.9858 97.5225 47.0114 97.3464 47.0341C97.1731 47.054 97.0325 47.071 96.9245 47.0852C96.6632 47.1193 96.4189 47.1747 96.1916 47.2514C95.9672 47.3253 95.7853 47.4375 95.6461 47.5881C95.5098 47.7358 95.4416 47.9375 95.4416 48.1932C95.4416 48.5426 95.5708 48.8068 95.8294 48.9858C96.0907 49.1619 96.4217 49.25 96.8223 49.25ZM15.6811 66.1364C15.0902 66.1364 14.5717 65.9957 14.1257 65.7145C13.6825 65.4332 13.3359 65.0398 13.0859 64.5341C12.8388 64.0284 12.7152 63.4375 12.7152 62.7614C12.7152 62.0795 12.8388 61.4844 13.0859 60.9759C13.3359 60.4673 13.6825 60.0724 14.1257 59.7912C14.5717 59.5099 15.0902 59.3693 15.6811 59.3693C16.272 59.3693 16.7891 59.5099 17.2322 59.7912C17.6783 60.0724 18.0249 60.4673 18.272 60.9759C18.522 61.4844 18.647 62.0795 18.647 62.7614C18.647 63.4375 18.522 64.0284 18.272 64.5341C18.0249 65.0398 17.6783 65.4332 17.2322 65.7145C16.7891 65.9957 16.272 66.1364 15.6811 66.1364ZM15.6811 65.233C16.13 65.233 16.4993 65.1179 16.7891 64.8878C17.0788 64.6577 17.2933 64.3551 17.4325 63.9801C17.5717 63.6051 17.6413 63.1989 17.6413 62.7614C17.6413 62.3239 17.5717 61.9162 17.4325 61.5384C17.2933 61.1605 17.0788 60.8551 16.7891 60.6222C16.4993 60.3892 16.13 60.2727 15.6811 60.2727C15.2322 60.2727 14.8629 60.3892 14.5732 60.6222C14.2834 60.8551 14.0689 61.1605 13.9297 61.5384C13.7905 61.9162 13.7209 62.3239 13.7209 62.7614C13.7209 63.1989 13.7905 63.6051 13.9297 63.9801C14.0689 64.3551 14.2834 64.6577 14.5732 64.8878C14.8629 65.1179 15.2322 65.233 15.6811 65.233ZM19.3267 60.392V59.4545H24.6449V60.392H22.4972V66H21.4915V60.392H19.3267ZM26.1119 68.4545V59.4545H27.0835V60.4943H27.2028C27.2766 60.3807 27.3789 60.2358 27.5096 60.0597C27.6431 59.8807 27.8335 59.7216 28.0806 59.5824C28.3306 59.4403 28.6687 59.3693 29.0948 59.3693C29.646 59.3693 30.1317 59.5071 30.5522 59.7827C30.9727 60.0582 31.3008 60.4489 31.5366 60.9545C31.7724 61.4602 31.8903 62.0568 31.8903 62.7443C31.8903 63.4375 31.7724 64.0384 31.5366 64.5469C31.3008 65.0526 30.9741 65.4446 30.5565 65.723C30.1388 65.9986 29.6573 66.1364 29.1119 66.1364C28.6914 66.1364 28.3548 66.0668 28.1019 65.9276C27.8491 65.7855 27.6545 65.625 27.5181 65.446C27.3817 65.2642 27.2766 65.1136 27.2028 64.9943H27.1175V68.4545H26.1119ZM27.1005 62.7273C27.1005 63.2216 27.1729 63.6577 27.3178 64.0355C27.4627 64.4105 27.6744 64.7045 27.9528 64.9176C28.2312 65.1278 28.5721 65.233 28.9755 65.233C29.396 65.233 29.7468 65.1222 30.0281 64.9006C30.3121 64.6761 30.5252 64.375 30.6673 63.9972C30.8121 63.6165 30.8846 63.1932 30.8846 62.7273C30.8846 62.267 30.8136 61.8523 30.6715 61.483C30.5323 61.1108 30.3207 60.8168 30.0366 60.6009C29.7553 60.3821 29.4016 60.2727 28.9755 60.2727C28.5664 60.2727 28.2227 60.3764 27.9442 60.5838C27.6658 60.7884 27.4556 61.0753 27.3136 61.4446C27.1715 61.8111 27.1005 62.2386 27.1005 62.7273ZM36.1687 66.1364C35.538 66.1364 34.994 65.9972 34.5366 65.7188C34.082 65.4375 33.7312 65.0455 33.484 64.5426C33.2397 64.0369 33.1175 63.4489 33.1175 62.7784C33.1175 62.108 33.2397 61.517 33.484 61.0057C33.7312 60.4915 34.0749 60.0909 34.5153 59.804C34.9585 59.5142 35.4755 59.3693 36.0664 59.3693C36.4073 59.3693 36.744 59.4261 37.0763 59.5398C37.4087 59.6534 37.7113 59.8381 37.984 60.0938C38.2567 60.3466 38.4741 60.6818 38.636 61.0994C38.7979 61.517 38.8789 62.0312 38.8789 62.642V63.0682H33.8335V62.1989H37.8562C37.8562 61.8295 37.7823 61.5 37.6346 61.2102C37.4897 60.9205 37.2823 60.6918 37.0124 60.5241C36.7454 60.3565 36.43 60.2727 36.0664 60.2727C35.6658 60.2727 35.3192 60.3722 35.0266 60.571C34.7369 60.767 34.5138 61.0227 34.3576 61.3381C34.2013 61.6534 34.1232 61.9915 34.1232 62.3523V62.9318C34.1232 63.4261 34.2085 63.8452 34.3789 64.1889C34.5522 64.5298 34.7923 64.7898 35.0991 64.9688C35.4059 65.1449 35.7624 65.233 36.1687 65.233C36.4329 65.233 36.6715 65.196 36.8846 65.1222C37.1005 65.0455 37.2866 64.9318 37.4428 64.7812C37.5991 64.6278 37.7198 64.4375 37.805 64.2102L38.7766 64.483C38.6744 64.8125 38.5025 65.1023 38.261 65.3523C38.0195 65.5994 37.7212 65.7926 37.3661 65.9318C37.011 66.0682 36.6119 66.1364 36.1687 66.1364ZM43.9883 64.6364L46.2724 59.4545H47.2269L44.3974 66H43.5792L40.8008 59.4545H41.7383L43.9883 64.6364ZM41.4144 59.4545V66H40.4087V59.4545H41.4144ZM46.5621 66V59.4545H47.5678V66H46.5621ZM52.0678 66.1364C51.4769 66.1364 50.9585 65.9957 50.5124 65.7145C50.0692 65.4332 49.7227 65.0398 49.4727 64.5341C49.2255 64.0284 49.1019 63.4375 49.1019 62.7614C49.1019 62.0795 49.2255 61.4844 49.4727 60.9759C49.7227 60.4673 50.0692 60.0724 50.5124 59.7912C50.9585 59.5099 51.4769 59.3693 52.0678 59.3693C52.6587 59.3693 53.1758 59.5099 53.619 59.7912C54.065 60.0724 54.4116 60.4673 54.6587 60.9759C54.9087 61.4844 55.0337 62.0795 55.0337 62.7614C55.0337 63.4375 54.9087 64.0284 54.6587 64.5341C54.4116 65.0398 54.065 65.4332 53.619 65.7145C53.1758 65.9957 52.6587 66.1364 52.0678 66.1364ZM52.0678 65.233C52.5167 65.233 52.886 65.1179 53.1758 64.8878C53.4656 64.6577 53.68 64.3551 53.8192 63.9801C53.9585 63.6051 54.0281 63.1989 54.0281 62.7614C54.0281 62.3239 53.9585 61.9162 53.8192 61.5384C53.68 61.1605 53.4656 60.8551 53.1758 60.6222C52.886 60.3892 52.5167 60.2727 52.0678 60.2727C51.619 60.2727 51.2496 60.3892 50.9599 60.6222C50.6701 60.8551 50.4556 61.1605 50.3164 61.5384C50.1772 61.9162 50.1076 62.3239 50.1076 62.7614C50.1076 63.1989 50.1772 63.6051 50.3164 63.9801C50.4556 64.3551 50.6701 64.6577 50.9599 64.8878C51.2496 65.1179 51.619 65.233 52.0678 65.233ZM60.9496 62.267V63.2045H57.3359V62.267H60.9496ZM57.5746 59.4545V66H56.5689V59.4545H57.5746ZM61.7166 59.4545V66H60.7109V59.4545H61.7166ZM62.6626 60.392V59.4545H67.9808V60.392H65.8331V66H64.8274V60.392H62.6626ZM70.4535 64.517L73.6069 59.4545H74.766V66H73.7603V60.9375L70.6239 66H69.4478V59.4545H70.4535V64.517ZM76.608 68.4545V59.4545H77.5795V60.4943H77.6989C77.7727 60.3807 77.875 60.2358 78.0057 60.0597C78.1392 59.8807 78.3295 59.7216 78.5767 59.5824C78.8267 59.4403 79.1648 59.3693 79.5909 59.3693C80.142 59.3693 80.6278 59.5071 81.0483 59.7827C81.4688 60.0582 81.7969 60.4489 82.0327 60.9545C82.2685 61.4602 82.3864 62.0568 82.3864 62.7443C82.3864 63.4375 82.2685 64.0384 82.0327 64.5469C81.7969 65.0526 81.4702 65.4446 81.0526 65.723C80.6349 65.9986 80.1534 66.1364 79.608 66.1364C79.1875 66.1364 78.8509 66.0668 78.598 65.9276C78.3452 65.7855 78.1506 65.625 78.0142 65.446C77.8778 65.2642 77.7727 65.1136 77.6989 64.9943H77.6136V68.4545H76.608ZM77.5966 62.7273C77.5966 63.2216 77.669 63.6577 77.8139 64.0355C77.9588 64.4105 78.1705 64.7045 78.4489 64.9176C78.7273 65.1278 79.0682 65.233 79.4716 65.233C79.892 65.233 80.2429 65.1222 80.5241 64.9006C80.8082 64.6761 81.0213 64.375 81.1634 63.9972C81.3082 63.6165 81.3807 63.1932 81.3807 62.7273C81.3807 62.267 81.3097 61.8523 81.1676 61.483C81.0284 61.1108 80.8168 60.8168 80.5327 60.6009C80.2514 60.3821 79.8977 60.2727 79.4716 60.2727C79.0625 60.2727 78.7188 60.3764 78.4403 60.5838C78.1619 60.7884 77.9517 61.0753 77.8097 61.4446C77.6676 61.8111 77.5966 62.2386 77.5966 62.7273ZM86.5795 66.1364C85.9886 66.1364 85.4702 65.9957 85.0241 65.7145C84.581 65.4332 84.2344 65.0398 83.9844 64.5341C83.7372 64.0284 83.6136 63.4375 83.6136 62.7614C83.6136 62.0795 83.7372 61.4844 83.9844 60.9759C84.2344 60.4673 84.581 60.0724 85.0241 59.7912C85.4702 59.5099 85.9886 59.3693 86.5795 59.3693C87.1705 59.3693 87.6875 59.5099 88.1307 59.7912C88.5767 60.0724 88.9233 60.4673 89.1705 60.9759C89.4205 61.4844 89.5455 62.0795 89.5455 62.7614C89.5455 63.4375 89.4205 64.0284 89.1705 64.5341C88.9233 65.0398 88.5767 65.4332 88.1307 65.7145C87.6875 65.9957 87.1705 66.1364 86.5795 66.1364ZM86.5795 65.233C87.0284 65.233 87.3977 65.1179 87.6875 64.8878C87.9773 64.6577 88.1918 64.3551 88.331 63.9801C88.4702 63.6051 88.5398 63.1989 88.5398 62.7614C88.5398 62.3239 88.4702 61.9162 88.331 61.5384C88.1918 61.1605 87.9773 60.8551 87.6875 60.6222C87.3977 60.3892 87.0284 60.2727 86.5795 60.2727C86.1307 60.2727 85.7614 60.3892 85.4716 60.6222C85.1818 60.8551 84.9673 61.1605 84.8281 61.5384C84.6889 61.9162 84.6193 62.3239 84.6193 62.7614C84.6193 63.1989 84.6889 63.6051 84.8281 63.9801C84.9673 64.3551 85.1818 64.6577 85.4716 64.8878C85.7614 65.1179 86.1307 65.233 86.5795 65.233ZM91.0806 66V59.4545H93.7567C94.4613 59.4545 95.021 59.6136 95.4357 59.9318C95.8505 60.25 96.0579 60.6705 96.0579 61.1932C96.0579 61.5909 95.94 61.8991 95.7042 62.1179C95.4684 62.3338 95.1658 62.4801 94.7965 62.5568C95.038 62.5909 95.2724 62.6761 95.4996 62.8125C95.7298 62.9489 95.9201 63.1364 96.0707 63.375C96.2212 63.6108 96.2965 63.9006 96.2965 64.2443C96.2965 64.5795 96.2113 64.8793 96.0408 65.1435C95.8704 65.4077 95.6261 65.6165 95.3079 65.7699C94.9897 65.9233 94.609 66 94.1658 66H91.0806ZM92.0352 65.0795H94.1658C94.5124 65.0795 94.7837 64.9972 94.9798 64.8324C95.1758 64.6676 95.2738 64.4432 95.2738 64.1591C95.2738 63.821 95.1758 63.5554 94.9798 63.3622C94.7837 63.1662 94.5124 63.0682 94.1658 63.0682H92.0352V65.0795ZM92.0352 62.1989H93.7567C94.0266 62.1989 94.2582 62.1619 94.4513 62.0881C94.6445 62.0114 94.7923 61.9034 94.8945 61.7642C94.9996 61.6222 95.0522 61.4545 95.0522 61.2614C95.0522 60.9858 94.9371 60.7699 94.707 60.6136C94.4769 60.4545 94.1602 60.375 93.7567 60.375H92.0352V62.1989ZM99.745 66.1534C99.3303 66.1534 98.9538 66.0753 98.6158 65.919C98.2777 65.7599 98.0092 65.5312 97.8104 65.233C97.6115 64.9318 97.5121 64.5682 97.5121 64.142C97.5121 63.767 97.5859 63.4631 97.7337 63.2301C97.8814 62.9943 98.0788 62.8097 98.326 62.6761C98.5732 62.5426 98.8459 62.4432 99.1442 62.3778C99.4453 62.3097 99.7479 62.2557 100.052 62.2159C100.45 62.1648 100.772 62.1264 101.019 62.1009C101.269 62.0724 101.451 62.0256 101.565 61.9602C101.681 61.8949 101.739 61.7812 101.739 61.6193V61.5852C101.739 61.1648 101.624 60.8381 101.394 60.6051C101.167 60.3722 100.822 60.2557 100.359 60.2557C99.8786 60.2557 99.5021 60.3608 99.2294 60.571C98.9567 60.7812 98.7649 61.0057 98.6541 61.2443L97.6996 60.9034C97.87 60.5057 98.0973 60.196 98.3814 59.9744C98.6683 59.75 98.9808 59.5937 99.3189 59.5057C99.6598 59.4148 99.995 59.3693 100.325 59.3693C100.535 59.3693 100.776 59.3949 101.049 59.446C101.325 59.4943 101.59 59.5952 101.846 59.7486C102.104 59.902 102.319 60.1335 102.489 60.4432C102.66 60.7528 102.745 61.1676 102.745 61.6875V66H101.739V65.1136H101.688C101.62 65.2557 101.506 65.4077 101.347 65.5696C101.188 65.7315 100.977 65.8693 100.712 65.983C100.448 66.0966 100.126 66.1534 99.745 66.1534ZM99.8984 65.25C100.296 65.25 100.631 65.1719 100.904 65.0156C101.18 64.8594 101.387 64.6577 101.526 64.4105C101.668 64.1634 101.739 63.9034 101.739 63.6307V62.7102C101.697 62.7614 101.603 62.8082 101.458 62.8509C101.316 62.8906 101.151 62.9261 100.964 62.9574C100.779 62.9858 100.599 63.0114 100.423 63.0341C100.249 63.054 100.109 63.071 100.001 63.0852C99.7393 63.1193 99.495 63.1747 99.2678 63.2514C99.0433 63.3253 98.8615 63.4375 98.7223 63.5881C98.5859 63.7358 98.5178 63.9375 98.5178 64.1932C98.5178 64.5426 98.647 64.8068 98.9055 64.9858C99.1669 65.1619 99.4979 65.25 99.8984 65.25ZM104.001 66V65.0625H104.24C104.436 65.0625 104.599 65.0241 104.73 64.9474C104.86 64.8679 104.966 64.7301 105.045 64.5341C105.127 64.3352 105.19 64.0597 105.233 63.7074C105.278 63.3523 105.311 62.9006 105.331 62.3523L105.45 59.4545H109.814V66H108.808V60.392H106.404L106.302 62.7273C106.279 63.2642 106.231 63.7372 106.157 64.1463C106.086 64.5526 105.977 64.8935 105.829 65.169C105.684 65.4446 105.491 65.652 105.25 65.7912C105.008 65.9304 104.706 66 104.342 66H104.001ZM112.664 64.517L115.818 59.4545H116.977V66H115.971V60.9375L112.835 66H111.659V59.4545H112.664V64.517Z" fill="#151515"/>
</svg>
