<svg width="130" height="70" viewBox="0 0 130 70" fill="none" xmlns="http://www.w3.org/2000/svg">
<path d="M65.2449 27.2784C64.1312 27.2784 63.064 27.0994 62.0431 26.7415C61.0223 26.3769 60.1142 25.8002 59.3187 25.0114C58.5233 24.2159 57.8968 23.1752 57.4395 21.8892C56.9821 20.5966 56.7567 19.0223 56.7633 17.1662C56.7699 15.4891 56.9754 13.9844 57.3798 12.652C57.7842 11.313 58.3609 10.1761 59.1099 9.24148C59.8656 8.30682 60.7671 7.59422 61.8145 7.10369C62.8684 6.60653 64.045 6.35795 65.3443 6.35795C66.7695 6.35795 68.0256 6.63636 69.1127 7.19318C70.2065 7.74337 71.0815 8.4858 71.7377 9.42045C72.394 10.3485 72.7818 11.3826 72.9011 12.5227H68.0588C67.9129 11.8797 67.5914 11.3925 67.0943 11.0611C66.6038 10.723 66.0204 10.554 65.3443 10.554C64.0981 10.554 63.1667 11.0942 62.5502 12.1747C61.9404 13.2552 61.6288 14.7003 61.6156 16.5099H61.7449C62.0233 15.9001 62.4243 15.3764 62.948 14.9389C63.4717 14.5014 64.0716 14.1667 64.7477 13.9347C65.4305 13.696 66.153 13.5767 66.9153 13.5767C68.135 13.5767 69.2122 13.8584 70.1468 14.4219C71.0815 14.9853 71.814 15.7576 72.3443 16.7386C72.8746 17.7131 73.1364 18.83 73.1298 20.0895C73.1364 21.508 72.805 22.7609 72.1355 23.848C71.466 24.9285 70.5379 25.7704 69.3514 26.3736C68.1715 26.9768 66.8026 27.2784 65.2449 27.2784ZM65.215 23.5C65.8182 23.5 66.3585 23.3575 66.8358 23.0724C67.313 22.7874 67.6876 22.3996 67.9593 21.9091C68.2311 21.4186 68.3637 20.8651 68.3571 20.2486C68.3637 19.6255 68.2311 19.072 67.9593 18.5881C67.6942 18.1042 67.323 17.7197 66.8457 17.4347C66.3751 17.1496 65.8348 17.0071 65.225 17.0071C64.7808 17.0071 64.3665 17.09 63.9821 17.2557C63.5976 17.4214 63.2628 17.6534 62.9778 17.9517C62.6994 18.2434 62.4806 18.5881 62.3216 18.9858C62.1625 19.3769 62.0796 19.8011 62.073 20.2585C62.0796 20.8617 62.2188 21.4086 62.4906 21.8991C62.7624 22.3897 63.1336 22.7808 63.6042 23.0724C64.0749 23.3575 64.6118 23.5 65.215 23.5Z" fill="#FFBC00"/>
<path d="M27.1671 41L27.6784 41.6136C27.4796 41.8068 27.2495 41.9418 26.9881 42.0185C26.7267 42.0952 26.4313 42.142 26.1017 42.1591C25.7722 42.1761 25.4057 42.1932 25.0023 42.2102C24.5478 42.2273 24.1713 42.3381 23.873 42.5426C23.5748 42.7472 23.3446 43.0426 23.1827 43.429C23.0208 43.8153 22.9171 44.2898 22.8716 44.8523H22.9569C23.1784 44.4432 23.4853 44.142 23.8773 43.9489C24.2694 43.7557 24.6898 43.6591 25.1387 43.6591C25.65 43.6591 26.1103 43.7784 26.5194 44.017C26.9284 44.2557 27.2523 44.6094 27.4909 45.0781C27.7296 45.5469 27.8489 46.125 27.8489 46.8125C27.8489 47.4972 27.7267 48.0881 27.4824 48.5852C27.2409 49.0824 26.9015 49.4659 26.464 49.7358C26.0293 50.0028 25.5194 50.1364 24.9341 50.1364C24.3489 50.1364 23.8361 49.9986 23.3958 49.723C22.9554 49.4446 22.6131 49.0327 22.3688 48.4872C22.1245 47.9389 22.0023 47.2614 22.0023 46.4545V45.7557C22.0023 44.2983 22.2495 43.1932 22.7438 42.4403C23.2409 41.6875 23.9881 41.2983 24.9853 41.2727C25.3375 41.2614 25.6515 41.2585 25.927 41.2642C26.2026 41.2699 26.4426 41.2571 26.6472 41.2259C26.8517 41.1946 27.025 41.1193 27.1671 41ZM24.9341 49.233C25.329 49.233 25.6685 49.1335 25.9526 48.9347C26.2395 48.7358 26.4597 48.456 26.6131 48.0952C26.7665 47.7315 26.8432 47.304 26.8432 46.8125C26.8432 46.3352 26.7651 45.929 26.6088 45.5938C26.4554 45.2585 26.2353 45.0028 25.9483 44.8267C25.6614 44.6506 25.3176 44.5625 24.9171 44.5625C24.6245 44.5625 24.3617 44.6122 24.1287 44.7116C23.8958 44.8111 23.6969 44.9574 23.5321 45.1506C23.3674 45.3437 23.2395 45.5795 23.1486 45.858C23.0605 46.1364 23.0137 46.4545 23.008 46.8125C23.008 47.5455 23.1799 48.1321 23.5236 48.5724C23.8674 49.0128 24.3375 49.233 24.9341 49.233ZM29.3873 52.4545V43.4545H30.3588V44.4943H30.4782C30.552 44.3807 30.6543 44.2358 30.785 44.0597C30.9185 43.8807 31.1088 43.7216 31.356 43.5824C31.606 43.4403 31.9441 43.3693 32.3702 43.3693C32.9213 43.3693 33.4071 43.5071 33.8276 43.7827C34.248 44.0582 34.5762 44.4489 34.812 44.9545C35.0478 45.4602 35.1657 46.0568 35.1657 46.7443C35.1657 47.4375 35.0478 48.0384 34.812 48.5469C34.5762 49.0526 34.2495 49.4446 33.8319 49.723C33.4142 49.9986 32.9327 50.1364 32.3873 50.1364C31.9668 50.1364 31.6301 50.0668 31.3773 49.9276C31.1245 49.7855 30.9299 49.625 30.7935 49.446C30.6571 49.2642 30.552 49.1136 30.4782 48.9943H30.3929V52.4545H29.3873ZM30.3759 46.7273C30.3759 47.2216 30.4483 47.6577 30.5932 48.0355C30.7381 48.4105 30.9498 48.7045 31.2282 48.9176C31.5066 49.1278 31.8475 49.233 32.2509 49.233C32.6713 49.233 33.0222 49.1222 33.3034 48.9006C33.5875 48.6761 33.8006 48.375 33.9426 47.9972C34.0875 47.6165 34.16 47.1932 34.16 46.7273C34.16 46.267 34.089 45.8523 33.9469 45.483C33.8077 45.1108 33.5961 44.8168 33.312 44.6009C33.0307 44.3821 32.677 44.2727 32.2509 44.2727C31.8418 44.2727 31.498 44.3764 31.2196 44.5838C30.9412 44.7884 30.731 45.0753 30.589 45.4446C30.4469 45.8111 30.3759 46.2386 30.3759 46.7273ZM39.4441 50.1364C38.8134 50.1364 38.2694 49.9972 37.812 49.7188C37.3574 49.4375 37.0066 49.0455 36.7594 48.5426C36.5151 48.0369 36.3929 47.4489 36.3929 46.7784C36.3929 46.108 36.5151 45.517 36.7594 45.0057C37.0066 44.4915 37.3503 44.0909 37.7907 43.804C38.2338 43.5142 38.7509 43.3693 39.3418 43.3693C39.6827 43.3693 40.0194 43.4261 40.3517 43.5398C40.6841 43.6534 40.9867 43.8381 41.2594 44.0938C41.5321 44.3466 41.7495 44.6818 41.9114 45.0994C42.0733 45.517 42.1543 46.0312 42.1543 46.642V47.0682H37.1088V46.1989H41.1316C41.1316 45.8295 41.0577 45.5 40.91 45.2102C40.7651 44.9205 40.5577 44.6918 40.2878 44.5241C40.0208 44.3565 39.7054 44.2727 39.3418 44.2727C38.9412 44.2727 38.5946 44.3722 38.302 44.571C38.0123 44.767 37.7892 45.0227 37.633 45.3381C37.4767 45.6534 37.3986 45.9915 37.3986 46.3523V46.9318C37.3986 47.4261 37.4838 47.8452 37.6543 48.1889C37.8276 48.5298 38.0676 48.7898 38.3745 48.9688C38.6813 49.1449 39.0378 49.233 39.4441 49.233C39.7083 49.233 39.9469 49.196 40.16 49.1222C40.3759 49.0455 40.562 48.9318 40.7182 48.7812C40.8745 48.6278 40.9952 48.4375 41.0804 48.2102L42.052 48.483C41.9498 48.8125 41.7779 49.1023 41.5364 49.3523C41.2949 49.5994 40.9966 49.7926 40.6415 49.9318C40.2864 50.0682 39.8873 50.1364 39.4441 50.1364ZM48.0648 46.267V47.2045H44.4512V46.267H48.0648ZM44.6898 43.4545V50H43.6841V43.4545H44.6898ZM48.8319 43.4545V50H47.8262V43.4545H48.8319ZM49.9696 51.875V49.0625H50.5151C50.6486 48.9233 50.7637 48.7727 50.8603 48.6108C50.9569 48.4489 51.0407 48.2571 51.1117 48.0355C51.1855 47.8111 51.248 47.5384 51.2992 47.2173C51.3503 46.8935 51.3958 46.5028 51.4355 46.0455L51.6571 43.4545H55.8162V49.0625H56.8219V51.875H55.8162V50H50.9753V51.875H49.9696ZM51.6571 49.0625H54.8105V44.392H52.5946L52.4242 46.0455C52.3532 46.7301 52.2651 47.3281 52.16 47.8395C52.0549 48.3509 51.8873 48.7585 51.6571 49.0625ZM60.8159 50.1364C60.225 50.1364 59.7065 49.9957 59.2605 49.7145C58.8173 49.4332 58.4707 49.0398 58.2207 48.5341C57.9735 48.0284 57.85 47.4375 57.85 46.7614C57.85 46.0795 57.9735 45.4844 58.2207 44.9759C58.4707 44.4673 58.8173 44.0724 59.2605 43.7912C59.7065 43.5099 60.225 43.3693 60.8159 43.3693C61.4068 43.3693 61.9238 43.5099 62.367 43.7912C62.813 44.0724 63.1596 44.4673 63.4068 44.9759C63.6568 45.4844 63.7818 46.0795 63.7818 46.7614C63.7818 47.4375 63.6568 48.0284 63.4068 48.5341C63.1596 49.0398 62.813 49.4332 62.367 49.7145C61.9238 49.9957 61.4068 50.1364 60.8159 50.1364ZM60.8159 49.233C61.2647 49.233 61.6341 49.1179 61.9238 48.8878C62.2136 48.6577 62.4281 48.3551 62.5673 47.9801C62.7065 47.6051 62.7761 47.1989 62.7761 46.7614C62.7761 46.3239 62.7065 45.9162 62.5673 45.5384C62.4281 45.1605 62.2136 44.8551 61.9238 44.6222C61.6341 44.3892 61.2647 44.2727 60.8159 44.2727C60.367 44.2727 59.9977 44.3892 59.7079 44.6222C59.4181 44.8551 59.2037 45.1605 59.0645 45.5384C58.9252 45.9162 58.8556 46.3239 58.8556 46.7614C58.8556 47.1989 58.9252 47.6051 59.0645 47.9801C59.2037 48.3551 59.4181 48.6577 59.7079 48.8878C59.9977 49.1179 60.367 49.233 60.8159 49.233ZM65.3169 50V43.4545H67.9931C68.6976 43.4545 69.2573 43.6136 69.6721 43.9318C70.0868 44.25 70.2942 44.6705 70.2942 45.1932C70.2942 45.5909 70.1763 45.8991 69.9405 46.1179C69.7047 46.3338 69.4022 46.4801 69.0328 46.5568C69.2743 46.5909 69.5087 46.6761 69.736 46.8125C69.9661 46.9489 70.1564 47.1364 70.307 47.375C70.4576 47.6108 70.5328 47.9006 70.5328 48.2443C70.5328 48.5795 70.4476 48.8793 70.2772 49.1435C70.1067 49.4077 69.8624 49.6165 69.5442 49.7699C69.226 49.9233 68.8453 50 68.4022 50H65.3169ZM66.2715 49.0795H68.4022C68.7488 49.0795 69.0201 48.9972 69.2161 48.8324C69.4121 48.6676 69.5101 48.4432 69.5101 48.1591C69.5101 47.821 69.4121 47.5554 69.2161 47.3622C69.0201 47.1662 68.7488 47.0682 68.4022 47.0682H66.2715V49.0795ZM66.2715 46.1989H67.9931C68.263 46.1989 68.4945 46.1619 68.6877 46.0881C68.8809 46.0114 69.0286 45.9034 69.1309 45.7642C69.236 45.6222 69.2885 45.4545 69.2885 45.2614C69.2885 44.9858 69.1735 44.7699 68.9434 44.6136C68.7132 44.4545 68.3965 44.375 67.9931 44.375H66.2715V46.1989ZM75.4302 50V43.4545H76.4359V46.3011H77.1007L79.4529 43.4545H80.7484L78.1064 46.608L80.7825 50H79.487L77.3393 47.2386H76.4359V50H75.4302ZM84.2651 50.1364C83.6742 50.1364 83.1557 49.9957 82.7097 49.7145C82.2665 49.4332 81.9199 49.0398 81.6699 48.5341C81.4228 48.0284 81.2992 47.4375 81.2992 46.7614C81.2992 46.0795 81.4228 45.4844 81.6699 44.9759C81.9199 44.4673 82.2665 44.0724 82.7097 43.7912C83.1557 43.5099 83.6742 43.3693 84.2651 43.3693C84.856 43.3693 85.373 43.5099 85.8162 43.7912C86.2623 44.0724 86.6088 44.4673 86.856 44.9759C87.106 45.4844 87.231 46.0795 87.231 46.7614C87.231 47.4375 87.106 48.0284 86.856 48.5341C86.6088 49.0398 86.2623 49.4332 85.8162 49.7145C85.373 49.9957 84.856 50.1364 84.2651 50.1364ZM84.2651 49.233C84.714 49.233 85.0833 49.1179 85.373 48.8878C85.6628 48.6577 85.8773 48.3551 86.0165 47.9801C86.1557 47.6051 86.2253 47.1989 86.2253 46.7614C86.2253 46.3239 86.1557 45.9162 86.0165 45.5384C85.8773 45.1605 85.6628 44.8551 85.373 44.6222C85.0833 44.3892 84.714 44.2727 84.2651 44.2727C83.8162 44.2727 83.4469 44.3892 83.1571 44.6222C82.8674 44.8551 82.6529 45.1605 82.5137 45.5384C82.3745 45.9162 82.3049 46.3239 82.3049 46.7614C82.3049 47.1989 82.3745 47.6051 82.5137 47.9801C82.6529 48.3551 82.8674 48.6577 83.1571 48.8878C83.4469 49.1179 83.8162 49.233 84.2651 49.233ZM88.1866 50V49.0625H88.4252C88.6213 49.0625 88.7846 49.0241 88.9153 48.9474C89.046 48.8679 89.1511 48.7301 89.2306 48.5341C89.313 48.3352 89.3755 48.0597 89.4181 47.7074C89.4636 47.3523 89.4963 46.9006 89.5162 46.3523L89.6355 43.4545H93.9991V50H92.9934V44.392H90.59L90.4877 46.7273C90.465 47.2642 90.4167 47.7372 90.3429 48.1463C90.2718 48.5526 90.1625 48.8935 90.0147 49.169C89.8699 49.4446 89.6767 49.652 89.4352 49.7912C89.1937 49.9304 88.8912 50 88.5275 50H88.1866ZM98.5886 50.1364C97.9579 50.1364 97.4139 49.9972 96.9565 49.7188C96.502 49.4375 96.1511 49.0455 95.9039 48.5426C95.6596 48.0369 95.5375 47.4489 95.5375 46.7784C95.5375 46.108 95.6596 45.517 95.9039 45.0057C96.1511 44.4915 96.4949 44.0909 96.9352 43.804C97.3784 43.5142 97.8954 43.3693 98.4863 43.3693C98.8272 43.3693 99.1639 43.4261 99.4963 43.5398C99.8287 43.6534 100.131 43.8381 100.404 44.0938C100.677 44.3466 100.894 44.6818 101.056 45.0994C101.218 45.517 101.299 46.0312 101.299 46.642V47.0682H96.2534V46.1989H100.276C100.276 45.8295 100.202 45.5 100.055 45.2102C99.9096 44.9205 99.7022 44.6918 99.4324 44.5241C99.1653 44.3565 98.85 44.2727 98.4863 44.2727C98.0858 44.2727 97.7392 44.3722 97.4466 44.571C97.1568 44.767 96.9338 45.0227 96.7775 45.3381C96.6213 45.6534 96.5431 45.9915 96.5431 46.3523V46.9318C96.5431 47.4261 96.6284 47.8452 96.7988 48.1889C96.9721 48.5298 97.2122 48.7898 97.519 48.9688C97.8258 49.1449 98.1824 49.233 98.5886 49.233C98.8528 49.233 99.0914 49.196 99.3045 49.1222C99.5204 49.0455 99.7065 48.9318 99.8627 48.7812C100.019 48.6278 100.14 48.4375 100.225 48.2102L101.197 48.483C101.094 48.8125 100.922 49.1023 100.681 49.3523C100.439 49.5994 100.141 49.7926 99.786 49.9318C99.4309 50.0682 99.0318 50.1364 98.5886 50.1364ZM105.488 50.1364C104.874 50.1364 104.346 49.9915 103.903 49.7017C103.459 49.4119 103.118 49.0128 102.88 48.5043C102.641 47.9957 102.522 47.4148 102.522 46.7614C102.522 46.0966 102.644 45.5099 102.888 45.0014C103.135 44.4901 103.479 44.0909 103.92 43.804C104.363 43.5142 104.88 43.3693 105.471 43.3693C105.931 43.3693 106.346 43.4545 106.715 43.625C107.084 43.7955 107.387 44.0341 107.623 44.3409C107.858 44.6477 108.005 45.0057 108.062 45.4148H107.056C106.979 45.1165 106.809 44.8523 106.545 44.6222C106.283 44.3892 105.931 44.2727 105.488 44.2727C105.096 44.2727 104.752 44.375 104.456 44.5795C104.164 44.7812 103.935 45.0668 103.77 45.4361C103.608 45.8026 103.528 46.233 103.528 46.7273C103.528 47.233 103.607 47.6733 103.766 48.0483C103.928 48.4233 104.155 48.7145 104.448 48.9219C104.743 49.1293 105.09 49.233 105.488 49.233C105.749 49.233 105.986 49.1875 106.199 49.0966C106.412 49.0057 106.593 48.875 106.741 48.7045C106.888 48.5341 106.993 48.3295 107.056 48.0909H108.062C108.005 48.4773 107.864 48.8253 107.64 49.1349C107.418 49.4418 107.124 49.6861 106.758 49.8679C106.394 50.0469 105.971 50.1364 105.488 50.1364ZM28.062 66.1364C27.4711 66.1364 26.9526 65.9957 26.5066 65.7145C26.0634 65.4332 25.7168 65.0398 25.4668 64.5341C25.2196 64.0284 25.0961 63.4375 25.0961 62.7614C25.0961 62.0795 25.2196 61.4844 25.4668 60.9759C25.7168 60.4673 26.0634 60.0724 26.5066 59.7912C26.9526 59.5099 27.4711 59.3693 28.062 59.3693C28.6529 59.3693 29.1699 59.5099 29.6131 59.7912C30.0591 60.0724 30.4057 60.4673 30.6529 60.9759C30.9029 61.4844 31.0279 62.0795 31.0279 62.7614C31.0279 63.4375 30.9029 64.0284 30.6529 64.5341C30.4057 65.0398 30.0591 65.4332 29.6131 65.7145C29.1699 65.9957 28.6529 66.1364 28.062 66.1364ZM28.062 65.233C28.5108 65.233 28.8801 65.1179 29.1699 64.8878C29.4597 64.6577 29.6742 64.3551 29.8134 63.9801C29.9526 63.6051 30.0222 63.1989 30.0222 62.7614C30.0222 62.3239 29.9526 61.9162 29.8134 61.5384C29.6742 61.1605 29.4597 60.8551 29.1699 60.6222C28.8801 60.3892 28.5108 60.2727 28.062 60.2727C27.6131 60.2727 27.2438 60.3892 26.954 60.6222C26.6642 60.8551 26.4498 61.1605 26.3105 61.5384C26.1713 61.9162 26.1017 62.3239 26.1017 62.7614C26.1017 63.1989 26.1713 63.6051 26.3105 63.9801C26.4498 64.3551 26.6642 64.6577 26.954 64.8878C27.2438 65.1179 27.6131 65.233 28.062 65.233ZM37.421 57L37.9324 57.6136C37.7335 57.8068 37.5034 57.9418 37.242 58.0185C36.9806 58.0952 36.6852 58.142 36.3556 58.1591C36.0261 58.1761 35.6596 58.1932 35.2562 58.2102C34.8017 58.2273 34.4252 58.3381 34.127 58.5426C33.8287 58.7472 33.5985 59.0426 33.4366 59.429C33.2747 59.8153 33.171 60.2898 33.1255 60.8523H33.2108C33.4324 60.4432 33.7392 60.142 34.1312 59.9489C34.5233 59.7557 34.9437 59.6591 35.3926 59.6591C35.9039 59.6591 36.3642 59.7784 36.7733 60.017C37.1824 60.2557 37.5062 60.6094 37.7449 61.0781C37.9835 61.5469 38.1028 62.125 38.1028 62.8125C38.1028 63.4972 37.9806 64.0881 37.7363 64.5852C37.4949 65.0824 37.1554 65.4659 36.7179 65.7358C36.2832 66.0028 35.7733 66.1364 35.188 66.1364C34.6028 66.1364 34.09 65.9986 33.6497 65.723C33.2093 65.4446 32.867 65.0327 32.6227 64.4872C32.3784 63.9389 32.2562 63.2614 32.2562 62.4545V61.7557C32.2562 60.2983 32.5034 59.1932 32.9977 58.4403C33.4949 57.6875 34.242 57.2983 35.2392 57.2727C35.5914 57.2614 35.9054 57.2585 36.1809 57.2642C36.4565 57.2699 36.6966 57.2571 36.9011 57.2259C37.1056 57.1946 37.2789 57.1193 37.421 57ZM35.188 65.233C35.5829 65.233 35.9224 65.1335 36.2065 64.9347C36.4934 64.7358 36.7136 64.456 36.867 64.0952C37.0204 63.7315 37.0971 63.304 37.0971 62.8125C37.0971 62.3352 37.019 61.929 36.8627 61.5938C36.7093 61.2585 36.4892 61.0028 36.2022 60.8267C35.9153 60.6506 35.5716 60.5625 35.171 60.5625C34.8784 60.5625 34.6156 60.6122 34.3826 60.7116C34.1497 60.8111 33.9508 60.9574 33.786 61.1506C33.6213 61.3437 33.4934 61.5795 33.4025 61.858C33.3145 62.1364 33.2676 62.4545 33.2619 62.8125C33.2619 63.5455 33.4338 64.1321 33.7775 64.5724C34.1213 65.0128 34.5914 65.233 35.188 65.233ZM42.3002 66.1364C41.6866 66.1364 41.1582 65.9915 40.715 65.7017C40.2718 65.4119 39.9309 65.0128 39.6923 64.5043C39.4537 63.9957 39.3343 63.4148 39.3343 62.7614C39.3343 62.0966 39.4565 61.5099 39.7008 61.0014C39.948 60.4901 40.2917 60.0909 40.7321 59.804C41.1752 59.5142 41.6923 59.3693 42.2832 59.3693C42.7434 59.3693 43.1582 59.4545 43.5275 59.625C43.8968 59.7955 44.1994 60.0341 44.4352 60.3409C44.671 60.6477 44.8173 61.0057 44.8741 61.4148H43.8684C43.7917 61.1165 43.6213 60.8523 43.3571 60.6222C43.0957 60.3892 42.7434 60.2727 42.3002 60.2727C41.9082 60.2727 41.5645 60.375 41.269 60.5795C40.9764 60.7812 40.7477 61.0668 40.5829 61.4361C40.421 61.8026 40.34 62.233 40.34 62.7273C40.34 63.233 40.4196 63.6733 40.5787 64.0483C40.7406 64.4233 40.9679 64.7145 41.2605 64.9219C41.5559 65.1293 41.9025 65.233 42.3002 65.233C42.5616 65.233 42.7988 65.1875 43.0119 65.0966C43.225 65.0057 43.4054 64.875 43.5531 64.7045C43.7008 64.5341 43.8059 64.3295 43.8684 64.0909H44.8741C44.8173 64.4773 44.6767 64.8253 44.4522 65.1349C44.2306 65.4418 43.9366 65.6861 43.5701 65.8679C43.2065 66.0469 42.7832 66.1364 42.3002 66.1364ZM45.7647 66V65.0625H46.0034C46.1994 65.0625 46.3627 65.0241 46.4934 64.9474C46.6241 64.8679 46.7292 64.7301 46.8088 64.5341C46.8912 64.3352 46.9537 64.0597 46.9963 63.7074C47.0417 63.3523 47.0744 62.9006 47.0943 62.3523L47.2136 59.4545H51.5772V66H50.5716V60.392H48.1681L48.0659 62.7273C48.0431 63.2642 47.9949 63.7372 47.921 64.1463C47.85 64.5526 47.7406 64.8935 47.5929 65.169C47.448 65.4446 47.2548 65.652 47.0133 65.7912C46.7718 65.9304 46.4693 66 46.1056 66H45.7647ZM53.8358 68.4545C53.6653 68.4545 53.5133 68.4403 53.3798 68.4119C53.2463 68.3864 53.1539 68.3608 53.1028 68.3352L53.3585 67.4489C53.6028 67.5114 53.8187 67.5341 54.0062 67.517C54.1937 67.5 54.3599 67.4162 54.5048 67.2656C54.6525 67.1179 54.7875 66.8778 54.9096 66.5455L55.0971 66.0341L52.6767 59.4545H53.7676L55.5744 64.6705H55.6426L57.4494 59.4545H58.5403L55.7619 66.9545C55.6369 67.2926 55.4821 67.5724 55.2974 67.794C55.1127 68.0185 54.8983 68.1847 54.6539 68.2926C54.4125 68.4006 54.1397 68.4545 53.8358 68.4545ZM59.4586 66L62.1177 62.6761L59.4927 59.4545H60.6859L62.8677 62.25H63.4132V59.4545H64.4189V62.25H64.9473L67.1291 59.4545H68.3223L65.7143 62.6761L68.3564 66H67.1461L64.9302 63.1875H64.4189V66H63.4132V63.1875H62.9018L60.6689 66H59.4586ZM70.7992 64.517L73.9526 59.4545H75.1117V66H74.106V60.9375L70.9696 66H69.7935V59.4545H70.7992V64.517ZM76.9537 66V59.4545H79.6298C80.3343 59.4545 80.894 59.6136 81.3088 59.9318C81.7235 60.25 81.9309 60.6705 81.9309 61.1932C81.9309 61.5909 81.813 61.8991 81.5772 62.1179C81.3414 62.3338 81.0389 62.4801 80.6696 62.5568C80.911 62.5909 81.1454 62.6761 81.3727 62.8125C81.6028 62.9489 81.7931 63.1364 81.9437 63.375C82.0943 63.6108 82.1696 63.9006 82.1696 64.2443C82.1696 64.5795 82.0843 64.8793 81.9139 65.1435C81.7434 65.4077 81.4991 65.6165 81.1809 65.7699C80.8627 65.9233 80.4821 66 80.0389 66H76.9537ZM77.9082 65.0795H80.0389C80.3855 65.0795 80.6568 64.9972 80.8528 64.8324C81.0488 64.6676 81.1468 64.4432 81.1468 64.1591C81.1468 63.821 81.0488 63.5554 80.8528 63.3622C80.6568 63.1662 80.3855 63.0682 80.0389 63.0682H77.9082V65.0795ZM77.9082 62.1989H79.6298C79.8997 62.1989 80.1312 62.1619 80.3244 62.0881C80.5176 62.0114 80.6653 61.9034 80.7676 61.7642C80.8727 61.6222 80.9252 61.4545 80.9252 61.2614C80.9252 60.9858 80.8102 60.7699 80.5801 60.6136C80.35 60.4545 80.0332 60.375 79.6298 60.375H77.9082V62.1989ZM85.6181 66.1534C85.2033 66.1534 84.8269 66.0753 84.4888 65.919C84.1507 65.7599 83.8823 65.5312 83.6834 65.233C83.4846 64.9318 83.3851 64.5682 83.3851 64.142C83.3851 63.767 83.459 63.4631 83.6067 63.2301C83.7544 62.9943 83.9519 62.8097 84.199 62.6761C84.4462 62.5426 84.7189 62.4432 85.0172 62.3778C85.3184 62.3097 85.6209 62.2557 85.9249 62.2159C86.3226 62.1648 86.6451 62.1264 86.8922 62.1009C87.1422 62.0724 87.324 62.0256 87.4377 61.9602C87.5542 61.8949 87.6124 61.7812 87.6124 61.6193V61.5852C87.6124 61.1648 87.4973 60.8381 87.2672 60.6051C87.04 60.3722 86.6948 60.2557 86.2317 60.2557C85.7516 60.2557 85.3752 60.3608 85.1025 60.571C84.8297 60.7812 84.638 61.0057 84.5272 61.2443L83.5726 60.9034C83.7431 60.5057 83.9703 60.196 84.2544 59.9744C84.5414 59.75 84.8539 59.5937 85.1919 59.5057C85.5328 59.4148 85.8681 59.3693 86.1976 59.3693C86.4078 59.3693 86.6493 59.3949 86.9221 59.446C87.1976 59.4943 87.4632 59.5952 87.7189 59.7486C87.9775 59.902 88.1919 60.1335 88.3624 60.4432C88.5328 60.7528 88.6181 61.1676 88.6181 61.6875V66H87.6124V65.1136H87.5613C87.4931 65.2557 87.3794 65.4077 87.2203 65.5696C87.0613 65.7315 86.8496 65.8693 86.5854 65.983C86.3212 66.0966 85.9988 66.1534 85.6181 66.1534ZM85.7715 65.25C86.1692 65.25 86.5044 65.1719 86.7772 65.0156C87.0527 64.8594 87.2601 64.6577 87.3993 64.4105C87.5414 64.1634 87.6124 63.9034 87.6124 63.6307V62.7102C87.5698 62.7614 87.476 62.8082 87.3311 62.8509C87.1891 62.8906 87.0243 62.9261 86.8368 62.9574C86.6522 62.9858 86.4718 63.0114 86.2956 63.0341C86.1223 63.054 85.9817 63.071 85.8738 63.0852C85.6124 63.1193 85.3681 63.1747 85.1408 63.2514C84.9164 63.3253 84.7346 63.4375 84.5953 63.5881C84.459 63.7358 84.3908 63.9375 84.3908 64.1932C84.3908 64.5426 84.5201 64.8068 84.7786 64.9858C85.04 65.1619 85.3709 65.25 85.7715 65.25ZM93.198 66.1364C92.5673 66.1364 92.0233 65.9972 91.5659 65.7188C91.1113 65.4375 90.7605 65.0455 90.5133 64.5426C90.269 64.0369 90.1468 63.4489 90.1468 62.7784C90.1468 62.108 90.269 61.517 90.5133 61.0057C90.7605 60.4915 91.1042 60.0909 91.5446 59.804C91.9877 59.5142 92.5048 59.3693 93.0957 59.3693C93.4366 59.3693 93.7733 59.4261 94.1056 59.5398C94.438 59.6534 94.7406 59.8381 95.0133 60.0938C95.286 60.3466 95.5034 60.6818 95.6653 61.0994C95.8272 61.517 95.9082 62.0312 95.9082 62.642V63.0682H90.8627V62.1989H94.8855C94.8855 61.8295 94.8116 61.5 94.6639 61.2102C94.519 60.9205 94.3116 60.6918 94.0417 60.5241C93.7747 60.3565 93.4593 60.2727 93.0957 60.2727C92.6951 60.2727 92.3485 60.3722 92.0559 60.571C91.7662 60.767 91.5431 61.0227 91.3869 61.3381C91.2306 61.6534 91.1525 61.9915 91.1525 62.3523V62.9318C91.1525 63.4261 91.2377 63.8452 91.4082 64.1889C91.5815 64.5298 91.8216 64.7898 92.1284 64.9688C92.4352 65.1449 92.7917 65.233 93.198 65.233C93.4622 65.233 93.7008 65.196 93.9139 65.1222C94.1298 65.0455 94.3159 64.9318 94.4721 64.7812C94.6284 64.6278 94.7491 64.4375 94.8343 64.2102L95.8059 64.483C95.7037 64.8125 95.5318 65.1023 95.2903 65.3523C95.0488 65.5994 94.7505 65.7926 94.3954 65.9318C94.0403 66.0682 93.6412 66.1364 93.198 66.1364ZM101.018 64.6364L103.302 59.4545H104.256L101.427 66H100.608L97.8301 59.4545H98.7676L101.018 64.6364ZM98.4437 59.4545V66H97.438V59.4545H98.4437ZM103.591 66V59.4545H104.597V66H103.591Z" fill="#151515"/>
</svg>
