<svg width="520" height="328" viewBox="0 0 520 328" fill="none" xmlns="http://www.w3.org/2000/svg">
<path d="M72.1934 93.7273L76.0002 85.0909H77.5911L72.8752 96H71.5115L66.8809 85.0909H68.4434L72.1934 93.7273ZM67.9036 85.0909V96H66.2275V85.0909H67.9036ZM76.4831 96V85.0909H78.1593V96H76.4831ZM85.6593 96.2273C84.6744 96.2273 83.8103 95.9929 83.0669 95.5241C82.3283 95.0554 81.7507 94.3996 81.334 93.5568C80.9221 92.714 80.7161 91.7292 80.7161 90.6023C80.7161 89.4659 80.9221 88.474 81.334 87.6264C81.7507 86.7789 82.3283 86.1207 83.0669 85.652C83.8103 85.1832 84.6744 84.9489 85.6593 84.9489C86.6441 84.9489 87.5059 85.1832 88.2445 85.652C88.9879 86.1207 89.5655 86.7789 89.9775 87.6264C90.3941 88.474 90.6025 89.4659 90.6025 90.6023C90.6025 91.7292 90.3941 92.714 89.9775 93.5568C89.5655 94.3996 88.9879 95.0554 88.2445 95.5241C87.5059 95.9929 86.6441 96.2273 85.6593 96.2273ZM85.6593 94.7216C86.4074 94.7216 87.0229 94.5298 87.5059 94.1463C87.9888 93.7628 88.3463 93.2585 88.5783 92.6335C88.8103 92.0085 88.9263 91.3314 88.9263 90.6023C88.9263 89.8731 88.8103 89.1937 88.5783 88.5639C88.3463 87.9342 87.9888 87.4252 87.5059 87.0369C87.0229 86.6487 86.4074 86.4545 85.6593 86.4545C84.9112 86.4545 84.2956 86.6487 83.8127 87.0369C83.3297 87.4252 82.9722 87.9342 82.7402 88.5639C82.5082 89.1937 82.3922 89.8731 82.3922 90.6023C82.3922 91.3314 82.5082 92.0085 82.7402 92.6335C82.9722 93.2585 83.3297 93.7628 83.8127 94.1463C84.2956 94.5298 84.9112 94.7216 85.6593 94.7216ZM100.462 89.7784V91.3409H94.4395V89.7784H100.462ZM94.8372 85.0909V96H93.161V85.0909H94.8372ZM101.741 85.0909V96H100.064V85.0909H101.741ZM109.233 96.2273C108.249 96.2273 107.385 95.9929 106.641 95.5241C105.903 95.0554 105.325 94.3996 104.908 93.5568C104.496 92.714 104.29 91.7292 104.29 90.6023C104.29 89.4659 104.496 88.474 104.908 87.6264C105.325 86.7789 105.903 86.1207 106.641 85.652C107.385 85.1832 108.249 84.9489 109.233 84.9489C110.218 84.9489 111.08 85.1832 111.819 85.652C112.562 86.1207 113.14 86.7789 113.552 87.6264C113.968 88.474 114.177 89.4659 114.177 90.6023C114.177 91.7292 113.968 92.714 113.552 93.5568C113.14 94.3996 112.562 95.0554 111.819 95.5241C111.08 95.9929 110.218 96.2273 109.233 96.2273ZM109.233 94.7216C109.982 94.7216 110.597 94.5298 111.08 94.1463C111.563 93.7628 111.921 93.2585 112.153 92.6335C112.385 92.0085 112.501 91.3314 112.501 90.6023C112.501 89.8731 112.385 89.1937 112.153 88.5639C111.921 87.9342 111.563 87.4252 111.08 87.0369C110.597 86.6487 109.982 86.4545 109.233 86.4545C108.485 86.4545 107.87 86.6487 107.387 87.0369C106.904 87.4252 106.546 87.9342 106.314 88.5639C106.082 89.1937 105.966 89.8731 105.966 90.6023C105.966 91.3314 106.082 92.0085 106.314 92.6335C106.546 93.2585 106.904 93.7628 107.387 94.1463C107.87 94.5298 108.485 94.7216 109.233 94.7216ZM116.735 96V85.0909H118.411V89.8352H119.519L123.44 85.0909H125.599L121.195 90.3466L125.656 96H123.497L119.917 91.3977H118.411V96H116.735ZM131.46 96.2273C130.475 96.2273 129.611 95.9929 128.868 95.5241C128.129 95.0554 127.551 94.3996 127.135 93.5568C126.723 92.714 126.517 91.7292 126.517 90.6023C126.517 89.4659 126.723 88.474 127.135 87.6264C127.551 86.7789 128.129 86.1207 128.868 85.652C129.611 85.1832 130.475 84.9489 131.46 84.9489C132.445 84.9489 133.307 85.1832 134.045 85.652C134.789 86.1207 135.366 86.7789 135.778 87.6264C136.195 88.474 136.403 89.4659 136.403 90.6023C136.403 91.7292 136.195 92.714 135.778 93.5568C135.366 94.3996 134.789 95.0554 134.045 95.5241C133.307 95.9929 132.445 96.2273 131.46 96.2273ZM131.46 94.7216C132.208 94.7216 132.824 94.5298 133.307 94.1463C133.79 93.7628 134.147 93.2585 134.379 92.6335C134.611 92.0085 134.727 91.3314 134.727 90.6023C134.727 89.8731 134.611 89.1937 134.379 88.5639C134.147 87.9342 133.79 87.4252 133.307 87.0369C132.824 86.6487 132.208 86.4545 131.46 86.4545C130.712 86.4545 130.096 86.6487 129.613 87.0369C129.131 87.4252 128.773 87.9342 128.541 88.5639C128.309 89.1937 128.193 89.8731 128.193 90.6023C128.193 91.3314 128.309 92.0085 128.541 92.6335C128.773 93.2585 129.131 93.7628 129.613 94.1463C130.096 94.5298 130.712 94.7216 131.46 94.7216ZM137.996 96V94.4375H138.394C138.72 94.4375 138.993 94.3736 139.21 94.2457C139.428 94.1132 139.603 93.8835 139.736 93.5568C139.873 93.2254 139.977 92.7661 140.048 92.179C140.124 91.5871 140.179 90.8343 140.212 89.9205L140.411 85.0909H147.683V96H146.007V86.6534H142.002L141.831 90.5455C141.793 91.4403 141.713 92.2287 141.59 92.9105C141.471 93.5876 141.289 94.1558 141.043 94.6151C140.801 95.0743 140.479 95.42 140.077 95.652C139.674 95.884 139.17 96 138.564 96H137.996ZM155.333 96.2273C154.281 96.2273 153.375 95.9953 152.612 95.5312C151.855 95.0625 151.27 94.4091 150.858 93.571C150.451 92.7282 150.247 91.7481 150.247 90.6307C150.247 89.5133 150.451 88.5284 150.858 87.6761C151.27 86.8191 151.843 86.1515 152.577 85.6733C153.316 85.1903 154.177 84.9489 155.162 84.9489C155.73 84.9489 156.291 85.0436 156.845 85.233C157.399 85.4223 157.904 85.7301 158.358 86.1562C158.813 86.5777 159.175 87.1364 159.445 87.8324C159.715 88.5284 159.85 89.3854 159.85 90.4034V91.1136H151.441V89.6648H158.145C158.145 89.0492 158.022 88.5 157.776 88.017C157.534 87.5341 157.189 87.1529 156.739 86.8736C156.294 86.5942 155.768 86.4545 155.162 86.4545C154.494 86.4545 153.917 86.6203 153.429 86.9517C152.946 87.2784 152.575 87.7045 152.314 88.2301C152.054 88.7557 151.923 89.3191 151.923 89.9205V90.8864C151.923 91.7102 152.066 92.4086 152.35 92.9815C152.638 93.5497 153.039 93.983 153.55 94.2812C154.061 94.5748 154.655 94.7216 155.333 94.7216C155.773 94.7216 156.171 94.66 156.526 94.5369C156.886 94.4091 157.196 94.2197 157.456 93.9688C157.717 93.7131 157.918 93.3958 158.06 93.017L159.679 93.4716C159.509 94.0208 159.222 94.5038 158.82 94.9205C158.417 95.3324 157.92 95.6544 157.328 95.8864C156.736 96.1136 156.071 96.2273 155.333 96.2273ZM166.831 96.2273C165.808 96.2273 164.928 95.9858 164.189 95.5028C163.45 95.0199 162.882 94.3546 162.485 93.5071C162.087 92.6596 161.888 91.6913 161.888 90.6023C161.888 89.4943 162.092 88.5166 162.499 87.669C162.911 86.8168 163.484 86.1515 164.218 85.6733C164.956 85.1903 165.818 84.9489 166.803 84.9489C167.57 84.9489 168.261 85.0909 168.877 85.375C169.492 85.6591 169.996 86.0568 170.389 86.5682C170.782 87.0795 171.026 87.6761 171.121 88.358H169.445C169.317 87.8608 169.033 87.4205 168.593 87.0369C168.157 86.6487 167.57 86.4545 166.831 86.4545C166.178 86.4545 165.605 86.625 165.112 86.9659C164.625 87.3021 164.244 87.7779 163.969 88.3935C163.699 89.0043 163.564 89.7216 163.564 90.5455C163.564 91.3883 163.697 92.1222 163.962 92.7472C164.232 93.3722 164.61 93.8575 165.098 94.2031C165.591 94.5488 166.168 94.7216 166.831 94.7216C167.267 94.7216 167.662 94.6458 168.017 94.4943C168.372 94.3428 168.673 94.125 168.919 93.8409C169.165 93.5568 169.341 93.2159 169.445 92.8182H171.121C171.026 93.4621 170.792 94.0421 170.418 94.5582C170.048 95.0696 169.558 95.4768 168.948 95.7798C168.342 96.0781 167.636 96.2273 166.831 96.2273ZM176.781 96.2557C176.09 96.2557 175.463 96.1255 174.899 95.8651C174.336 95.5999 173.888 95.2188 173.557 94.7216C173.226 94.2197 173.06 93.6136 173.06 92.9034C173.06 92.2784 173.183 91.7718 173.429 91.3835C173.675 90.9905 174.004 90.6828 174.416 90.4602C174.828 90.2377 175.283 90.072 175.78 89.9631C176.282 89.8494 176.786 89.7595 177.293 89.6932C177.956 89.608 178.493 89.544 178.905 89.5014C179.322 89.4541 179.625 89.3759 179.814 89.267C180.008 89.1581 180.105 88.9687 180.105 88.6989V88.642C180.105 87.9413 179.914 87.3968 179.53 87.0085C179.151 86.6203 178.576 86.4261 177.804 86.4261C177.004 86.4261 176.377 86.6013 175.922 86.9517C175.468 87.3021 175.148 87.6761 174.963 88.0739L173.372 87.5057C173.656 86.8428 174.035 86.3267 174.509 85.9574C174.987 85.5833 175.508 85.3229 176.071 85.1761C176.639 85.0246 177.198 84.9489 177.747 84.9489C178.098 84.9489 178.5 84.9915 178.955 85.0767C179.414 85.1572 179.857 85.3253 180.283 85.581C180.714 85.8366 181.071 86.2225 181.355 86.7386C181.639 87.2547 181.781 87.946 181.781 88.8125V96H180.105V94.5227H180.02C179.906 94.7595 179.717 95.0128 179.452 95.2827C179.187 95.5526 178.834 95.7822 178.394 95.9716C177.953 96.161 177.416 96.2557 176.781 96.2557ZM177.037 94.75C177.7 94.75 178.259 94.6198 178.713 94.3594C179.173 94.099 179.518 93.7628 179.75 93.3509C179.987 92.9389 180.105 92.5057 180.105 92.0511V90.517C180.034 90.6023 179.878 90.6804 179.637 90.7514C179.4 90.8177 179.125 90.8769 178.813 90.929C178.505 90.9763 178.204 91.0189 177.911 91.0568C177.622 91.09 177.387 91.1184 177.208 91.142C176.772 91.1989 176.365 91.2912 175.986 91.419C175.612 91.5421 175.309 91.7292 175.077 91.9801C174.85 92.2263 174.736 92.5625 174.736 92.9886C174.736 93.571 174.951 94.0114 175.382 94.3097C175.818 94.6032 176.369 94.75 177.037 94.75ZM41.8018 122.227C40.817 122.227 39.9529 121.993 39.2095 121.524C38.4709 121.055 37.8932 120.4 37.4766 119.557C37.0646 118.714 36.8587 117.729 36.8587 116.602C36.8587 115.466 37.0646 114.474 37.4766 113.626C37.8932 112.779 38.4709 112.121 39.2095 111.652C39.9529 111.183 40.817 110.949 41.8018 110.949C42.7867 110.949 43.6484 111.183 44.3871 111.652C45.1304 112.121 45.7081 112.779 46.12 113.626C46.5367 114.474 46.745 115.466 46.745 116.602C46.745 117.729 46.5367 118.714 46.12 119.557C45.7081 120.4 45.1304 121.055 44.3871 121.524C43.6484 121.993 42.7867 122.227 41.8018 122.227ZM41.8018 120.722C42.55 120.722 43.1655 120.53 43.6484 120.146C44.1314 119.763 44.4889 119.259 44.7209 118.634C44.9529 118.009 45.0689 117.331 45.0689 116.602C45.0689 115.873 44.9529 115.194 44.7209 114.564C44.4889 113.934 44.1314 113.425 43.6484 113.037C43.1655 112.649 42.55 112.455 41.8018 112.455C41.0537 112.455 40.4382 112.649 39.9553 113.037C39.4723 113.425 39.1148 113.934 38.8828 114.564C38.6508 115.194 38.5348 115.873 38.5348 116.602C38.5348 117.331 38.6508 118.009 38.8828 118.634C39.1148 119.259 39.4723 119.763 39.9553 120.146C40.4382 120.53 41.0537 120.722 41.8018 120.722ZM47.8778 112.653V111.091H56.7415V112.653H53.1619V122H51.4858V112.653H47.8778ZM59.1864 126.091V111.091H60.8058V112.824H61.0046C61.1277 112.634 61.2982 112.393 61.516 112.099C61.7385 111.801 62.0558 111.536 62.4677 111.304C62.8844 111.067 63.4478 110.949 64.158 110.949C65.0766 110.949 65.8862 111.179 66.587 111.638C67.2878 112.097 67.8346 112.748 68.2276 113.591C68.6206 114.434 68.8171 115.428 68.8171 116.574C68.8171 117.729 68.6206 118.731 68.2276 119.578C67.8346 120.421 67.2901 121.074 66.5941 121.538C65.8981 121.998 65.0955 122.227 64.1864 122.227C63.4857 122.227 62.9246 122.111 62.5032 121.879C62.0818 121.643 61.7575 121.375 61.5302 121.077C61.3029 120.774 61.1277 120.523 61.0046 120.324H60.8626V126.091H59.1864ZM60.8342 116.545C60.8342 117.369 60.9549 118.096 61.1964 118.726C61.4379 119.351 61.7906 119.841 62.2546 120.196C62.7186 120.546 63.2868 120.722 63.9592 120.722C64.6599 120.722 65.2447 120.537 65.7134 120.168C66.1869 119.794 66.542 119.292 66.7788 118.662C67.0202 118.027 67.141 117.322 67.141 116.545C67.141 115.778 67.0226 115.087 66.7859 114.472C66.5539 113.851 66.2011 113.361 65.7276 113.001C65.2589 112.637 64.6694 112.455 63.9592 112.455C63.2773 112.455 62.7044 112.627 62.2404 112.973C61.7764 113.314 61.426 113.792 61.1893 114.408C60.9525 115.018 60.8342 115.731 60.8342 116.545ZM75.9478 122.227C74.8967 122.227 73.9899 121.995 73.2276 121.531C72.4701 121.062 71.8853 120.409 71.4734 119.571C71.0662 118.728 70.8626 117.748 70.8626 116.631C70.8626 115.513 71.0662 114.528 71.4734 113.676C71.8853 112.819 72.4582 112.152 73.1921 111.673C73.9308 111.19 74.7925 110.949 75.7773 110.949C76.3455 110.949 76.9066 111.044 77.4606 111.233C78.0146 111.422 78.5188 111.73 78.9734 112.156C79.4279 112.578 79.7901 113.136 80.06 113.832C80.3299 114.528 80.4648 115.385 80.4648 116.403V117.114H72.0558V115.665H78.7603C78.7603 115.049 78.6372 114.5 78.391 114.017C78.1495 113.534 77.8039 113.153 77.354 112.874C76.909 112.594 76.3834 112.455 75.7773 112.455C75.1097 112.455 74.5321 112.62 74.0444 112.952C73.5614 113.278 73.1897 113.705 72.9293 114.23C72.6689 114.756 72.5387 115.319 72.5387 115.92V116.886C72.5387 117.71 72.6808 118.409 72.9648 118.982C73.2537 119.55 73.6538 119.983 74.1651 120.281C74.6765 120.575 75.2707 120.722 75.9478 120.722C76.3881 120.722 76.7859 120.66 77.141 120.537C77.5008 120.409 77.811 120.22 78.0714 119.969C78.3318 119.713 78.533 119.396 78.6751 119.017L80.2944 119.472C80.1239 120.021 79.8375 120.504 79.435 120.92C79.0326 121.332 78.5354 121.654 77.9435 121.886C77.3517 122.114 76.6864 122.227 75.9478 122.227ZM88.9805 119.727L92.7873 111.091H94.3782L89.6623 122H88.2987L83.668 111.091H85.2305L88.9805 119.727ZM84.6907 111.091V122H83.0146V111.091H84.6907ZM93.2702 122V111.091H94.9464V122H93.2702ZM102.446 122.227C101.462 122.227 100.597 121.993 99.854 121.524C99.1154 121.055 98.5378 120.4 98.1211 119.557C97.7092 118.714 97.5032 117.729 97.5032 116.602C97.5032 115.466 97.7092 114.474 98.1211 113.626C98.5378 112.779 99.1154 112.121 99.854 111.652C100.597 111.183 101.462 110.949 102.446 110.949C103.431 110.949 104.293 111.183 105.032 111.652C105.775 112.121 106.353 112.779 106.765 113.626C107.181 114.474 107.39 115.466 107.39 116.602C107.39 117.729 107.181 118.714 106.765 119.557C106.353 120.4 105.775 121.055 105.032 121.524C104.293 121.993 103.431 122.227 102.446 122.227ZM102.446 120.722C103.194 120.722 103.81 120.53 104.293 120.146C104.776 119.763 105.133 119.259 105.365 118.634C105.597 118.009 105.713 117.331 105.713 116.602C105.713 115.873 105.597 115.194 105.365 114.564C105.133 113.934 104.776 113.425 104.293 113.037C103.81 112.649 103.194 112.455 102.446 112.455C101.698 112.455 101.083 112.649 100.6 113.037C100.117 113.425 99.7594 113.934 99.5273 114.564C99.2953 115.194 99.1793 115.873 99.1793 116.602C99.1793 117.331 99.2953 118.009 99.5273 118.634C99.7594 119.259 100.117 119.763 100.6 120.146C101.083 120.53 101.698 120.722 102.446 120.722ZM117.249 115.778V117.341H111.227V115.778H117.249ZM111.624 111.091V122H109.948V111.091H111.624ZM118.528 111.091V122H116.852V111.091H118.528ZM120.104 112.653V111.091H128.968V112.653H125.388V122H123.712V112.653H120.104ZM133.089 119.528L138.345 111.091H140.277V122H138.6V113.562L133.373 122H131.413V111.091H133.089V119.528ZM143.347 126.091V111.091H144.966V112.824H145.165C145.288 112.634 145.458 112.393 145.676 112.099C145.899 111.801 146.216 111.536 146.628 111.304C147.045 111.067 147.608 110.949 148.318 110.949C149.237 110.949 150.046 111.179 150.747 111.638C151.448 112.097 151.995 112.748 152.388 113.591C152.781 114.434 152.977 115.428 152.977 116.574C152.977 117.729 152.781 118.731 152.388 119.578C151.995 120.421 151.45 121.074 150.754 121.538C150.058 121.998 149.256 122.227 148.347 122.227C147.646 122.227 147.085 122.111 146.663 121.879C146.242 121.643 145.918 121.375 145.69 121.077C145.463 120.774 145.288 120.523 145.165 120.324H145.023V126.091H143.347ZM144.994 116.545C144.994 117.369 145.115 118.096 145.357 118.726C145.598 119.351 145.951 119.841 146.415 120.196C146.879 120.546 147.447 120.722 148.119 120.722C148.82 120.722 149.405 120.537 149.874 120.168C150.347 119.794 150.702 119.292 150.939 118.662C151.18 118.027 151.301 117.322 151.301 116.545C151.301 115.778 151.183 115.087 150.946 114.472C150.714 113.851 150.361 113.361 149.888 113.001C149.419 112.637 148.83 112.455 148.119 112.455C147.438 112.455 146.865 112.627 146.401 112.973C145.937 113.314 145.586 113.792 145.349 114.408C145.113 115.018 144.994 115.731 144.994 116.545ZM159.966 122.227C158.981 122.227 158.117 121.993 157.374 121.524C156.635 121.055 156.057 120.4 155.641 119.557C155.229 118.714 155.023 117.729 155.023 116.602C155.023 115.466 155.229 114.474 155.641 113.626C156.057 112.779 156.635 112.121 157.374 111.652C158.117 111.183 158.981 110.949 159.966 110.949C160.951 110.949 161.813 111.183 162.551 111.652C163.295 112.121 163.872 112.779 164.284 113.626C164.701 114.474 164.909 115.466 164.909 116.602C164.909 117.729 164.701 118.714 164.284 119.557C163.872 120.4 163.295 121.055 162.551 121.524C161.813 121.993 160.951 122.227 159.966 122.227ZM159.966 120.722C160.714 120.722 161.33 120.53 161.812 120.146C162.295 119.763 162.653 119.259 162.885 118.634C163.117 118.009 163.233 117.331 163.233 116.602C163.233 115.873 163.117 115.194 162.885 114.564C162.653 113.934 162.295 113.425 161.812 113.037C161.33 112.649 160.714 112.455 159.966 112.455C159.218 112.455 158.602 112.649 158.119 113.037C157.636 113.425 157.279 113.934 157.047 114.564C156.815 115.194 156.699 115.873 156.699 116.602C156.699 117.331 156.815 118.009 157.047 118.634C157.279 119.259 157.636 119.763 158.119 120.146C158.602 120.53 159.218 120.722 159.966 120.722ZM167.468 122V111.091H171.928C173.102 111.091 174.035 111.356 174.726 111.886C175.417 112.417 175.763 113.117 175.763 113.989C175.763 114.652 175.567 115.165 175.174 115.53C174.781 115.89 174.276 116.134 173.661 116.261C174.063 116.318 174.454 116.46 174.833 116.688C175.216 116.915 175.533 117.227 175.784 117.625C176.035 118.018 176.161 118.501 176.161 119.074C176.161 119.633 176.019 120.132 175.735 120.572C175.451 121.013 175.043 121.361 174.513 121.616C173.983 121.872 173.348 122 172.61 122H167.468ZM169.059 120.466H172.61C173.187 120.466 173.64 120.329 173.966 120.054C174.293 119.779 174.456 119.405 174.456 118.932C174.456 118.368 174.293 117.926 173.966 117.604C173.64 117.277 173.187 117.114 172.61 117.114H169.059V120.466ZM169.059 115.665H171.928C172.378 115.665 172.764 115.603 173.086 115.48C173.408 115.352 173.654 115.172 173.824 114.94C173.999 114.704 174.087 114.424 174.087 114.102C174.087 113.643 173.895 113.283 173.512 113.023C173.128 112.758 172.6 112.625 171.928 112.625H169.059V115.665ZM181.908 122.256C181.217 122.256 180.59 122.125 180.026 121.865C179.463 121.6 179.015 121.219 178.684 120.722C178.353 120.22 178.187 119.614 178.187 118.903C178.187 118.278 178.31 117.772 178.556 117.384C178.802 116.991 179.131 116.683 179.543 116.46C179.955 116.238 180.41 116.072 180.907 115.963C181.409 115.849 181.913 115.759 182.42 115.693C183.083 115.608 183.62 115.544 184.032 115.501C184.449 115.454 184.752 115.376 184.941 115.267C185.135 115.158 185.232 114.969 185.232 114.699V114.642C185.232 113.941 185.04 113.397 184.657 113.009C184.278 112.62 183.703 112.426 182.931 112.426C182.131 112.426 181.504 112.601 181.049 112.952C180.594 113.302 180.275 113.676 180.09 114.074L178.499 113.506C178.783 112.843 179.162 112.327 179.636 111.957C180.114 111.583 180.635 111.323 181.198 111.176C181.766 111.025 182.325 110.949 182.874 110.949C183.225 110.949 183.627 110.991 184.082 111.077C184.541 111.157 184.984 111.325 185.41 111.581C185.841 111.837 186.198 112.223 186.482 112.739C186.766 113.255 186.908 113.946 186.908 114.812V122H185.232V120.523H185.147C185.033 120.759 184.844 121.013 184.579 121.283C184.314 121.553 183.961 121.782 183.521 121.972C183.08 122.161 182.543 122.256 181.908 122.256ZM182.164 120.75C182.827 120.75 183.386 120.62 183.84 120.359C184.299 120.099 184.645 119.763 184.877 119.351C185.114 118.939 185.232 118.506 185.232 118.051V116.517C185.161 116.602 185.005 116.68 184.763 116.751C184.527 116.818 184.252 116.877 183.94 116.929C183.632 116.976 183.331 117.019 183.038 117.057C182.749 117.09 182.514 117.118 182.335 117.142C181.899 117.199 181.492 117.291 181.113 117.419C180.739 117.542 180.436 117.729 180.204 117.98C179.977 118.226 179.863 118.562 179.863 118.989C179.863 119.571 180.078 120.011 180.509 120.31C180.945 120.603 181.496 120.75 182.164 120.75ZM189.002 122V120.438H189.4C189.726 120.438 189.998 120.374 190.216 120.246C190.434 120.113 190.609 119.884 190.742 119.557C190.879 119.225 190.983 118.766 191.054 118.179C191.13 117.587 191.185 116.834 191.218 115.92L191.417 111.091H198.689V122H197.013V112.653H193.007L192.837 116.545C192.799 117.44 192.719 118.229 192.596 118.911C192.477 119.588 192.295 120.156 192.049 120.615C191.807 121.074 191.485 121.42 191.083 121.652C190.68 121.884 190.176 122 189.57 122H189.002ZM203.441 119.528L208.696 111.091H210.628V122H208.952V113.562L203.725 122H201.765V111.091H203.441V119.528Z" fill="#151515"/>
<path d="M40.6362 269.091V270.653H35.5794V280H33.9032V269.091H40.6362ZM46.9483 280.227C45.9635 280.227 45.0994 279.993 44.356 279.524C43.6174 279.055 43.0397 278.4 42.623 277.557C42.2111 276.714 42.0051 275.729 42.0051 274.602C42.0051 273.466 42.2111 272.474 42.623 271.626C43.0397 270.779 43.6174 270.121 44.356 269.652C45.0994 269.183 45.9635 268.949 46.9483 268.949C47.9332 268.949 48.7949 269.183 49.5336 269.652C50.2769 270.121 50.8546 270.779 51.2665 271.626C51.6832 272.474 51.8915 273.466 51.8915 274.602C51.8915 275.729 51.6832 276.714 51.2665 277.557C50.8546 278.4 50.2769 279.055 49.5336 279.524C48.7949 279.993 47.9332 280.227 46.9483 280.227ZM46.9483 278.722C47.6964 278.722 48.312 278.53 48.7949 278.146C49.2779 277.763 49.6354 277.259 49.8674 276.634C50.0994 276.009 50.2154 275.331 50.2154 274.602C50.2154 273.873 50.0994 273.194 49.8674 272.564C49.6354 271.934 49.2779 271.425 48.7949 271.037C48.312 270.649 47.6964 270.455 46.9483 270.455C46.2002 270.455 45.5847 270.649 45.1017 271.037C44.6188 271.425 44.2613 271.934 44.0293 272.564C43.7973 273.194 43.6813 273.873 43.6813 274.602C43.6813 275.331 43.7973 276.009 44.0293 276.634C44.2613 277.259 44.6188 277.763 45.1017 278.146C45.5847 278.53 46.2002 278.722 46.9483 278.722ZM53.2853 283.125V278.438H54.1944C54.417 278.205 54.6087 277.955 54.7697 277.685C54.9307 277.415 55.0704 277.095 55.1887 276.726C55.3118 276.352 55.416 275.897 55.5012 275.362C55.5865 274.822 55.6622 274.171 55.7285 273.409L56.0978 269.091H63.0297V278.438H64.7058V283.125H63.0297V280H54.9615V283.125H53.2853ZM56.0978 278.438H61.3535V270.653H57.6603L57.3762 273.409C57.2579 274.55 57.1111 275.547 56.9359 276.399C56.7607 277.251 56.4814 277.931 56.0978 278.438ZM70.1408 280.256C69.4495 280.256 68.8221 280.125 68.2587 279.865C67.6953 279.6 67.2478 279.219 66.9164 278.722C66.5849 278.22 66.4192 277.614 66.4192 276.903C66.4192 276.278 66.5423 275.772 66.7885 275.384C67.0347 274.991 67.3638 274.683 67.7757 274.46C68.1877 274.238 68.6422 274.072 69.1394 273.963C69.6413 273.849 70.1455 273.759 70.6522 273.693C71.315 273.608 71.8525 273.544 72.2644 273.501C72.681 273.454 72.9841 273.376 73.1735 273.267C73.3676 273.158 73.4647 272.969 73.4647 272.699V272.642C73.4647 271.941 73.2729 271.397 72.8894 271.009C72.5106 270.62 71.9353 270.426 71.1635 270.426C70.3633 270.426 69.736 270.601 69.2814 270.952C68.8269 271.302 68.5073 271.676 68.3226 272.074L66.7317 271.506C67.0158 270.843 67.3946 270.327 67.8681 269.957C68.3463 269.583 68.8671 269.323 69.4306 269.176C69.9988 269.025 70.5575 268.949 71.1067 268.949C71.4571 268.949 71.8596 268.991 72.3141 269.077C72.7734 269.157 73.2161 269.325 73.6422 269.581C74.0731 269.837 74.4306 270.223 74.7147 270.739C74.9988 271.255 75.1408 271.946 75.1408 272.812V280H73.4647V278.523H73.3794C73.2658 278.759 73.0764 279.013 72.8113 279.283C72.5461 279.553 72.1934 279.782 71.753 279.972C71.3127 280.161 70.7753 280.256 70.1408 280.256ZM70.3965 278.75C71.0594 278.75 71.6181 278.62 72.0726 278.359C72.5319 278.099 72.8775 277.763 73.1096 277.351C73.3463 276.939 73.4647 276.506 73.4647 276.051V274.517C73.3936 274.602 73.2374 274.68 72.9959 274.751C72.7592 274.818 72.4846 274.877 72.1721 274.929C71.8643 274.976 71.5636 275.019 71.2701 275.057C70.9812 275.09 70.7469 275.118 70.5669 275.142C70.1313 275.199 69.7241 275.291 69.3453 275.419C68.9713 275.542 68.6683 275.729 68.4363 275.98C68.209 276.226 68.0953 276.562 68.0953 276.989C68.0953 277.571 68.3108 278.011 68.7417 278.31C69.1773 278.603 69.7289 278.75 70.3965 278.75ZM83.8251 284.091V269.091H85.4444V270.824H85.6433C85.7664 270.634 85.9368 270.393 86.1547 270.099C86.3772 269.801 86.6944 269.536 87.1064 269.304C87.523 269.067 88.0865 268.949 88.7967 268.949C89.7153 268.949 90.5249 269.179 91.2257 269.638C91.9264 270.097 92.4733 270.748 92.8663 271.591C93.2593 272.434 93.4558 273.428 93.4558 274.574C93.4558 275.729 93.2593 276.731 92.8663 277.578C92.4733 278.421 91.9288 279.074 91.2328 279.538C90.5368 279.998 89.7342 280.227 88.8251 280.227C88.1243 280.227 87.5633 280.111 87.1419 279.879C86.7205 279.643 86.3961 279.375 86.1689 279.077C85.9416 278.774 85.7664 278.523 85.6433 278.324H85.5012V284.091H83.8251ZM85.4728 274.545C85.4728 275.369 85.5936 276.096 85.835 276.726C86.0765 277.351 86.4293 277.841 86.8933 278.196C87.3573 278.546 87.9255 278.722 88.5978 278.722C89.2986 278.722 89.8833 278.537 90.3521 278.168C90.8256 277.794 91.1807 277.292 91.4174 276.662C91.6589 276.027 91.7797 275.322 91.7797 274.545C91.7797 273.778 91.6613 273.087 91.4245 272.472C91.1925 271.851 90.8398 271.361 90.3663 271.001C89.8975 270.637 89.3081 270.455 88.5978 270.455C87.916 270.455 87.3431 270.627 86.8791 270.973C86.4151 271.314 86.0647 271.792 85.8279 272.408C85.5912 273.018 85.4728 273.731 85.4728 274.545ZM100.586 280.227C99.5353 280.227 98.6286 279.995 97.8663 279.531C97.1087 279.062 96.524 278.409 96.112 277.571C95.7048 276.728 95.5012 275.748 95.5012 274.631C95.5012 273.513 95.7048 272.528 96.112 271.676C96.524 270.819 97.0969 270.152 97.8308 269.673C98.5694 269.19 99.4312 268.949 100.416 268.949C100.984 268.949 101.545 269.044 102.099 269.233C102.653 269.422 103.157 269.73 103.612 270.156C104.067 270.578 104.429 271.136 104.699 271.832C104.969 272.528 105.104 273.385 105.104 274.403V275.114H96.6944V273.665H103.399C103.399 273.049 103.276 272.5 103.03 272.017C102.788 271.534 102.443 271.153 101.993 270.874C101.548 270.594 101.022 270.455 100.416 270.455C99.7484 270.455 99.1708 270.62 98.6831 270.952C98.2001 271.278 97.8284 271.705 97.568 272.23C97.3076 272.756 97.1774 273.319 97.1774 273.92V274.886C97.1774 275.71 97.3194 276.409 97.6035 276.982C97.8923 277.55 98.2924 277.983 98.8038 278.281C99.3152 278.575 99.9094 278.722 100.586 278.722C101.027 278.722 101.425 278.66 101.78 278.537C102.14 278.409 102.45 278.22 102.71 277.969C102.97 277.713 103.172 277.396 103.314 277.017L104.933 277.472C104.763 278.021 104.476 278.504 104.074 278.92C103.671 279.332 103.174 279.654 102.582 279.886C101.99 280.114 101.325 280.227 100.586 280.227ZM113.619 277.727L117.426 269.091H119.017L114.301 280H112.937L108.307 269.091H109.869L113.619 277.727ZM109.329 269.091V280H107.653V269.091H109.329ZM117.909 280V269.091H119.585V280H117.909ZM127.085 280.227C126.1 280.227 125.236 279.993 124.493 279.524C123.754 279.055 123.176 278.4 122.76 277.557C122.348 276.714 122.142 275.729 122.142 274.602C122.142 273.466 122.348 272.474 122.76 271.626C123.176 270.779 123.754 270.121 124.493 269.652C125.236 269.183 126.1 268.949 127.085 268.949C128.07 268.949 128.932 269.183 129.67 269.652C130.414 270.121 130.991 270.779 131.403 271.626C131.82 272.474 132.028 273.466 132.028 274.602C132.028 275.729 131.82 276.714 131.403 277.557C130.991 278.4 130.414 279.055 129.67 279.524C128.932 279.993 128.07 280.227 127.085 280.227ZM127.085 278.722C127.833 278.722 128.449 278.53 128.932 278.146C129.415 277.763 129.772 277.259 130.004 276.634C130.236 276.009 130.352 275.331 130.352 274.602C130.352 273.873 130.236 273.194 130.004 272.564C129.772 271.934 129.415 271.425 128.932 271.037C128.449 270.649 127.833 270.455 127.085 270.455C126.337 270.455 125.721 270.649 125.238 271.037C124.756 271.425 124.398 271.934 124.166 272.564C123.934 273.194 123.818 273.873 123.818 274.602C123.818 275.331 123.934 276.009 124.166 276.634C124.398 277.259 124.756 277.763 125.238 278.146C125.721 278.53 126.337 278.722 127.085 278.722ZM141.888 273.778V275.341H135.865V273.778H141.888ZM136.263 269.091V280H134.587V269.091H136.263ZM143.166 269.091V280H141.49V269.091H143.166ZM144.743 270.653V269.091H153.607V270.653H150.027V280H148.351V270.653H144.743ZM157.728 277.528L162.983 269.091H164.915V280H163.239V271.562L158.012 280H156.052V269.091H157.728V277.528ZM167.985 284.091V269.091H169.605V270.824H169.803C169.927 270.634 170.097 270.393 170.315 270.099C170.537 269.801 170.855 269.536 171.267 269.304C171.683 269.067 172.247 268.949 172.957 268.949C173.875 268.949 174.685 269.179 175.386 269.638C176.087 270.097 176.633 270.748 177.026 271.591C177.419 272.434 177.616 273.428 177.616 274.574C177.616 275.729 177.419 276.731 177.026 277.578C176.633 278.421 176.089 279.074 175.393 279.538C174.697 279.998 173.894 280.227 172.985 280.227C172.285 280.227 171.723 280.111 171.302 279.879C170.881 279.643 170.556 279.375 170.329 279.077C170.102 278.774 169.927 278.523 169.803 278.324H169.661V284.091H167.985ZM169.633 274.545C169.633 275.369 169.754 276.096 169.995 276.726C170.237 277.351 170.589 277.841 171.053 278.196C171.517 278.546 172.086 278.722 172.758 278.722C173.459 278.722 174.044 278.537 174.512 278.168C174.986 277.794 175.341 277.292 175.578 276.662C175.819 276.027 175.94 275.322 175.94 274.545C175.94 273.778 175.821 273.087 175.585 272.472C175.353 271.851 175 271.361 174.526 271.001C174.058 270.637 173.468 270.455 172.758 270.455C172.076 270.455 171.503 270.627 171.039 270.973C170.575 271.314 170.225 271.792 169.988 272.408C169.751 273.018 169.633 273.731 169.633 274.545ZM180.862 284.091C180.578 284.091 180.324 284.067 180.102 284.02C179.879 283.977 179.725 283.935 179.64 283.892L180.066 282.415C180.473 282.519 180.833 282.557 181.146 282.528C181.458 282.5 181.735 282.36 181.977 282.109C182.223 281.863 182.448 281.463 182.651 280.909L182.964 280.057L178.93 269.091H180.748L183.759 277.784H183.873L186.884 269.091H188.703L184.072 281.591C183.864 282.154 183.606 282.621 183.298 282.99C182.99 283.364 182.633 283.641 182.225 283.821C181.823 284.001 181.368 284.091 180.862 284.091ZM195.098 280.227C194.047 280.227 193.14 279.995 192.378 279.531C191.62 279.062 191.036 278.409 190.624 277.571C190.217 276.728 190.013 275.748 190.013 274.631C190.013 273.513 190.217 272.528 190.624 271.676C191.036 270.819 191.609 270.152 192.343 269.673C193.081 269.19 193.943 268.949 194.928 268.949C195.496 268.949 196.057 269.044 196.611 269.233C197.165 269.422 197.669 269.73 198.124 270.156C198.578 270.578 198.941 271.136 199.21 271.832C199.48 272.528 199.615 273.385 199.615 274.403V275.114H191.206V273.665H197.911C197.911 273.049 197.788 272.5 197.541 272.017C197.3 271.534 196.954 271.153 196.504 270.874C196.059 270.594 195.534 270.455 194.928 270.455C194.26 270.455 193.682 270.62 193.195 270.952C192.712 271.278 192.34 271.705 192.08 272.23C191.819 272.756 191.689 273.319 191.689 273.92V274.886C191.689 275.71 191.831 276.409 192.115 276.982C192.404 277.55 192.804 277.983 193.316 278.281C193.827 278.575 194.421 278.722 195.098 278.722C195.539 278.722 195.936 278.66 196.291 278.537C196.651 278.409 196.961 278.22 197.222 277.969C197.482 277.713 197.683 277.396 197.825 277.017L199.445 277.472C199.274 278.021 198.988 278.504 198.585 278.92C198.183 279.332 197.686 279.654 197.094 279.886C196.502 280.114 195.837 280.227 195.098 280.227ZM208.131 277.727L211.938 269.091H213.529L208.813 280H207.449L202.818 269.091H204.381L208.131 277.727ZM203.841 269.091V280H202.165V269.091H203.841ZM212.421 280V269.091H214.097V280H212.421ZM6.21413 303.528L11.4698 295.091H13.4016V306H11.7255V297.562L6.49822 306H4.538V295.091H6.21413V303.528ZM28.0625 303.727L31.8693 295.091H33.4602L28.7443 306H27.3807L22.75 295.091H24.3125L28.0625 303.727ZM23.7727 295.091V306H22.0966V295.091H23.7727ZM32.3523 306V295.091H34.0284V306H32.3523ZM41.5284 306.227C40.5436 306.227 39.6795 305.993 38.9361 305.524C38.1974 305.055 37.6198 304.4 37.2031 303.557C36.7912 302.714 36.5852 301.729 36.5852 300.602C36.5852 299.466 36.7912 298.474 37.2031 297.626C37.6198 296.779 38.1974 296.121 38.9361 295.652C39.6795 295.183 40.5436 294.949 41.5284 294.949C42.5133 294.949 43.375 295.183 44.1136 295.652C44.857 296.121 45.4347 296.779 45.8466 297.626C46.2633 298.474 46.4716 299.466 46.4716 300.602C46.4716 301.729 46.2633 302.714 45.8466 303.557C45.4347 304.4 44.857 305.055 44.1136 305.524C43.375 305.993 42.5133 306.227 41.5284 306.227ZM41.5284 304.722C42.2765 304.722 42.892 304.53 43.375 304.146C43.858 303.763 44.2154 303.259 44.4474 302.634C44.6795 302.009 44.7955 301.331 44.7955 300.602C44.7955 299.873 44.6795 299.194 44.4474 298.564C44.2154 297.934 43.858 297.425 43.375 297.037C42.892 296.649 42.2765 296.455 41.5284 296.455C40.7803 296.455 40.1648 296.649 39.6818 297.037C39.1989 297.425 38.8414 297.934 38.6094 298.564C38.3774 299.194 38.2614 299.873 38.2614 300.602C38.2614 301.331 38.3774 302.009 38.6094 302.634C38.8414 303.259 39.1989 303.763 39.6818 304.146C40.1648 304.53 40.7803 304.722 41.5284 304.722ZM47.8654 309.125V304.438H48.7745C48.997 304.205 49.1888 303.955 49.3498 303.685C49.5108 303.415 49.6504 303.095 49.7688 302.726C49.8919 302.352 49.9961 301.897 50.0813 301.362C50.1665 300.822 50.2423 300.171 50.3086 299.409L50.6779 295.091H57.6097V304.438H59.2859V309.125H57.6097V306H49.5415V309.125H47.8654ZM50.6779 304.438H55.9336V296.653H52.2404L51.9563 299.409C51.8379 300.55 51.6912 301.547 51.516 302.399C51.3408 303.251 51.0614 303.931 50.6779 304.438ZM63.1868 303.528L68.4425 295.091H70.3743V306H68.6982V297.562L63.4709 306H61.5107V295.091H63.1868V303.528ZM77.8761 309.722V291.455H79.5522V309.722H77.8761ZM77.8761 306.227C77.1374 306.227 76.4651 306.095 75.859 305.83C75.253 305.56 74.7321 305.179 74.2965 304.686C73.8609 304.189 73.5247 303.595 73.288 302.903C73.0513 302.212 72.9329 301.445 72.9329 300.602C72.9329 299.75 73.0513 298.978 73.288 298.287C73.5247 297.591 73.8609 296.994 74.2965 296.497C74.7321 296 75.253 295.619 75.859 295.354C76.4651 295.084 77.1374 294.949 77.8761 294.949H78.3874V306.227H77.8761ZM77.8761 304.722H78.1602V296.455H77.8761C77.3174 296.455 76.832 296.568 76.4201 296.795C76.0082 297.018 75.6673 297.323 75.3974 297.712C75.1322 298.095 74.9334 298.536 74.8008 299.033C74.6729 299.53 74.609 300.053 74.609 300.602C74.609 301.331 74.725 302.009 74.957 302.634C75.189 303.259 75.5465 303.763 76.0295 304.146C76.5124 304.53 77.128 304.722 77.8761 304.722ZM79.5522 306.227H79.0408V294.949H79.5522C80.2908 294.949 80.9632 295.084 81.5692 295.354C82.1753 295.619 82.6961 296 83.1317 296.497C83.5674 296.994 83.9035 297.591 84.1403 298.287C84.377 298.978 84.4954 299.75 84.4954 300.602C84.4954 301.445 84.377 302.212 84.1403 302.903C83.9035 303.595 83.5674 304.189 83.1317 304.686C82.6961 305.179 82.1753 305.56 81.5692 305.83C80.9632 306.095 80.2908 306.227 79.5522 306.227ZM79.5522 304.722C80.1156 304.722 80.601 304.613 81.0082 304.395C81.4201 304.172 81.7586 303.869 82.0238 303.486C82.2937 303.098 82.4925 302.657 82.6204 302.165C82.753 301.668 82.8192 301.147 82.8192 300.602C82.8192 299.873 82.7032 299.194 82.4712 298.564C82.2392 297.934 81.8817 297.425 81.3988 297.037C80.9158 296.649 80.3003 296.455 79.5522 296.455H79.2681V304.722H79.5522ZM88.7337 303.528L93.9893 295.091H95.9212V306H94.245V297.562L89.0178 306H87.0575V295.091H88.7337V303.528ZM107.571 295.091V304.438H109.105V309.523H107.429V306H98.9911V295.091H100.667V304.438H105.895V295.091H107.571ZM113.363 303.528L118.618 295.091H120.55V306H118.874V297.562L113.647 306H111.686V295.091H113.363V303.528ZM123.62 310.091V295.091H125.239V296.824H125.438C125.561 296.634 125.732 296.393 125.95 296.099C126.172 295.801 126.489 295.536 126.901 295.304C127.318 295.067 127.881 294.949 128.592 294.949C129.51 294.949 130.32 295.179 131.021 295.638C131.721 296.097 132.268 296.748 132.661 297.591C133.054 298.434 133.251 299.428 133.251 300.574C133.251 301.729 133.054 302.731 132.661 303.578C132.268 304.421 131.724 305.074 131.028 305.538C130.332 305.998 129.529 306.227 128.62 306.227C127.919 306.227 127.358 306.111 126.937 305.879C126.515 305.643 126.191 305.375 125.964 305.077C125.737 304.774 125.561 304.523 125.438 304.324H125.296V310.091H123.62ZM125.268 300.545C125.268 301.369 125.388 302.096 125.63 302.726C125.871 303.351 126.224 303.841 126.688 304.196C127.152 304.546 127.72 304.722 128.393 304.722C129.094 304.722 129.678 304.537 130.147 304.168C130.621 303.794 130.976 303.292 131.212 302.662C131.454 302.027 131.575 301.322 131.575 300.545C131.575 299.778 131.456 299.087 131.219 298.472C130.987 297.851 130.635 297.361 130.161 297.001C129.692 296.637 129.103 296.455 128.393 296.455C127.711 296.455 127.138 296.627 126.674 296.973C126.21 297.314 125.86 297.792 125.623 298.408C125.386 299.018 125.268 299.731 125.268 300.545ZM136.496 310.091C136.212 310.091 135.959 310.067 135.737 310.02C135.514 309.977 135.36 309.935 135.275 309.892L135.701 308.415C136.108 308.519 136.468 308.557 136.781 308.528C137.093 308.5 137.37 308.36 137.612 308.109C137.858 307.863 138.083 307.463 138.286 306.909L138.599 306.057L134.565 295.091H136.383L139.394 303.784H139.508L142.519 295.091H144.337L139.707 307.591C139.498 308.154 139.24 308.621 138.933 308.99C138.625 309.364 138.267 309.641 137.86 309.821C137.458 310.001 137.003 310.091 136.496 310.091ZM150.733 306.227C149.682 306.227 148.775 305.995 148.013 305.531C147.255 305.062 146.67 304.409 146.259 303.571C145.851 302.728 145.648 301.748 145.648 300.631C145.648 299.513 145.851 298.528 146.259 297.676C146.67 296.819 147.243 296.152 147.977 295.673C148.716 295.19 149.578 294.949 150.562 294.949C151.131 294.949 151.692 295.044 152.246 295.233C152.8 295.422 153.304 295.73 153.759 296.156C154.213 296.578 154.575 297.136 154.845 297.832C155.115 298.528 155.25 299.385 155.25 300.403V301.114H146.841V299.665H153.545C153.545 299.049 153.422 298.5 153.176 298.017C152.935 297.534 152.589 297.153 152.139 296.874C151.694 296.594 151.169 296.455 150.562 296.455C149.895 296.455 149.317 296.62 148.83 296.952C148.347 297.278 147.975 297.705 147.714 298.23C147.454 298.756 147.324 299.319 147.324 299.92V300.886C147.324 301.71 147.466 302.409 147.75 302.982C148.039 303.55 148.439 303.983 148.95 304.281C149.462 304.575 150.056 304.722 150.733 304.722C151.173 304.722 151.571 304.66 151.926 304.537C152.286 304.409 152.596 304.22 152.857 303.969C153.117 303.713 153.318 303.396 153.46 303.017L155.08 303.472C154.909 304.021 154.623 304.504 154.22 304.92C153.818 305.332 153.321 305.654 152.729 305.886C152.137 306.114 151.472 306.227 150.733 306.227ZM163.766 303.727L167.572 295.091H169.163L164.447 306H163.084L158.453 295.091H160.016L163.766 303.727ZM159.476 295.091V306H157.8V295.091H159.476ZM168.055 306V295.091H169.732V306H168.055ZM178.425 306V295.091H180.101V299.835H181.209L185.129 295.091H187.288L182.885 300.347L187.345 306H185.186L181.607 301.398H180.101V306H178.425ZM193.15 306.227C192.165 306.227 191.301 305.993 190.557 305.524C189.819 305.055 189.241 304.4 188.824 303.557C188.412 302.714 188.206 301.729 188.206 300.602C188.206 299.466 188.412 298.474 188.824 297.626C189.241 296.779 189.819 296.121 190.557 295.652C191.301 295.183 192.165 294.949 193.15 294.949C194.134 294.949 194.996 295.183 195.735 295.652C196.478 296.121 197.056 296.779 197.468 297.626C197.884 298.474 198.093 299.466 198.093 300.602C198.093 301.729 197.884 302.714 197.468 303.557C197.056 304.4 196.478 305.055 195.735 305.524C194.996 305.993 194.134 306.227 193.15 306.227ZM193.15 304.722C193.898 304.722 194.513 304.53 194.996 304.146C195.479 303.763 195.837 303.259 196.069 302.634C196.301 302.009 196.417 301.331 196.417 300.602C196.417 299.873 196.301 299.194 196.069 298.564C195.837 297.934 195.479 297.425 194.996 297.037C194.513 296.649 193.898 296.455 193.15 296.455C192.401 296.455 191.786 296.649 191.303 297.037C190.82 297.425 190.462 297.934 190.23 298.564C189.998 299.194 189.882 299.873 189.882 300.602C189.882 301.331 189.998 302.009 190.23 302.634C190.462 303.259 190.82 303.763 191.303 304.146C191.786 304.53 192.401 304.722 193.15 304.722ZM199.685 306V304.438H200.083C200.41 304.438 200.682 304.374 200.9 304.246C201.118 304.113 201.293 303.884 201.425 303.557C201.563 303.225 201.667 302.766 201.738 302.179C201.814 301.587 201.868 300.834 201.901 299.92L202.1 295.091H209.373V306H207.697V296.653H203.691L203.521 300.545C203.483 301.44 203.402 302.229 203.279 302.911C203.161 303.588 202.978 304.156 202.732 304.615C202.491 305.074 202.169 305.42 201.766 305.652C201.364 305.884 200.86 306 200.254 306H199.685ZM217.022 306.227C215.971 306.227 215.064 305.995 214.302 305.531C213.544 305.062 212.96 304.409 212.548 303.571C212.14 302.728 211.937 301.748 211.937 300.631C211.937 299.513 212.14 298.528 212.548 297.676C212.96 296.819 213.532 296.152 214.266 295.673C215.005 295.19 215.867 294.949 216.852 294.949C217.42 294.949 217.981 295.044 218.535 295.233C219.089 295.422 219.593 295.73 220.048 296.156C220.502 296.578 220.864 297.136 221.134 297.832C221.404 298.528 221.539 299.385 221.539 300.403V301.114H213.13V299.665H219.835C219.835 299.049 219.711 298.5 219.465 298.017C219.224 297.534 218.878 297.153 218.428 296.874C217.983 296.594 217.458 296.455 216.852 296.455C216.184 296.455 215.606 296.62 215.119 296.952C214.636 297.278 214.264 297.705 214.004 298.23C213.743 298.756 213.613 299.319 213.613 299.92V300.886C213.613 301.71 213.755 302.409 214.039 302.982C214.328 303.55 214.728 303.983 215.239 304.281C215.751 304.575 216.345 304.722 217.022 304.722C217.462 304.722 217.86 304.66 218.215 304.537C218.575 304.409 218.885 304.22 219.146 303.969C219.406 303.713 219.607 303.396 219.749 303.017L221.369 303.472C221.198 304.021 220.912 304.504 220.509 304.92C220.107 305.332 219.61 305.654 219.018 305.886C218.426 306.114 217.761 306.227 217.022 306.227ZM228.521 306.227C227.498 306.227 226.617 305.986 225.879 305.503C225.14 305.02 224.572 304.355 224.174 303.507C223.776 302.66 223.577 301.691 223.577 300.602C223.577 299.494 223.781 298.517 224.188 297.669C224.6 296.817 225.173 296.152 225.907 295.673C226.646 295.19 227.507 294.949 228.492 294.949C229.259 294.949 229.951 295.091 230.566 295.375C231.182 295.659 231.686 296.057 232.079 296.568C232.472 297.08 232.716 297.676 232.81 298.358H231.134C231.006 297.861 230.722 297.42 230.282 297.037C229.846 296.649 229.259 296.455 228.521 296.455C227.867 296.455 227.294 296.625 226.802 296.966C226.314 297.302 225.933 297.778 225.658 298.393C225.388 299.004 225.254 299.722 225.254 300.545C225.254 301.388 225.386 302.122 225.651 302.747C225.921 303.372 226.3 303.857 226.788 304.203C227.28 304.549 227.858 304.722 228.521 304.722C228.956 304.722 229.352 304.646 229.707 304.494C230.062 304.343 230.362 304.125 230.609 303.841C230.855 303.557 231.03 303.216 231.134 302.818H232.81C232.716 303.462 232.481 304.042 232.107 304.558C231.738 305.07 231.248 305.477 230.637 305.78C230.031 306.078 229.326 306.227 228.521 306.227ZM238.471 306.256C237.78 306.256 237.152 306.125 236.589 305.865C236.025 305.6 235.578 305.219 235.246 304.722C234.915 304.22 234.749 303.614 234.749 302.903C234.749 302.278 234.872 301.772 235.119 301.384C235.365 300.991 235.694 300.683 236.106 300.46C236.518 300.238 236.972 300.072 237.469 299.963C237.971 299.849 238.476 299.759 238.982 299.693C239.645 299.608 240.183 299.544 240.594 299.501C241.011 299.454 241.314 299.376 241.504 299.267C241.698 299.158 241.795 298.969 241.795 298.699V298.642C241.795 297.941 241.603 297.397 241.219 297.009C240.841 296.62 240.265 296.426 239.494 296.426C238.693 296.426 238.066 296.601 237.612 296.952C237.157 297.302 236.837 297.676 236.653 298.074L235.062 297.506C235.346 296.843 235.725 296.327 236.198 295.957C236.676 295.583 237.197 295.323 237.761 295.176C238.329 295.025 238.888 294.949 239.437 294.949C239.787 294.949 240.19 294.991 240.644 295.077C241.103 295.157 241.546 295.325 241.972 295.581C242.403 295.837 242.761 296.223 243.045 296.739C243.329 297.255 243.471 297.946 243.471 298.812V306H241.795V304.523H241.71C241.596 304.759 241.406 305.013 241.141 305.283C240.876 305.553 240.523 305.782 240.083 305.972C239.643 306.161 239.105 306.256 238.471 306.256ZM238.727 304.75C239.389 304.75 239.948 304.62 240.403 304.359C240.862 304.099 241.208 303.763 241.44 303.351C241.676 302.939 241.795 302.506 241.795 302.051V300.517C241.724 300.602 241.567 300.68 241.326 300.751C241.089 300.818 240.815 300.877 240.502 300.929C240.194 300.976 239.894 301.019 239.6 301.057C239.311 301.09 239.077 301.118 238.897 301.142C238.461 301.199 238.054 301.291 237.675 301.419C237.301 301.542 236.998 301.729 236.766 301.98C236.539 302.226 236.425 302.562 236.425 302.989C236.425 303.571 236.641 304.011 237.072 304.31C237.507 304.603 238.059 304.75 238.727 304.75Z" fill="#151515"/>
<path d="M93.1946 13.2727V54H83.3707V22.4602H83.1321L74.0241 28.0284V19.517L84.0668 13.2727H93.1946ZM102.198 54V46.9205L117.053 33.9148C118.167 32.9072 119.115 31.9858 119.897 31.1506C120.679 30.3021 121.276 29.4536 121.687 28.6051C122.098 27.7434 122.303 26.8087 122.303 25.8011C122.303 24.6742 122.058 23.7131 121.567 22.9176C121.077 22.1089 120.401 21.4858 119.539 21.0483C118.677 20.6108 117.69 20.392 116.576 20.392C115.449 20.392 114.461 20.6241 113.613 21.0881C112.764 21.5388 112.102 22.1951 111.624 23.0568C111.16 23.9186 110.928 24.9659 110.928 26.1989H101.602C101.602 23.428 102.225 21.035 103.471 19.0199C104.717 17.0047 106.467 15.4536 108.721 14.3665C110.988 13.2661 113.62 12.7159 116.616 12.7159C119.705 12.7159 122.389 13.233 124.67 14.267C126.95 15.3011 128.713 16.7462 129.96 18.6023C131.219 20.4451 131.849 22.5862 131.849 25.0256C131.849 26.5767 131.537 28.1146 130.914 29.6392C130.291 31.1638 129.171 32.8475 127.553 34.6903C125.949 36.5331 123.669 38.7405 120.712 41.3125L115.84 45.8068V46.0653H132.346V54H102.198ZM136.537 47.2386V39.5625L153.222 13.2727H160.043V23.6932H156.085L146.321 39.1648V39.483H170.483V47.2386H136.537ZM156.205 54V44.892L156.403 41.5312V13.2727H165.611V54H156.205Z" fill="#FFBC00"/>
<path d="M107.147 238V230.92L122.002 217.915C123.116 216.907 124.064 215.986 124.846 215.151C125.628 214.302 126.225 213.454 126.636 212.605C127.047 211.743 127.252 210.809 127.252 209.801C127.252 208.674 127.007 207.713 126.517 206.918C126.026 206.109 125.35 205.486 124.488 205.048C123.627 204.611 122.639 204.392 121.525 204.392C120.398 204.392 119.411 204.624 118.562 205.088C117.714 205.539 117.051 206.195 116.574 207.057C116.109 207.919 115.877 208.966 115.877 210.199H106.551C106.551 207.428 107.174 205.035 108.42 203.02C109.666 201.005 111.416 199.454 113.67 198.366C115.937 197.266 118.569 196.716 121.565 196.716C124.654 196.716 127.339 197.233 129.619 198.267C131.899 199.301 133.663 200.746 134.909 202.602C136.168 204.445 136.798 206.586 136.798 209.026C136.798 210.577 136.486 212.115 135.863 213.639C135.24 215.164 134.12 216.848 132.502 218.69C130.898 220.533 128.618 222.741 125.662 225.312L120.789 229.807V230.065H137.295V238H107.147Z" fill="#FFBC00"/>
<path d="M302.309 96V85.0909H310.889V96H309.213V86.6534H303.986V96H302.309ZM313.95 100.091V85.0909H315.569V86.8239H315.768C315.891 86.6345 316.062 86.393 316.28 86.0994C316.502 85.8011 316.819 85.536 317.231 85.304C317.648 85.0672 318.211 84.9489 318.922 84.9489C319.84 84.9489 320.65 85.1785 321.351 85.6378C322.051 86.0971 322.598 86.7481 322.991 87.5909C323.384 88.4337 323.581 89.428 323.581 90.5739C323.581 91.7292 323.384 92.7306 322.991 93.5781C322.598 94.4209 322.054 95.0743 321.358 95.5384C320.662 95.9976 319.859 96.2273 318.95 96.2273C318.249 96.2273 317.688 96.1113 317.267 95.8793C316.845 95.6425 316.521 95.375 316.294 95.0767C316.067 94.7737 315.891 94.5227 315.768 94.3239H315.626V100.091H313.95ZM315.598 90.5455C315.598 91.3693 315.719 92.0961 315.96 92.7259C316.202 93.3509 316.554 93.8409 317.018 94.196C317.482 94.5464 318.05 94.7216 318.723 94.7216C319.424 94.7216 320.008 94.5369 320.477 94.1676C320.951 93.7936 321.306 93.2917 321.542 92.6619C321.784 92.0275 321.905 91.322 321.905 90.5455C321.905 89.7784 321.786 89.0871 321.55 88.4716C321.318 87.8513 320.965 87.3613 320.491 87.0014C320.023 86.6368 319.433 86.4545 318.723 86.4545C318.041 86.4545 317.468 86.6274 317.004 86.973C316.54 87.3139 316.19 87.7921 315.953 88.4077C315.716 89.0185 315.598 89.7311 315.598 90.5455ZM330.569 96.2273C329.585 96.2273 328.72 95.9929 327.977 95.5241C327.238 95.0554 326.661 94.3996 326.244 93.5568C325.832 92.714 325.626 91.7292 325.626 90.6023C325.626 89.4659 325.832 88.474 326.244 87.6264C326.661 86.7789 327.238 86.1207 327.977 85.652C328.72 85.1832 329.585 84.9489 330.569 84.9489C331.554 84.9489 332.416 85.1832 333.155 85.652C333.898 86.1207 334.476 86.7789 334.888 87.6264C335.304 88.474 335.513 89.4659 335.513 90.6023C335.513 91.7292 335.304 92.714 334.888 93.5568C334.476 94.3996 333.898 95.0554 333.155 95.5241C332.416 95.9929 331.554 96.2273 330.569 96.2273ZM330.569 94.7216C331.318 94.7216 331.933 94.5298 332.416 94.1463C332.899 93.7628 333.256 93.2585 333.488 92.6335C333.72 92.0085 333.836 91.3314 333.836 90.6023C333.836 89.8731 333.72 89.1937 333.488 88.5639C333.256 87.9342 332.899 87.4252 332.416 87.0369C331.933 86.6487 331.318 86.4545 330.569 86.4545C329.821 86.4545 329.206 86.6487 328.723 87.0369C328.24 87.4252 327.882 87.9342 327.65 88.5639C327.418 89.1937 327.302 89.8731 327.302 90.6023C327.302 91.3314 327.418 92.0085 327.65 92.6335C327.882 93.2585 328.24 93.7628 328.723 94.1463C329.206 94.5298 329.821 94.7216 330.569 94.7216ZM342.503 99.7216V81.4545H344.179V99.7216H342.503ZM342.503 96.2273C341.764 96.2273 341.092 96.0947 340.486 95.8295C339.88 95.5597 339.359 95.1785 338.923 94.6861C338.488 94.1889 338.152 93.5947 337.915 92.9034C337.678 92.2121 337.56 91.4451 337.56 90.6023C337.56 89.75 337.678 88.9782 337.915 88.2869C338.152 87.5909 338.488 86.9943 338.923 86.4972C339.359 86 339.88 85.6188 340.486 85.3537C341.092 85.0838 341.764 84.9489 342.503 84.9489H343.014V96.2273H342.503ZM342.503 94.7216H342.787V86.4545H342.503C341.944 86.4545 341.459 86.5682 341.047 86.7955C340.635 87.018 340.294 87.3234 340.024 87.7116C339.759 88.0952 339.56 88.5355 339.428 89.0327C339.3 89.5298 339.236 90.053 339.236 90.6023C339.236 91.3314 339.352 92.0085 339.584 92.6335C339.816 93.2585 340.173 93.7628 340.656 94.1463C341.139 94.5298 341.755 94.7216 342.503 94.7216ZM344.179 96.2273H343.668V84.9489H344.179C344.918 84.9489 345.59 85.0838 346.196 85.3537C346.802 85.6188 347.323 86 347.759 86.4972C348.194 86.9943 348.53 87.5909 348.767 88.2869C349.004 88.9782 349.122 89.75 349.122 90.6023C349.122 91.4451 349.004 92.2121 348.767 92.9034C348.53 93.5947 348.194 94.1889 347.759 94.6861C347.323 95.1785 346.802 95.5597 346.196 95.8295C345.59 96.0947 344.918 96.2273 344.179 96.2273ZM344.179 94.7216C344.743 94.7216 345.228 94.6127 345.635 94.3949C346.047 94.1723 346.386 93.8693 346.651 93.4858C346.921 93.0975 347.119 92.6572 347.247 92.1648C347.38 91.6676 347.446 91.1468 347.446 90.6023C347.446 89.8731 347.33 89.1937 347.098 88.5639C346.866 87.9342 346.509 87.4252 346.026 87.0369C345.543 86.6487 344.927 86.4545 344.179 86.4545H343.895V94.7216H344.179ZM356.258 96.2273C355.207 96.2273 354.3 95.9953 353.538 95.5312C352.781 95.0625 352.196 94.4091 351.784 93.571C351.377 92.7282 351.173 91.7481 351.173 90.6307C351.173 89.5133 351.377 88.5284 351.784 87.6761C352.196 86.8191 352.769 86.1515 353.503 85.6733C354.241 85.1903 355.103 84.9489 356.088 84.9489C356.656 84.9489 357.217 85.0436 357.771 85.233C358.325 85.4223 358.829 85.7301 359.284 86.1562C359.738 86.5777 360.101 87.1364 360.371 87.8324C360.64 88.5284 360.775 89.3854 360.775 90.4034V91.1136H352.366V89.6648H359.071C359.071 89.0492 358.948 88.5 358.702 88.017C358.46 87.5341 358.114 87.1529 357.665 86.8736C357.22 86.5942 356.694 86.4545 356.088 86.4545C355.42 86.4545 354.843 86.6203 354.355 86.9517C353.872 87.2784 353.5 87.7045 353.24 88.2301C352.979 88.7557 352.849 89.3191 352.849 89.9205V90.8864C352.849 91.7102 352.991 92.4086 353.275 92.9815C353.564 93.5497 353.964 93.983 354.476 94.2812C354.987 94.5748 355.581 94.7216 356.258 94.7216C356.699 94.7216 357.096 94.66 357.452 94.5369C357.811 94.4091 358.122 94.2197 358.382 93.9688C358.642 93.7131 358.844 93.3958 358.986 93.017L360.605 93.4716C360.434 94.0208 360.148 94.5038 359.746 94.9205C359.343 95.3324 358.846 95.6544 358.254 95.8864C357.662 96.1136 356.997 96.2273 356.258 96.2273ZM367.757 96.2273C366.734 96.2273 365.854 95.9858 365.115 95.5028C364.376 95.0199 363.808 94.3546 363.41 93.5071C363.013 92.6596 362.814 91.6913 362.814 90.6023C362.814 89.4943 363.017 88.5166 363.425 87.669C363.836 86.8168 364.409 86.1515 365.143 85.6733C365.882 85.1903 366.744 84.9489 367.729 84.9489C368.496 84.9489 369.187 85.0909 369.802 85.375C370.418 85.6591 370.922 86.0568 371.315 86.5682C371.708 87.0795 371.952 87.6761 372.047 88.358H370.371C370.243 87.8608 369.959 87.4205 369.518 87.0369C369.083 86.6487 368.496 86.4545 367.757 86.4545C367.104 86.4545 366.531 86.625 366.038 86.9659C365.55 87.3021 365.169 87.7779 364.895 88.3935C364.625 89.0043 364.49 89.7216 364.49 90.5455C364.49 91.3883 364.622 92.1222 364.888 92.7472C365.157 93.3722 365.536 93.8575 366.024 94.2031C366.516 94.5488 367.094 94.7216 367.757 94.7216C368.193 94.7216 368.588 94.6458 368.943 94.4943C369.298 94.3428 369.599 94.125 369.845 93.8409C370.091 93.5568 370.266 93.2159 370.371 92.8182H372.047C371.952 93.4621 371.718 94.0421 371.344 94.5582C370.974 95.0696 370.484 95.4768 369.873 95.7798C369.267 96.0781 368.562 96.2273 367.757 96.2273ZM378.929 96.2273C377.906 96.2273 377.025 95.9858 376.287 95.5028C375.548 95.0199 374.98 94.3546 374.582 93.5071C374.184 92.6596 373.986 91.6913 373.986 90.6023C373.986 89.4943 374.189 88.5166 374.596 87.669C375.008 86.8168 375.581 86.1515 376.315 85.6733C377.054 85.1903 377.916 84.9489 378.9 84.9489C379.667 84.9489 380.359 85.0909 380.974 85.375C381.59 85.6591 382.094 86.0568 382.487 86.5682C382.88 87.0795 383.124 87.6761 383.219 88.358H381.542C381.415 87.8608 381.131 87.4205 380.69 87.0369C380.255 86.6487 379.667 86.4545 378.929 86.4545C378.275 86.4545 377.702 86.625 377.21 86.9659C376.722 87.3021 376.341 87.7779 376.067 88.3935C375.797 89.0043 375.662 89.7216 375.662 90.5455C375.662 91.3883 375.794 92.1222 376.059 92.7472C376.329 93.3722 376.708 93.8575 377.196 94.2031C377.688 94.5488 378.266 94.7216 378.929 94.7216C379.364 94.7216 379.76 94.6458 380.115 94.4943C380.47 94.3428 380.771 94.125 381.017 93.8409C381.263 93.5568 381.438 93.2159 381.542 92.8182H383.219C383.124 93.4621 382.89 94.0421 382.515 94.5582C382.146 95.0696 381.656 95.4768 381.045 95.7798C380.439 96.0781 379.734 96.2273 378.929 96.2273ZM387.345 93.5284L392.601 85.0909H394.532V96H392.856V87.5625L387.629 96H385.669V85.0909H387.345V93.5284ZM402.034 96.2273C401.049 96.2273 400.185 95.9929 399.442 95.5241C398.703 95.0554 398.126 94.3996 397.709 93.5568C397.297 92.714 397.091 91.7292 397.091 90.6023C397.091 89.4659 397.297 88.474 397.709 87.6264C398.126 86.7789 398.703 86.1207 399.442 85.652C400.185 85.1832 401.049 84.9489 402.034 84.9489C403.019 84.9489 403.881 85.1832 404.619 85.652C405.363 86.1207 405.941 86.7789 406.352 87.6264C406.769 88.474 406.977 89.4659 406.977 90.6023C406.977 91.7292 406.769 92.714 406.352 93.5568C405.941 94.3996 405.363 95.0554 404.619 95.5241C403.881 95.9929 403.019 96.2273 402.034 96.2273ZM402.034 94.7216C402.782 94.7216 403.398 94.5298 403.881 94.1463C404.364 93.7628 404.721 93.2585 404.953 92.6335C405.185 92.0085 405.301 91.3314 405.301 90.6023C405.301 89.8731 405.185 89.1937 404.953 88.5639C404.721 87.9342 404.364 87.4252 403.881 87.0369C403.398 86.6487 402.782 86.4545 402.034 86.4545C401.286 86.4545 400.671 86.6487 400.188 87.0369C399.705 87.4252 399.347 87.9342 399.115 88.5639C398.883 89.1937 398.767 89.8731 398.767 90.6023C398.767 91.3314 398.883 92.0085 399.115 92.6335C399.347 93.2585 399.705 93.7628 400.188 94.1463C400.671 94.5298 401.286 94.7216 402.034 94.7216ZM416.837 89.7784V91.3409H410.814V89.7784H416.837ZM411.212 85.0909V96H409.536V85.0909H411.212ZM418.116 85.0909V96H416.439V85.0909H418.116ZM424.387 96.2557C423.696 96.2557 423.068 96.1255 422.505 95.8651C421.941 95.5999 421.494 95.2188 421.162 94.7216C420.831 94.2197 420.665 93.6136 420.665 92.9034C420.665 92.2784 420.788 91.7718 421.035 91.3835C421.281 90.9905 421.61 90.6828 422.022 90.4602C422.434 90.2377 422.888 90.072 423.385 89.9631C423.887 89.8494 424.392 89.7595 424.898 89.6932C425.561 89.608 426.099 89.544 426.51 89.5014C426.927 89.4541 427.23 89.3759 427.42 89.267C427.614 89.1581 427.711 88.9687 427.711 88.6989V88.642C427.711 87.9413 427.519 87.3968 427.135 87.0085C426.757 86.6203 426.181 86.4261 425.41 86.4261C424.609 86.4261 423.982 86.6013 423.528 86.9517C423.073 87.3021 422.753 87.6761 422.569 88.0739L420.978 87.5057C421.262 86.8428 421.641 86.3267 422.114 85.9574C422.592 85.5833 423.113 85.3229 423.677 85.1761C424.245 85.0246 424.804 84.9489 425.353 84.9489C425.703 84.9489 426.106 84.9915 426.56 85.0767C427.019 85.1572 427.462 85.3253 427.888 85.581C428.319 85.8366 428.677 86.2225 428.961 86.7386C429.245 87.2547 429.387 87.946 429.387 88.8125V96H427.711V94.5227H427.626C427.512 94.7595 427.323 95.0128 427.057 95.2827C426.792 95.5526 426.439 95.7822 425.999 95.9716C425.559 96.161 425.021 96.2557 424.387 96.2557ZM424.643 94.75C425.305 94.75 425.864 94.6198 426.319 94.3594C426.778 94.099 427.124 93.7628 427.356 93.3509C427.592 92.9389 427.711 92.5057 427.711 92.0511V90.517C427.64 90.6023 427.483 90.6804 427.242 90.7514C427.005 90.8177 426.731 90.8769 426.418 90.929C426.11 90.9763 425.81 91.0189 425.516 91.0568C425.227 91.09 424.993 91.1184 424.813 91.142C424.377 91.1989 423.97 91.2912 423.591 91.419C423.217 91.5421 422.914 91.7292 422.682 91.9801C422.455 92.2263 422.341 92.5625 422.341 92.9886C422.341 93.571 422.557 94.0114 422.988 94.3097C423.423 94.6032 423.975 94.75 424.643 94.75ZM431.48 96V94.4375H431.878C432.205 94.4375 432.477 94.3736 432.695 94.2457C432.913 94.1132 433.088 93.8835 433.22 93.5568C433.358 93.2254 433.462 92.7661 433.533 92.179C433.609 91.5871 433.663 90.8343 433.696 89.9205L433.895 85.0909H441.168V96H439.492V86.6534H435.486L435.316 90.5455C435.278 91.4403 435.197 92.2287 435.074 92.9105C434.956 93.5876 434.773 94.1558 434.527 94.6151C434.286 95.0743 433.964 95.42 433.561 95.652C433.159 95.884 432.655 96 432.048 96H431.48ZM445.692 89.0398H448.817C450.095 89.0398 451.073 89.3641 451.75 90.0128C452.427 90.6615 452.766 91.483 452.766 92.4773C452.766 93.1307 452.614 93.7249 452.311 94.2599C452.008 94.7902 451.563 95.214 450.976 95.5312C450.389 95.8438 449.669 96 448.817 96H444.243V85.0909H445.919V94.4375H448.817C449.48 94.4375 450.024 94.2623 450.45 93.9119C450.877 93.5616 451.09 93.1117 451.09 92.5625C451.09 91.9848 450.877 91.5137 450.45 91.1491C450.024 90.7846 449.48 90.6023 448.817 90.6023H445.692V89.0398ZM462.618 89.7784V91.3409H456.596V89.7784H462.618ZM456.993 85.0909V96H455.317V85.0909H456.993ZM463.897 85.0909V96H462.221V85.0909H463.897ZM468.407 89.0398H471.532C472.81 89.0398 473.788 89.3641 474.465 90.0128C475.142 90.6615 475.481 91.483 475.481 92.4773C475.481 93.1307 475.329 93.7249 475.026 94.2599C474.723 94.7902 474.278 95.214 473.691 95.5312C473.104 95.8438 472.384 96 471.532 96H466.958V85.0909H468.634V94.4375H471.532C472.195 94.4375 472.739 94.2623 473.165 93.9119C473.591 93.5616 473.805 93.1117 473.805 92.5625C473.805 91.9848 473.591 91.5137 473.165 91.1491C472.739 90.7846 472.195 90.6023 471.532 90.6023H468.407V89.0398ZM477.214 96V85.0909H478.89V96H477.214ZM483.208 85.0909L485.822 89.5511L488.435 85.0909H490.367L486.844 90.5455L490.367 96H488.435L485.822 91.767L483.208 96H481.276L484.742 90.5455L481.276 85.0909H483.208ZM356.342 119.727L360.149 111.091H361.74L357.024 122H355.66L351.029 111.091H352.592L356.342 119.727ZM352.052 111.091V122H350.376V111.091H352.052ZM360.632 122V111.091H362.308V122H360.632ZM368.586 122.256C367.895 122.256 367.267 122.125 366.704 121.865C366.141 121.6 365.693 121.219 365.362 120.722C365.03 120.22 364.865 119.614 364.865 118.903C364.865 118.278 364.988 117.772 365.234 117.384C365.48 116.991 365.809 116.683 366.221 116.46C366.633 116.238 367.088 116.072 367.585 115.963C368.087 115.849 368.591 115.759 369.097 115.693C369.76 115.608 370.298 115.544 370.71 115.501C371.126 115.454 371.429 115.376 371.619 115.267C371.813 115.158 371.91 114.969 371.91 114.699V114.642C371.91 113.941 371.718 113.397 371.335 113.009C370.956 112.62 370.381 112.426 369.609 112.426C368.809 112.426 368.181 112.601 367.727 112.952C367.272 113.302 366.953 113.676 366.768 114.074L365.177 113.506C365.461 112.843 365.84 112.327 366.313 111.957C366.792 111.583 367.312 111.323 367.876 111.176C368.444 111.025 369.003 110.949 369.552 110.949C369.902 110.949 370.305 110.991 370.759 111.077C371.219 111.157 371.661 111.325 372.088 111.581C372.518 111.837 372.876 112.223 373.16 112.739C373.444 113.255 373.586 113.946 373.586 114.812V122H371.91V120.523H371.825C371.711 120.759 371.522 121.013 371.257 121.283C370.991 121.553 370.639 121.782 370.198 121.972C369.758 122.161 369.221 122.256 368.586 122.256ZM368.842 120.75C369.505 120.75 370.063 120.62 370.518 120.359C370.977 120.099 371.323 119.763 371.555 119.351C371.792 118.939 371.91 118.506 371.91 118.051V116.517C371.839 116.602 371.683 116.68 371.441 116.751C371.204 116.818 370.93 116.877 370.617 116.929C370.31 116.976 370.009 117.019 369.715 117.057C369.427 117.09 369.192 117.118 369.012 117.142C368.577 117.199 368.169 117.291 367.791 117.419C367.417 117.542 367.114 117.729 366.882 117.98C366.654 118.226 366.541 118.562 366.541 118.989C366.541 119.571 366.756 120.011 367.187 120.31C367.623 120.603 368.174 120.75 368.842 120.75ZM381.077 122.227C380.055 122.227 379.174 121.986 378.435 121.503C377.697 121.02 377.128 120.355 376.731 119.507C376.333 118.66 376.134 117.691 376.134 116.602C376.134 115.494 376.338 114.517 376.745 113.669C377.157 112.817 377.73 112.152 378.464 111.673C379.202 111.19 380.064 110.949 381.049 110.949C381.816 110.949 382.507 111.091 383.123 111.375C383.738 111.659 384.242 112.057 384.635 112.568C385.028 113.08 385.272 113.676 385.367 114.358H383.691C383.563 113.861 383.279 113.42 382.839 113.037C382.403 112.649 381.816 112.455 381.077 112.455C380.424 112.455 379.851 112.625 379.358 112.966C378.871 113.302 378.49 113.778 378.215 114.393C377.945 115.004 377.81 115.722 377.81 116.545C377.81 117.388 377.943 118.122 378.208 118.747C378.478 119.372 378.857 119.857 379.344 120.203C379.837 120.549 380.414 120.722 381.077 120.722C381.513 120.722 381.908 120.646 382.263 120.494C382.618 120.343 382.919 120.125 383.165 119.841C383.412 119.557 383.587 119.216 383.691 118.818H385.367C385.272 119.462 385.038 120.042 384.664 120.558C384.295 121.07 383.805 121.477 383.194 121.78C382.588 122.078 381.882 122.227 381.077 122.227ZM386.958 112.653V111.091H395.822V112.653H392.242V122H390.566V112.653H386.958ZM402.274 122.227C401.223 122.227 400.316 121.995 399.554 121.531C398.796 121.062 398.211 120.409 397.8 119.571C397.392 118.728 397.189 117.748 397.189 116.631C397.189 115.513 397.392 114.528 397.8 113.676C398.211 112.819 398.784 112.152 399.518 111.673C400.257 111.19 401.119 110.949 402.104 110.949C402.672 110.949 403.233 111.044 403.787 111.233C404.341 111.422 404.845 111.73 405.3 112.156C405.754 112.578 406.116 113.136 406.386 113.832C406.656 114.528 406.791 115.385 406.791 116.403V117.114H398.382V115.665H405.086C405.086 115.049 404.963 114.5 404.717 114.017C404.476 113.534 404.13 113.153 403.68 112.874C403.235 112.594 402.71 112.455 402.104 112.455C401.436 112.455 400.858 112.62 400.371 112.952C399.888 113.278 399.516 113.705 399.256 114.23C398.995 114.756 398.865 115.319 398.865 115.92V116.886C398.865 117.71 399.007 118.409 399.291 118.982C399.58 119.55 399.98 119.983 400.491 120.281C401.003 120.575 401.597 120.722 402.274 120.722C402.714 120.722 403.112 120.66 403.467 120.537C403.827 120.409 404.137 120.22 404.398 119.969C404.658 119.713 404.859 119.396 405.001 119.017L406.621 119.472C406.45 120.021 406.164 120.504 405.761 120.92C405.359 121.332 404.862 121.654 404.27 121.886C403.678 122.114 403.013 122.227 402.274 122.227ZM409.341 126.091V111.091H410.96V112.824H411.159C411.282 112.634 411.452 112.393 411.67 112.099C411.893 111.801 412.21 111.536 412.622 111.304C413.039 111.067 413.602 110.949 414.312 110.949C415.231 110.949 416.041 111.179 416.741 111.638C417.442 112.097 417.989 112.748 418.382 113.591C418.775 114.434 418.971 115.428 418.971 116.574C418.971 117.729 418.775 118.731 418.382 119.578C417.989 120.421 417.444 121.074 416.748 121.538C416.052 121.998 415.25 122.227 414.341 122.227C413.64 122.227 413.079 122.111 412.657 121.879C412.236 121.643 411.912 121.375 411.684 121.077C411.457 120.774 411.282 120.523 411.159 120.324H411.017V126.091H409.341ZM410.988 116.545C410.988 117.369 411.109 118.096 411.351 118.726C411.592 119.351 411.945 119.841 412.409 120.196C412.873 120.546 413.441 120.722 414.113 120.722C414.814 120.722 415.399 120.537 415.868 120.168C416.341 119.794 416.696 119.292 416.933 118.662C417.175 118.027 417.295 117.322 417.295 116.545C417.295 115.778 417.177 115.087 416.94 114.472C416.708 113.851 416.355 113.361 415.882 113.001C415.413 112.637 414.824 112.455 414.113 112.455C413.432 112.455 412.859 112.627 412.395 112.973C411.931 113.314 411.58 113.792 411.344 114.408C411.107 115.018 410.988 115.731 410.988 116.545ZM425.96 122.227C424.975 122.227 424.111 121.993 423.368 121.524C422.629 121.055 422.051 120.4 421.635 119.557C421.223 118.714 421.017 117.729 421.017 116.602C421.017 115.466 421.223 114.474 421.635 113.626C422.051 112.779 422.629 112.121 423.368 111.652C424.111 111.183 424.975 110.949 425.96 110.949C426.945 110.949 427.807 111.183 428.545 111.652C429.289 112.121 429.866 112.779 430.278 113.626C430.695 114.474 430.903 115.466 430.903 116.602C430.903 117.729 430.695 118.714 430.278 119.557C429.866 120.4 429.289 121.055 428.545 121.524C427.807 121.993 426.945 122.227 425.96 122.227ZM425.96 120.722C426.708 120.722 427.324 120.53 427.807 120.146C428.29 119.763 428.647 119.259 428.879 118.634C429.111 118.009 429.227 117.331 429.227 116.602C429.227 115.873 429.111 115.194 428.879 114.564C428.647 113.934 428.29 113.425 427.807 113.037C427.324 112.649 426.708 112.455 425.96 112.455C425.212 112.455 424.596 112.649 424.113 113.037C423.631 113.425 423.273 113.934 423.041 114.564C422.809 115.194 422.693 115.873 422.693 116.602C422.693 117.331 422.809 118.009 423.041 118.634C423.273 119.259 423.631 119.763 424.113 120.146C424.596 120.53 425.212 120.722 425.96 120.722ZM433.462 122V111.091H437.922C439.096 111.091 440.029 111.356 440.72 111.886C441.412 112.417 441.757 113.117 441.757 113.989C441.757 114.652 441.561 115.165 441.168 115.53C440.775 115.89 440.271 116.134 439.655 116.261C440.057 116.318 440.448 116.46 440.827 116.688C441.21 116.915 441.528 117.227 441.779 117.625C442.03 118.018 442.155 118.501 442.155 119.074C442.155 119.633 442.013 120.132 441.729 120.572C441.445 121.013 441.038 121.361 440.507 121.616C439.977 121.872 439.343 122 438.604 122H433.462ZM435.053 120.466H438.604C439.182 120.466 439.634 120.329 439.96 120.054C440.287 119.779 440.45 119.405 440.45 118.932C440.45 118.368 440.287 117.926 439.96 117.604C439.634 117.277 439.182 117.114 438.604 117.114H435.053V120.466ZM435.053 115.665H437.922C438.372 115.665 438.758 115.603 439.08 115.48C439.402 115.352 439.648 115.172 439.818 114.94C439.994 114.704 440.081 114.424 440.081 114.102C440.081 113.643 439.889 113.283 439.506 113.023C439.122 112.758 438.594 112.625 437.922 112.625H435.053V115.665Z" fill="#151515"/>
<path d="M332.945 265L333.797 266.023C333.466 266.345 333.082 266.57 332.647 266.697C332.211 266.825 331.719 266.903 331.17 266.932C330.62 266.96 330.01 266.989 329.337 267.017C328.58 267.045 327.952 267.23 327.455 267.571C326.958 267.912 326.574 268.404 326.305 269.048C326.035 269.692 325.862 270.483 325.786 271.42H325.928C326.297 270.739 326.809 270.237 327.462 269.915C328.116 269.593 328.816 269.432 329.564 269.432C330.417 269.432 331.184 269.631 331.866 270.028C332.547 270.426 333.087 271.016 333.485 271.797C333.883 272.578 334.081 273.542 334.081 274.688C334.081 275.829 333.878 276.813 333.471 277.642C333.068 278.471 332.502 279.11 331.773 279.56C331.049 280.005 330.199 280.227 329.224 280.227C328.248 280.227 327.394 279.998 326.66 279.538C325.926 279.074 325.355 278.388 324.948 277.479C324.541 276.565 324.337 275.436 324.337 274.091V272.926C324.337 270.497 324.749 268.655 325.573 267.401C326.402 266.146 327.647 265.497 329.309 265.455C329.896 265.436 330.419 265.431 330.878 265.44C331.338 265.45 331.738 265.429 332.079 265.376C332.42 265.324 332.708 265.199 332.945 265ZM329.224 278.722C329.882 278.722 330.448 278.556 330.921 278.224C331.399 277.893 331.766 277.427 332.022 276.825C332.278 276.219 332.405 275.507 332.405 274.688C332.405 273.892 332.275 273.215 332.015 272.656C331.759 272.098 331.392 271.671 330.914 271.378C330.436 271.084 329.863 270.938 329.195 270.938C328.707 270.938 328.269 271.02 327.881 271.186C327.493 271.352 327.162 271.596 326.887 271.918C326.612 272.24 326.399 272.633 326.248 273.097C326.101 273.561 326.023 274.091 326.013 274.688C326.013 275.909 326.3 276.887 326.873 277.621C327.446 278.355 328.229 278.722 329.224 278.722ZM336.645 284.091V269.091H338.265V270.824H338.464C338.587 270.634 338.757 270.393 338.975 270.099C339.198 269.801 339.515 269.536 339.927 269.304C340.343 269.067 340.907 268.949 341.617 268.949C342.536 268.949 343.345 269.179 344.046 269.638C344.747 270.097 345.294 270.748 345.687 271.591C346.08 272.434 346.276 273.428 346.276 274.574C346.276 275.729 346.08 276.731 345.687 277.578C345.294 278.421 344.749 279.074 344.053 279.538C343.357 279.998 342.555 280.227 341.645 280.227C340.945 280.227 340.384 280.111 339.962 279.879C339.541 279.643 339.216 279.375 338.989 279.077C338.762 278.774 338.587 278.523 338.464 278.324H338.322V284.091H336.645ZM338.293 274.545C338.293 275.369 338.414 276.096 338.655 276.726C338.897 277.351 339.25 277.841 339.714 278.196C340.178 278.546 340.746 278.722 341.418 278.722C342.119 278.722 342.704 278.537 343.172 278.168C343.646 277.794 344.001 277.292 344.238 276.662C344.479 276.027 344.6 275.322 344.6 274.545C344.6 273.778 344.482 273.087 344.245 272.472C344.013 271.851 343.66 271.361 343.187 271.001C342.718 270.637 342.128 270.455 341.418 270.455C340.736 270.455 340.163 270.627 339.699 270.973C339.235 271.314 338.885 271.792 338.648 272.408C338.412 273.018 338.293 273.731 338.293 274.545ZM353.407 280.227C352.356 280.227 351.449 279.995 350.687 279.531C349.929 279.062 349.344 278.409 348.932 277.571C348.525 276.728 348.322 275.748 348.322 274.631C348.322 273.513 348.525 272.528 348.932 271.676C349.344 270.819 349.917 270.152 350.651 269.673C351.39 269.19 352.251 268.949 353.236 268.949C353.805 268.949 354.366 269.044 354.92 269.233C355.474 269.422 355.978 269.73 356.432 270.156C356.887 270.578 357.249 271.136 357.519 271.832C357.789 272.528 357.924 273.385 357.924 274.403V275.114H349.515V273.665H356.219C356.219 273.049 356.096 272.5 355.85 272.017C355.608 271.534 355.263 271.153 354.813 270.874C354.368 270.594 353.842 270.455 353.236 270.455C352.569 270.455 351.991 270.62 351.503 270.952C351.02 271.278 350.649 271.705 350.388 272.23C350.128 272.756 349.998 273.319 349.998 273.92V274.886C349.998 275.71 350.14 276.409 350.424 276.982C350.713 277.55 351.113 277.983 351.624 278.281C352.135 278.575 352.73 278.722 353.407 278.722C353.847 278.722 354.245 278.66 354.6 278.537C354.96 278.409 355.27 278.22 355.53 277.969C355.791 277.713 355.992 277.396 356.134 277.017L357.753 277.472C357.583 278.021 357.296 278.504 356.894 278.92C356.492 279.332 355.994 279.654 355.403 279.886C354.811 280.114 354.145 280.227 353.407 280.227ZM367.775 273.778V275.341H361.752V273.778H367.775ZM362.15 269.091V280H360.474V269.091H362.15ZM369.053 269.091V280H367.377V269.091H369.053ZM370.949 283.125V278.438H371.858C372.081 278.205 372.273 277.955 372.434 277.685C372.595 277.415 372.734 277.095 372.853 276.726C372.976 276.352 373.08 275.897 373.165 275.362C373.251 274.822 373.326 274.171 373.393 273.409L373.762 269.091H380.694V278.438H382.37V283.125H380.694V280H372.626V283.125H370.949ZM373.762 278.438H379.018V270.653H375.324L375.04 273.409C374.922 274.55 374.775 275.547 374.6 276.399C374.425 277.251 374.145 277.931 373.762 278.438ZM389.026 280.227C388.042 280.227 387.177 279.993 386.434 279.524C385.695 279.055 385.118 278.4 384.701 277.557C384.289 276.714 384.083 275.729 384.083 274.602C384.083 273.466 384.289 272.474 384.701 271.626C385.118 270.779 385.695 270.121 386.434 269.652C387.177 269.183 388.042 268.949 389.026 268.949C390.011 268.949 390.873 269.183 391.612 269.652C392.355 270.121 392.933 270.779 393.345 271.626C393.761 272.474 393.97 273.466 393.97 274.602C393.97 275.729 393.761 276.714 393.345 277.557C392.933 278.4 392.355 279.055 391.612 279.524C390.873 279.993 390.011 280.227 389.026 280.227ZM389.026 278.722C389.775 278.722 390.39 278.53 390.873 278.146C391.356 277.763 391.713 277.259 391.945 276.634C392.177 276.009 392.294 275.331 392.294 274.602C392.294 273.873 392.177 273.194 391.945 272.564C391.713 271.934 391.356 271.425 390.873 271.037C390.39 270.649 389.775 270.455 389.026 270.455C388.278 270.455 387.663 270.649 387.18 271.037C386.697 271.425 386.339 271.934 386.107 272.564C385.875 273.194 385.759 273.873 385.759 274.602C385.759 275.331 385.875 276.009 386.107 276.634C386.339 277.259 386.697 277.763 387.18 278.146C387.663 278.53 388.278 278.722 389.026 278.722ZM396.528 280V269.091H400.988C402.163 269.091 403.095 269.356 403.787 269.886C404.478 270.417 404.824 271.117 404.824 271.989C404.824 272.652 404.627 273.165 404.234 273.53C403.841 273.89 403.337 274.134 402.721 274.261C403.124 274.318 403.515 274.46 403.893 274.688C404.277 274.915 404.594 275.227 404.845 275.625C405.096 276.018 405.221 276.501 405.221 277.074C405.221 277.633 405.079 278.132 404.795 278.572C404.511 279.013 404.104 279.361 403.574 279.616C403.043 279.872 402.409 280 401.67 280H396.528ZM398.119 278.466H401.67C402.248 278.466 402.7 278.329 403.027 278.054C403.354 277.779 403.517 277.405 403.517 276.932C403.517 276.368 403.354 275.926 403.027 275.604C402.7 275.277 402.248 275.114 401.67 275.114H398.119V278.466ZM398.119 273.665H400.988C401.438 273.665 401.824 273.603 402.146 273.48C402.468 273.352 402.714 273.172 402.885 272.94C403.06 272.704 403.148 272.424 403.148 272.102C403.148 271.643 402.956 271.283 402.572 271.023C402.189 270.758 401.661 270.625 400.988 270.625H398.119V273.665ZM413.384 280V269.091H415.06V273.835H416.168L420.088 269.091H422.247L417.844 274.347L422.304 280H420.145L416.566 275.398H415.06V280H413.384ZM428.108 280.227C427.124 280.227 426.26 279.993 425.516 279.524C424.778 279.055 424.2 278.4 423.783 277.557C423.371 276.714 423.165 275.729 423.165 274.602C423.165 273.466 423.371 272.474 423.783 271.626C424.2 270.779 424.778 270.121 425.516 269.652C426.26 269.183 427.124 268.949 428.108 268.949C429.093 268.949 429.955 269.183 430.694 269.652C431.437 270.121 432.015 270.779 432.427 271.626C432.843 272.474 433.052 273.466 433.052 274.602C433.052 275.729 432.843 276.714 432.427 277.557C432.015 278.4 431.437 279.055 430.694 279.524C429.955 279.993 429.093 280.227 428.108 280.227ZM428.108 278.722C428.857 278.722 429.472 278.53 429.955 278.146C430.438 277.763 430.796 277.259 431.028 276.634C431.26 276.009 431.376 275.331 431.376 274.602C431.376 273.873 431.26 273.194 431.028 272.564C430.796 271.934 430.438 271.425 429.955 271.037C429.472 270.649 428.857 270.455 428.108 270.455C427.36 270.455 426.745 270.649 426.262 271.037C425.779 271.425 425.421 271.934 425.189 272.564C424.957 273.194 424.841 273.873 424.841 274.602C424.841 275.331 424.957 276.009 425.189 276.634C425.421 277.259 425.779 277.763 426.262 278.146C426.745 278.53 427.36 278.722 428.108 278.722ZM434.644 280V278.438H435.042C435.369 278.438 435.641 278.374 435.859 278.246C436.077 278.113 436.252 277.884 436.384 277.557C436.522 277.225 436.626 276.766 436.697 276.179C436.773 275.587 436.827 274.834 436.86 273.92L437.059 269.091H444.332V280H442.656V270.653H438.65L438.48 274.545C438.442 275.44 438.361 276.229 438.238 276.911C438.12 277.588 437.937 278.156 437.691 278.615C437.45 279.074 437.128 279.42 436.725 279.652C436.323 279.884 435.819 280 435.213 280H434.644ZM451.981 280.227C450.93 280.227 450.023 279.995 449.261 279.531C448.503 279.062 447.919 278.409 447.507 277.571C447.099 276.728 446.896 275.748 446.896 274.631C446.896 273.513 447.099 272.528 447.507 271.676C447.919 270.819 448.491 270.152 449.225 269.673C449.964 269.19 450.826 268.949 451.811 268.949C452.379 268.949 452.94 269.044 453.494 269.233C454.048 269.422 454.552 269.73 455.007 270.156C455.461 270.578 455.823 271.136 456.093 271.832C456.363 272.528 456.498 273.385 456.498 274.403V275.114H448.089V273.665H454.794C454.794 273.049 454.67 272.5 454.424 272.017C454.183 271.534 453.837 271.153 453.387 270.874C452.942 270.594 452.417 270.455 451.811 270.455C451.143 270.455 450.565 270.62 450.078 270.952C449.595 271.278 449.223 271.705 448.963 272.23C448.702 272.756 448.572 273.319 448.572 273.92V274.886C448.572 275.71 448.714 276.409 448.998 276.982C449.287 277.55 449.687 277.983 450.198 278.281C450.71 278.575 451.304 278.722 451.981 278.722C452.421 278.722 452.819 278.66 453.174 278.537C453.534 278.409 453.844 278.22 454.105 277.969C454.365 277.713 454.566 277.396 454.708 277.017L456.328 277.472C456.157 278.021 455.871 278.504 455.468 278.92C455.066 279.332 454.569 279.654 453.977 279.886C453.385 280.114 452.72 280.227 451.981 280.227ZM463.48 280.227C462.457 280.227 461.576 279.986 460.838 279.503C460.099 279.02 459.531 278.355 459.133 277.507C458.735 276.66 458.536 275.691 458.536 274.602C458.536 273.494 458.74 272.517 459.147 271.669C459.559 270.817 460.132 270.152 460.866 269.673C461.605 269.19 462.466 268.949 463.451 268.949C464.218 268.949 464.91 269.091 465.525 269.375C466.141 269.659 466.645 270.057 467.038 270.568C467.431 271.08 467.675 271.676 467.769 272.358H466.093C465.965 271.861 465.681 271.42 465.241 271.037C464.805 270.649 464.218 270.455 463.48 270.455C462.826 270.455 462.253 270.625 461.761 270.966C461.273 271.302 460.892 271.778 460.617 272.393C460.347 273.004 460.213 273.722 460.213 274.545C460.213 275.388 460.345 276.122 460.61 276.747C460.88 277.372 461.259 277.857 461.747 278.203C462.239 278.549 462.817 278.722 463.48 278.722C463.915 278.722 464.311 278.646 464.666 278.494C465.021 278.343 465.321 278.125 465.568 277.841C465.814 277.557 465.989 277.216 466.093 276.818H467.769C467.675 277.462 467.44 278.042 467.066 278.558C466.697 279.07 466.207 279.477 465.596 279.78C464.99 280.078 464.285 280.227 463.48 280.227ZM334.437 306.227C333.452 306.227 332.588 305.993 331.844 305.524C331.106 305.055 330.528 304.4 330.111 303.557C329.699 302.714 329.493 301.729 329.493 300.602C329.493 299.466 329.699 298.474 330.111 297.626C330.528 296.779 331.106 296.121 331.844 295.652C332.588 295.183 333.452 294.949 334.437 294.949C335.421 294.949 336.283 295.183 337.022 295.652C337.765 296.121 338.343 296.779 338.755 297.626C339.171 298.474 339.38 299.466 339.38 300.602C339.38 301.729 339.171 302.714 338.755 303.557C338.343 304.4 337.765 305.055 337.022 305.524C336.283 305.993 335.421 306.227 334.437 306.227ZM334.437 304.722C335.185 304.722 335.8 304.53 336.283 304.146C336.766 303.763 337.124 303.259 337.356 302.634C337.588 302.009 337.704 301.331 337.704 300.602C337.704 299.873 337.588 299.194 337.356 298.564C337.124 297.934 336.766 297.425 336.283 297.037C335.8 296.649 335.185 296.455 334.437 296.455C333.689 296.455 333.073 296.649 332.59 297.037C332.107 297.425 331.75 297.934 331.518 298.564C331.286 299.194 331.17 299.873 331.17 300.602C331.17 301.331 331.286 302.009 331.518 302.634C331.75 303.259 332.107 303.763 332.59 304.146C333.073 304.53 333.689 304.722 334.437 304.722ZM350.035 291L350.887 292.023C350.556 292.345 350.172 292.57 349.737 292.697C349.301 292.825 348.809 292.903 348.259 292.932C347.71 292.96 347.099 292.989 346.427 293.017C345.669 293.045 345.042 293.23 344.545 293.571C344.048 293.912 343.664 294.404 343.394 295.048C343.124 295.692 342.952 296.483 342.876 297.42H343.018C343.387 296.739 343.899 296.237 344.552 295.915C345.205 295.593 345.906 295.432 346.654 295.432C347.507 295.432 348.274 295.631 348.955 296.028C349.637 296.426 350.177 297.016 350.575 297.797C350.972 298.578 351.171 299.542 351.171 300.688C351.171 301.829 350.968 302.813 350.561 303.642C350.158 304.471 349.592 305.11 348.863 305.56C348.139 306.005 347.289 306.227 346.313 306.227C345.338 306.227 344.483 305.998 343.749 305.538C343.016 305.074 342.445 304.388 342.038 303.479C341.631 302.565 341.427 301.436 341.427 300.091V298.926C341.427 296.497 341.839 294.655 342.663 293.401C343.491 292.146 344.737 291.497 346.399 291.455C346.986 291.436 347.509 291.431 347.968 291.44C348.427 291.45 348.828 291.429 349.169 291.376C349.509 291.324 349.798 291.199 350.035 291ZM346.313 304.722C346.972 304.722 347.537 304.556 348.011 304.224C348.489 303.893 348.856 303.427 349.112 302.825C349.367 302.219 349.495 301.507 349.495 300.688C349.495 299.892 349.365 299.215 349.105 298.656C348.849 298.098 348.482 297.671 348.004 297.378C347.526 297.084 346.953 296.938 346.285 296.938C345.797 296.938 345.359 297.02 344.971 297.186C344.583 297.352 344.251 297.596 343.977 297.918C343.702 298.24 343.489 298.633 343.338 299.097C343.191 299.561 343.113 300.091 343.103 300.688C343.103 301.909 343.39 302.887 343.963 303.621C344.535 304.355 345.319 304.722 346.313 304.722ZM358.167 306.227C357.144 306.227 356.264 305.986 355.525 305.503C354.786 305.02 354.218 304.355 353.82 303.507C353.423 302.66 353.224 301.691 353.224 300.602C353.224 299.494 353.427 298.517 353.835 297.669C354.247 296.817 354.82 296.152 355.553 295.673C356.292 295.19 357.154 294.949 358.139 294.949C358.906 294.949 359.597 295.091 360.213 295.375C360.828 295.659 361.332 296.057 361.725 296.568C362.118 297.08 362.362 297.676 362.457 298.358H360.781C360.653 297.861 360.369 297.42 359.928 297.037C359.493 296.649 358.906 296.455 358.167 296.455C357.514 296.455 356.941 296.625 356.448 296.966C355.961 297.302 355.579 297.778 355.305 298.393C355.035 299.004 354.9 299.722 354.9 300.545C354.9 301.388 355.033 302.122 355.298 302.747C355.568 303.372 355.946 303.857 356.434 304.203C356.927 304.549 357.504 304.722 358.167 304.722C358.603 304.722 358.998 304.646 359.353 304.494C359.708 304.343 360.009 304.125 360.255 303.841C360.501 303.557 360.677 303.216 360.781 302.818H362.457C362.362 303.462 362.128 304.042 361.754 304.558C361.384 305.07 360.894 305.477 360.284 305.78C359.677 306.078 358.972 306.227 358.167 306.227ZM363.941 306V304.438H364.339C364.666 304.438 364.938 304.374 365.156 304.246C365.374 304.113 365.549 303.884 365.681 303.557C365.819 303.225 365.923 302.766 365.994 302.179C366.07 301.587 366.124 300.834 366.157 299.92L366.356 295.091H373.629V306H371.953V296.653H367.947L367.776 300.545C367.739 301.44 367.658 302.229 367.535 302.911C367.417 303.588 367.234 304.156 366.988 304.615C366.747 305.074 366.425 305.42 366.022 305.652C365.62 305.884 365.115 306 364.509 306H363.941ZM377.393 310.091C377.109 310.091 376.856 310.067 376.633 310.02C376.41 309.977 376.257 309.935 376.171 309.892L376.597 308.415C377.005 308.519 377.365 308.557 377.677 308.528C377.99 308.5 378.267 308.36 378.508 308.109C378.754 307.863 378.979 307.463 379.183 306.909L379.495 306.057L375.461 295.091H377.279L380.291 303.784H380.404L383.416 295.091H385.234L380.603 307.591C380.395 308.154 380.137 308.621 379.829 308.99C379.521 309.364 379.164 309.641 378.757 309.821C378.354 310.001 377.9 310.091 377.393 310.091ZM386.764 306L391.196 300.46L386.821 295.091H388.81L392.446 299.75H393.355V295.091H395.031V299.75H395.912L399.548 295.091H401.537L397.191 300.46L401.594 306H399.577L395.884 301.312H395.031V306H393.355V301.312H392.503L388.781 306H386.764ZM405.665 303.528L410.921 295.091H412.853V306H411.177V297.562L405.949 306H403.989V295.091H405.665V303.528ZM415.923 306V295.091H420.383C421.557 295.091 422.49 295.356 423.181 295.886C423.873 296.417 424.218 297.117 424.218 297.989C424.218 298.652 424.022 299.165 423.629 299.53C423.236 299.89 422.731 300.134 422.116 300.261C422.518 300.318 422.909 300.46 423.288 300.688C423.671 300.915 423.989 301.227 424.24 301.625C424.49 302.018 424.616 302.501 424.616 303.074C424.616 303.633 424.474 304.132 424.19 304.572C423.906 305.013 423.499 305.361 422.968 305.616C422.438 305.872 421.803 306 421.065 306H415.923ZM417.514 304.466H421.065C421.642 304.466 422.095 304.329 422.421 304.054C422.748 303.779 422.911 303.405 422.911 302.932C422.911 302.368 422.748 301.926 422.421 301.604C422.095 301.277 421.642 301.114 421.065 301.114H417.514V304.466ZM417.514 299.665H420.383C420.833 299.665 421.219 299.603 421.541 299.48C421.863 299.352 422.109 299.172 422.279 298.94C422.454 298.704 422.542 298.424 422.542 298.102C422.542 297.643 422.35 297.283 421.967 297.023C421.583 296.758 421.055 296.625 420.383 296.625H417.514V299.665ZM430.363 306.256C429.672 306.256 429.045 306.125 428.481 305.865C427.918 305.6 427.47 305.219 427.139 304.722C426.808 304.22 426.642 303.614 426.642 302.903C426.642 302.278 426.765 301.772 427.011 301.384C427.257 300.991 427.586 300.683 427.998 300.46C428.41 300.238 428.865 300.072 429.362 299.963C429.864 299.849 430.368 299.759 430.875 299.693C431.538 299.608 432.075 299.544 432.487 299.501C432.904 299.454 433.207 299.376 433.396 299.267C433.59 299.158 433.687 298.969 433.687 298.699V298.642C433.687 297.941 433.496 297.397 433.112 297.009C432.733 296.62 432.158 296.426 431.386 296.426C430.586 296.426 429.959 296.601 429.504 296.952C429.05 297.302 428.73 297.676 428.545 298.074L426.954 297.506C427.238 296.843 427.617 296.327 428.091 295.957C428.569 295.583 429.09 295.323 429.653 295.176C430.221 295.025 430.78 294.949 431.329 294.949C431.68 294.949 432.082 294.991 432.537 295.077C432.996 295.157 433.439 295.325 433.865 295.581C434.296 295.837 434.653 296.223 434.937 296.739C435.221 297.255 435.363 297.946 435.363 298.812V306H433.687V304.523H433.602C433.488 304.759 433.299 305.013 433.034 305.283C432.769 305.553 432.416 305.782 431.976 305.972C431.535 306.161 430.998 306.256 430.363 306.256ZM430.619 304.75C431.282 304.75 431.841 304.62 432.295 304.359C432.755 304.099 433.1 303.763 433.332 303.351C433.569 302.939 433.687 302.506 433.687 302.051V300.517C433.616 300.602 433.46 300.68 433.219 300.751C432.982 300.818 432.707 300.877 432.395 300.929C432.087 300.976 431.786 301.019 431.493 301.057C431.204 301.09 430.97 301.118 430.79 301.142C430.354 301.199 429.947 301.291 429.568 301.419C429.194 301.542 428.891 301.729 428.659 301.98C428.432 302.226 428.318 302.562 428.318 302.989C428.318 303.571 428.533 304.011 428.964 304.31C429.4 304.603 429.952 304.75 430.619 304.75ZM442.997 306.227C441.945 306.227 441.039 305.995 440.276 305.531C439.519 305.062 438.934 304.409 438.522 303.571C438.115 302.728 437.911 301.748 437.911 300.631C437.911 299.513 438.115 298.528 438.522 297.676C438.934 296.819 439.507 296.152 440.241 295.673C440.98 295.19 441.841 294.949 442.826 294.949C443.394 294.949 443.955 295.044 444.509 295.233C445.063 295.422 445.568 295.73 446.022 296.156C446.477 296.578 446.839 297.136 447.109 297.832C447.379 298.528 447.514 299.385 447.514 300.403V301.114H439.105V299.665H445.809C445.809 299.049 445.686 298.5 445.44 298.017C445.198 297.534 444.853 297.153 444.403 296.874C443.958 296.594 443.432 296.455 442.826 296.455C442.159 296.455 441.581 296.62 441.093 296.952C440.61 297.278 440.239 297.705 439.978 298.23C439.718 298.756 439.588 299.319 439.588 299.92V300.886C439.588 301.71 439.73 302.409 440.014 302.982C440.302 303.55 440.703 303.983 441.214 304.281C441.725 304.575 442.32 304.722 442.997 304.722C443.437 304.722 443.835 304.66 444.19 304.537C444.55 304.409 444.86 304.22 445.12 303.969C445.381 303.713 445.582 303.396 445.724 303.017L447.343 303.472C447.173 304.021 446.886 304.504 446.484 304.92C446.081 305.332 445.584 305.654 444.992 305.886C444.401 306.114 443.735 306.227 442.997 306.227ZM456.029 303.727L459.836 295.091H461.427L456.711 306H455.347L450.717 295.091H452.279L456.029 303.727ZM451.74 295.091V306H450.063V295.091H451.74ZM460.319 306V295.091H461.995V306H460.319Z" fill="#151515"/>
<path d="M396.691 54.5568C393.722 54.5568 391.083 54.0199 388.777 52.946C386.47 51.8722 384.647 50.3939 383.308 48.5114C381.982 46.6288 381.293 44.4678 381.24 42.0284H390.785C390.865 43.5265 391.475 44.733 392.615 45.6477C393.755 46.5492 395.114 47 396.691 47C397.924 47 399.018 46.7282 399.973 46.1847C400.927 45.6411 401.676 44.8788 402.22 43.8977C402.763 42.9034 403.029 41.7633 403.015 40.4773C403.029 39.1648 402.757 38.018 402.2 37.0369C401.656 36.0559 400.901 35.2936 399.933 34.75C398.978 34.1932 397.878 33.9148 396.632 33.9148C395.452 33.9015 394.332 34.16 393.271 34.6903C392.224 35.2206 391.428 35.9432 390.885 36.858L382.194 35.2273L383.964 13.2727H410.095V21.2074H392.058L391.123 30.8125H391.362C392.038 29.6856 393.125 28.7576 394.623 28.0284C396.135 27.286 397.851 26.9148 399.774 26.9148C402.213 26.9148 404.387 27.4848 406.297 28.625C408.219 29.7519 409.73 31.3163 410.831 33.3182C411.944 35.3201 412.501 37.6136 412.501 40.1989C412.501 42.9962 411.838 45.4754 410.512 47.6364C409.2 49.7973 407.357 51.4943 404.984 52.7273C402.624 53.947 399.86 54.5568 396.691 54.5568Z" fill="#FFBC00"/>
<path d="M396.49 238.557C394.262 238.557 392.128 238.199 390.086 237.483C388.045 236.754 386.228 235.6 384.637 234.023C383.047 232.432 381.794 230.35 380.879 227.778C379.964 225.193 379.513 222.045 379.527 218.332C379.54 214.978 379.951 211.969 380.76 209.304C381.568 206.626 382.722 204.352 384.22 202.483C385.731 200.614 387.534 199.188 389.629 198.207C391.737 197.213 394.09 196.716 396.689 196.716C399.539 196.716 402.051 197.273 404.225 198.386C406.413 199.487 408.163 200.972 409.475 202.841C410.788 204.697 411.564 206.765 411.802 209.045H402.118C401.826 207.759 401.183 206.785 400.189 206.122C399.208 205.446 398.041 205.108 396.689 205.108C394.196 205.108 392.333 206.188 391.1 208.349C389.881 210.51 389.258 213.401 389.231 217.02H389.49C390.047 215.8 390.849 214.753 391.896 213.878C392.943 213.003 394.143 212.333 395.495 211.869C396.861 211.392 398.306 211.153 399.831 211.153C402.27 211.153 404.424 211.717 406.294 212.844C408.163 213.971 409.628 215.515 410.689 217.477C411.749 219.426 412.273 221.66 412.26 224.179C412.273 227.016 411.61 229.522 410.271 231.696C408.932 233.857 407.076 235.541 404.703 236.747C402.343 237.954 399.605 238.557 396.49 238.557ZM396.43 231C397.636 231 398.717 230.715 399.672 230.145C400.626 229.575 401.375 228.799 401.919 227.818C402.462 226.837 402.727 225.73 402.714 224.497C402.727 223.251 402.462 222.144 401.919 221.176C401.388 220.208 400.646 219.439 399.691 218.869C398.75 218.299 397.67 218.014 396.45 218.014C395.562 218.014 394.733 218.18 393.964 218.511C393.195 218.843 392.526 219.307 391.956 219.903C391.399 220.487 390.961 221.176 390.643 221.972C390.325 222.754 390.159 223.602 390.146 224.517C390.159 225.723 390.438 226.817 390.981 227.798C391.525 228.779 392.267 229.562 393.208 230.145C394.15 230.715 395.224 231 396.43 231Z" fill="#FFBC00"/>
<line x1="272.5" y1="2.18557e-08" x2="272.5" y2="328" stroke="#C7C7C7"/>
<line y1="153.5" x2="520" y2="153.5" stroke="#C7C7C7"/>
<circle cx="272.5" cy="153.5" r="12" fill="white" stroke="#C7C7C7"/>
</svg>
