<svg width="130" height="86" viewBox="0 0 130 86" fill="none" xmlns="http://www.w3.org/2000/svg">
<path d="M57.5737 27V23.4602L65.0012 16.9574C65.5581 16.4536 66.032 15.9929 66.4231 15.5753C66.8142 15.151 67.1125 14.7268 67.318 14.3026C67.5235 13.8717 67.6262 13.4044 67.6262 12.9006C67.6262 12.3371 67.5036 11.8565 67.2583 11.4588C67.0131 11.0545 66.675 10.7429 66.2441 10.5241C65.8133 10.3054 65.3194 10.196 64.7626 10.196C64.1992 10.196 63.7053 10.312 63.2811 10.544C62.8568 10.7694 62.5254 11.0975 62.2868 11.5284C62.0547 11.9593 61.9387 12.483 61.9387 13.0994H57.2754C57.2754 11.714 57.5869 10.5175 58.21 9.50994C58.8332 8.50237 59.7082 7.7268 60.835 7.18324C61.9686 6.63305 63.2844 6.35795 64.7825 6.35795C66.327 6.35795 67.6693 6.61648 68.8095 7.13352C69.9496 7.65057 70.8313 8.37311 71.4544 9.30114C72.0841 10.2225 72.399 11.2931 72.399 12.5128C72.399 13.2884 72.2432 14.0573 71.9316 14.8196C71.6201 15.5819 71.06 16.4238 70.2512 17.3452C69.4492 18.2666 68.309 19.3703 66.8308 20.6562L64.3947 22.9034V23.0327H72.6475V27H57.5737Z" fill="#FFBC00"/>
<path d="M14.9817 43.4545V44.392H11.9476V50H10.9419V43.4545H14.9817ZM18.769 50.1364C18.1781 50.1364 17.6596 49.9957 17.2136 49.7145C16.7704 49.4332 16.4238 49.0398 16.1738 48.5341C15.9267 48.0284 15.8031 47.4375 15.8031 46.7614C15.8031 46.0795 15.9267 45.4844 16.1738 44.9759C16.4238 44.4673 16.7704 44.0724 17.2136 43.7912C17.6596 43.5099 18.1781 43.3693 18.769 43.3693C19.3599 43.3693 19.877 43.5099 20.3201 43.7912C20.7662 44.0724 21.1127 44.4673 21.3599 44.9759C21.6099 45.4844 21.7349 46.0795 21.7349 46.7614C21.7349 47.4375 21.6099 48.0284 21.3599 48.5341C21.1127 49.0398 20.7662 49.4332 20.3201 49.7145C19.877 49.9957 19.3599 50.1364 18.769 50.1364ZM18.769 49.233C19.2179 49.233 19.5872 49.1179 19.877 48.8878C20.1667 48.6577 20.3812 48.3551 20.5204 47.9801C20.6596 47.6051 20.7292 47.1989 20.7292 46.7614C20.7292 46.3239 20.6596 45.9162 20.5204 45.5384C20.3812 45.1605 20.1667 44.8551 19.877 44.6222C19.5872 44.3892 19.2179 44.2727 18.769 44.2727C18.3201 44.2727 17.9508 44.3892 17.661 44.6222C17.3713 44.8551 17.1568 45.1605 17.0176 45.5384C16.8784 45.9162 16.8088 46.3239 16.8088 46.7614C16.8088 47.1989 16.8784 47.6051 17.0176 47.9801C17.1568 48.3551 17.3713 48.6577 17.661 48.8878C17.9508 49.1179 18.3201 49.233 18.769 49.233ZM22.5712 51.875V49.0625H23.1167C23.2502 48.9233 23.3652 48.7727 23.4618 48.6108C23.5584 48.4489 23.6422 48.2571 23.7132 48.0355C23.7871 47.8111 23.8496 47.5384 23.9007 47.2173C23.9519 46.8935 23.9973 46.5028 24.0371 46.0455L24.2587 43.4545H28.4178V49.0625H29.4235V51.875H28.4178V50H23.5769V51.875H22.5712ZM24.2587 49.0625H27.4121V44.392H25.1962L25.0257 46.0455C24.9547 46.7301 24.8667 47.3281 24.7615 47.8395C24.6564 48.3509 24.4888 48.7585 24.2587 49.0625ZM32.6845 50.1534C32.2697 50.1534 31.8933 50.0753 31.5552 49.919C31.2172 49.7599 30.9487 49.5312 30.7498 49.233C30.551 48.9318 30.4515 48.5682 30.4515 48.142C30.4515 47.767 30.5254 47.4631 30.6731 47.2301C30.8208 46.9943 31.0183 46.8097 31.2654 46.6761C31.5126 46.5426 31.7853 46.4432 32.0836 46.3778C32.3848 46.3097 32.6873 46.2557 32.9913 46.2159C33.389 46.1648 33.7115 46.1264 33.9586 46.1009C34.2086 46.0724 34.3904 46.0256 34.5041 45.9602C34.6206 45.8949 34.6788 45.7812 34.6788 45.6193V45.5852C34.6788 45.1648 34.5637 44.8381 34.3336 44.6051C34.1064 44.3722 33.7612 44.2557 33.2981 44.2557C32.818 44.2557 32.4416 44.3608 32.1689 44.571C31.8961 44.7812 31.7044 45.0057 31.5936 45.2443L30.639 44.9034C30.8095 44.5057 31.0368 44.196 31.3208 43.9744C31.6078 43.75 31.9203 43.5937 32.2583 43.5057C32.5993 43.4148 32.9345 43.3693 33.264 43.3693C33.4743 43.3693 33.7157 43.3949 33.9885 43.446C34.264 43.4943 34.5297 43.5952 34.7853 43.7486C35.0439 43.902 35.2583 44.1335 35.4288 44.4432C35.5993 44.7528 35.6845 45.1676 35.6845 45.6875V50H34.6788V49.1136H34.6277C34.5595 49.2557 34.4458 49.4077 34.2868 49.5696C34.1277 49.7315 33.916 49.8693 33.6518 49.983C33.3876 50.0966 33.0652 50.1534 32.6845 50.1534ZM32.8379 49.25C33.2356 49.25 33.5708 49.1719 33.8436 49.0156C34.1191 48.8594 34.3265 48.6577 34.4657 48.4105C34.6078 48.1634 34.6788 47.9034 34.6788 47.6307V46.7102C34.6362 46.7614 34.5424 46.8082 34.3975 46.8509C34.2555 46.8906 34.0907 46.9261 33.9032 46.9574C33.7186 46.9858 33.5382 47.0114 33.362 47.0341C33.1887 47.054 33.0481 47.071 32.9402 47.0852C32.6788 47.1193 32.4345 47.1747 32.2072 47.2514C31.9828 47.3253 31.801 47.4375 31.6618 47.5881C31.5254 47.7358 31.4572 47.9375 31.4572 48.1932C31.4572 48.5426 31.5865 48.8068 31.845 48.9858C32.1064 49.1619 32.4373 49.25 32.8379 49.25ZM40.8951 52.4545V43.4545H41.8667V44.4943H41.986C42.0598 44.3807 42.1621 44.2358 42.2928 44.0597C42.4263 43.8807 42.6167 43.7216 42.8638 43.5824C43.1138 43.4403 43.4519 43.3693 43.878 43.3693C44.4292 43.3693 44.915 43.5071 45.3354 43.7827C45.7559 44.0582 46.084 44.4489 46.3198 44.9545C46.5556 45.4602 46.6735 46.0568 46.6735 46.7443C46.6735 47.4375 46.5556 48.0384 46.3198 48.5469C46.084 49.0526 45.7573 49.4446 45.3397 49.723C44.9221 49.9986 44.4405 50.1364 43.8951 50.1364C43.4746 50.1364 43.138 50.0668 42.8851 49.9276C42.6323 49.7855 42.4377 49.625 42.3013 49.446C42.165 49.2642 42.0598 49.1136 41.986 48.9943H41.9007V52.4545H40.8951ZM41.8837 46.7273C41.8837 47.2216 41.9561 47.6577 42.101 48.0355C42.2459 48.4105 42.4576 48.7045 42.736 48.9176C43.0144 49.1278 43.3553 49.233 43.7587 49.233C44.1792 49.233 44.53 49.1222 44.8113 48.9006C45.0953 48.6761 45.3084 48.375 45.4505 47.9972C45.5953 47.6165 45.6678 47.1932 45.6678 46.7273C45.6678 46.267 45.5968 45.8523 45.4547 45.483C45.3155 45.1108 45.1039 44.8168 44.8198 44.6009C44.5385 44.3821 44.1848 44.2727 43.7587 44.2727C43.3496 44.2727 43.0059 44.3764 42.7275 44.5838C42.449 44.7884 42.2388 45.0753 42.0968 45.4446C41.9547 45.8111 41.8837 46.2386 41.8837 46.7273ZM50.9519 50.1364C50.3212 50.1364 49.7772 49.9972 49.3198 49.7188C48.8652 49.4375 48.5144 49.0455 48.2672 48.5426C48.0229 48.0369 47.9007 47.4489 47.9007 46.7784C47.9007 46.108 48.0229 45.517 48.2672 45.0057C48.5144 44.4915 48.8581 44.0909 49.2985 43.804C49.7417 43.5142 50.2587 43.3693 50.8496 43.3693C51.1905 43.3693 51.5272 43.4261 51.8596 43.5398C52.1919 43.6534 52.4945 43.8381 52.7672 44.0938C53.04 44.3466 53.2573 44.6818 53.4192 45.0994C53.5811 45.517 53.6621 46.0312 53.6621 46.642V47.0682H48.6167V46.1989H52.6394C52.6394 45.8295 52.5655 45.5 52.4178 45.2102C52.2729 44.9205 52.0655 44.6918 51.7956 44.5241C51.5286 44.3565 51.2132 44.2727 50.8496 44.2727C50.449 44.2727 50.1025 44.3722 49.8098 44.571C49.5201 44.767 49.2971 45.0227 49.1408 45.3381C48.9846 45.6534 48.9064 45.9915 48.9064 46.3523V46.9318C48.9064 47.4261 48.9917 47.8452 49.1621 48.1889C49.3354 48.5298 49.5755 48.7898 49.8823 48.9688C50.1891 49.1449 50.5456 49.233 50.9519 49.233C51.2161 49.233 51.4547 49.196 51.6678 49.1222C51.8837 49.0455 52.0698 48.9318 52.226 48.7812C52.3823 48.6278 52.503 48.4375 52.5882 48.2102L53.5598 48.483C53.4576 48.8125 53.2857 49.1023 53.0442 49.3523C52.8027 49.5994 52.5044 49.7926 52.1493 49.9318C51.7942 50.0682 51.3951 50.1364 50.9519 50.1364ZM58.7715 48.6364L61.0556 43.4545H62.0101L59.1806 50H58.3624L55.584 43.4545H56.5215L58.7715 48.6364ZM56.1976 43.4545V50H55.1919V43.4545H56.1976ZM61.3453 50V43.4545H62.351V50H61.3453ZM66.851 50.1364C66.2601 50.1364 65.7417 49.9957 65.2956 49.7145C64.8525 49.4332 64.5059 49.0398 64.2559 48.5341C64.0087 48.0284 63.8851 47.4375 63.8851 46.7614C63.8851 46.0795 64.0087 45.4844 64.2559 44.9759C64.5059 44.4673 64.8525 44.0724 65.2956 43.7912C65.7417 43.5099 66.2601 43.3693 66.851 43.3693C67.4419 43.3693 67.959 43.5099 68.4022 43.7912C68.8482 44.0724 69.1948 44.4673 69.4419 44.9759C69.6919 45.4844 69.8169 46.0795 69.8169 46.7614C69.8169 47.4375 69.6919 48.0284 69.4419 48.5341C69.1948 49.0398 68.8482 49.4332 68.4022 49.7145C67.959 49.9957 67.4419 50.1364 66.851 50.1364ZM66.851 49.233C67.2999 49.233 67.6692 49.1179 67.959 48.8878C68.2488 48.6577 68.4632 48.3551 68.6025 47.9801C68.7417 47.6051 68.8113 47.1989 68.8113 46.7614C68.8113 46.3239 68.7417 45.9162 68.6025 45.5384C68.4632 45.1605 68.2488 44.8551 67.959 44.6222C67.6692 44.3892 67.2999 44.2727 66.851 44.2727C66.4022 44.2727 66.0328 44.3892 65.7431 44.6222C65.4533 44.8551 65.2388 45.1605 65.0996 45.5384C64.9604 45.9162 64.8908 46.3239 64.8908 46.7614C64.8908 47.1989 64.9604 47.6051 65.0996 47.9801C65.2388 48.3551 65.4533 48.6577 65.7431 48.8878C66.0328 49.1179 66.4022 49.233 66.851 49.233ZM75.7328 46.267V47.2045H72.1191V46.267H75.7328ZM72.3578 43.4545V50H71.3521V43.4545H72.3578ZM76.4998 43.4545V50H75.4941V43.4545H76.4998ZM77.4458 44.392V43.4545H82.764V44.392H80.6163V50H79.6106V44.392H77.4458ZM85.2367 48.517L88.3901 43.4545H89.5492V50H88.5435V44.9375L85.4071 50H84.231V43.4545H85.2367V48.517ZM91.3912 52.4545V43.4545H92.3627V44.4943H92.4821C92.5559 44.3807 92.6582 44.2358 92.7889 44.0597C92.9224 43.8807 93.1127 43.7216 93.3599 43.5824C93.6099 43.4403 93.948 43.3693 94.3741 43.3693C94.9252 43.3693 95.411 43.5071 95.8315 43.7827C96.252 44.0582 96.5801 44.4489 96.8159 44.9545C97.0517 45.4602 97.1696 46.0568 97.1696 46.7443C97.1696 47.4375 97.0517 48.0384 96.8159 48.5469C96.5801 49.0526 96.2534 49.4446 95.8358 49.723C95.4181 49.9986 94.9366 50.1364 94.3912 50.1364C93.9707 50.1364 93.6341 50.0668 93.3812 49.9276C93.1284 49.7855 92.9338 49.625 92.7974 49.446C92.661 49.2642 92.5559 49.1136 92.4821 48.9943H92.3968V52.4545H91.3912ZM92.3798 46.7273C92.3798 47.2216 92.4522 47.6577 92.5971 48.0355C92.742 48.4105 92.9537 48.7045 93.2321 48.9176C93.5105 49.1278 93.8514 49.233 94.2548 49.233C94.6752 49.233 95.0261 49.1222 95.3074 48.9006C95.5914 48.6761 95.8045 48.375 95.9466 47.9972C96.0914 47.6165 96.1639 47.1932 96.1639 46.7273C96.1639 46.267 96.0929 45.8523 95.9508 45.483C95.8116 45.1108 95.6 44.8168 95.3159 44.6009C95.0346 44.3821 94.6809 44.2727 94.2548 44.2727C93.8457 44.2727 93.502 44.3764 93.2235 44.5838C92.9451 44.7884 92.7349 45.0753 92.5929 45.4446C92.4508 45.8111 92.3798 46.2386 92.3798 46.7273ZM99.117 52.4545C98.9466 52.4545 98.7946 52.4403 98.661 52.4119C98.5275 52.3864 98.4352 52.3608 98.3841 52.3352L98.6397 51.4489C98.8841 51.5114 99.1 51.5341 99.2875 51.517C99.475 51.5 99.6412 51.4162 99.786 51.2656C99.9338 51.1179 100.069 50.8778 100.191 50.5455L100.378 50.0341L97.9579 43.4545H99.0488L100.856 48.6705H100.924L102.731 43.4545H103.822L101.043 50.9545C100.918 51.2926 100.763 51.5724 100.579 51.794C100.394 52.0185 100.18 52.1847 99.9352 52.2926C99.6937 52.4006 99.421 52.4545 99.117 52.4545ZM107.659 50.1364C107.028 50.1364 106.484 49.9972 106.027 49.7188C105.572 49.4375 105.221 49.0455 104.974 48.5426C104.73 48.0369 104.608 47.4489 104.608 46.7784C104.608 46.108 104.73 45.517 104.974 45.0057C105.221 44.4915 105.565 44.0909 106.006 43.804C106.449 43.5142 106.966 43.3693 107.557 43.3693C107.898 43.3693 108.234 43.4261 108.567 43.5398C108.899 43.6534 109.202 43.8381 109.474 44.0938C109.747 44.3466 109.964 44.6818 110.126 45.0994C110.288 45.517 110.369 46.0312 110.369 46.642V47.0682H105.324V46.1989H109.346C109.346 45.8295 109.273 45.5 109.125 45.2102C108.98 44.9205 108.773 44.6918 108.503 44.5241C108.236 44.3565 107.92 44.2727 107.557 44.2727C107.156 44.2727 106.809 44.3722 106.517 44.571C106.227 44.767 106.004 45.0227 105.848 45.3381C105.692 45.6534 105.613 45.9915 105.613 46.3523V46.9318C105.613 47.4261 105.699 47.8452 105.869 48.1889C106.042 48.5298 106.282 48.7898 106.589 48.9688C106.896 49.1449 107.253 49.233 107.659 49.233C107.923 49.233 108.162 49.196 108.375 49.1222C108.591 49.0455 108.777 48.9318 108.933 48.7812C109.089 48.6278 109.21 48.4375 109.295 48.2102L110.267 48.483C110.165 48.8125 109.993 49.1023 109.751 49.3523C109.51 49.5994 109.211 49.7926 108.856 49.9318C108.501 50.0682 108.102 50.1364 107.659 50.1364ZM115.479 48.6364L117.763 43.4545H118.717L115.888 50H115.069L112.291 43.4545H113.229L115.479 48.6364ZM112.905 43.4545V50H111.899V43.4545H112.905ZM118.052 50V43.4545H119.058V50H118.052ZM16.4476 64.517L19.601 59.4545H20.7601V66H19.7544V60.9375L16.6181 66H15.4419V59.4545H16.4476V64.517ZM29.5566 64.6364L31.8407 59.4545H32.7953L29.9657 66H29.1475L26.3691 59.4545H27.3066L29.5566 64.6364ZM26.9828 59.4545V66H25.9771V59.4545H26.9828ZM32.1305 66V59.4545H33.1362V66H32.1305ZM37.6362 66.1364C37.0453 66.1364 36.5268 65.9957 36.0808 65.7145C35.6376 65.4332 35.291 65.0398 35.041 64.5341C34.7939 64.0284 34.6703 63.4375 34.6703 62.7614C34.6703 62.0795 34.7939 61.4844 35.041 60.9759C35.291 60.4673 35.6376 60.0724 36.0808 59.7912C36.5268 59.5099 37.0453 59.3693 37.6362 59.3693C38.2271 59.3693 38.7441 59.5099 39.1873 59.7912C39.6333 60.0724 39.9799 60.4673 40.2271 60.9759C40.4771 61.4844 40.6021 62.0795 40.6021 62.7614C40.6021 63.4375 40.4771 64.0284 40.2271 64.5341C39.9799 65.0398 39.6333 65.4332 39.1873 65.7145C38.7441 65.9957 38.2271 66.1364 37.6362 66.1364ZM37.6362 65.233C38.085 65.233 38.4544 65.1179 38.7441 64.8878C39.0339 64.6577 39.2484 64.3551 39.3876 63.9801C39.5268 63.6051 39.5964 63.1989 39.5964 62.7614C39.5964 62.3239 39.5268 61.9162 39.3876 61.5384C39.2484 61.1605 39.0339 60.8551 38.7441 60.6222C38.4544 60.3892 38.085 60.2727 37.6362 60.2727C37.1873 60.2727 36.818 60.3892 36.5282 60.6222C36.2385 60.8551 36.024 61.1605 35.8848 61.5384C35.7456 61.9162 35.676 62.3239 35.676 62.7614C35.676 63.1989 35.7456 63.6051 35.8848 63.9801C36.024 64.3551 36.2385 64.6577 36.5282 64.8878C36.818 65.1179 37.1873 65.233 37.6362 65.233ZM41.4384 67.875V65.0625H41.9838C42.1174 64.9233 42.2324 64.7727 42.329 64.6108C42.4256 64.4489 42.5094 64.2571 42.5804 64.0355C42.6543 63.8111 42.7168 63.5384 42.7679 63.2173C42.8191 62.8935 42.8645 62.5028 42.9043 62.0455L43.1259 59.4545H47.285V65.0625H48.2907V67.875H47.285V66H42.4441V67.875H41.4384ZM43.1259 65.0625H46.2793V60.392H44.0634L43.8929 62.0455C43.8219 62.7301 43.7338 63.3281 43.6287 63.8395C43.5236 64.3509 43.356 64.7585 43.1259 65.0625ZM50.6312 64.517L53.7846 59.4545H54.9437V66H53.938V60.9375L50.8017 66H49.6255V59.4545H50.6312V64.517ZM59.4448 68.233V57.2727H60.4505V68.233H59.4448ZM59.4448 66.1364C59.0016 66.1364 58.5982 66.0568 58.2346 65.8977C57.8709 65.7358 57.5584 65.5071 57.2971 65.2116C57.0357 64.9134 56.834 64.5568 56.6919 64.142C56.5499 63.7273 56.4789 63.267 56.4789 62.7614C56.4789 62.25 56.5499 61.7869 56.6919 61.3722C56.834 60.9545 57.0357 60.5966 57.2971 60.2983C57.5584 60 57.8709 59.7713 58.2346 59.6122C58.5982 59.4503 59.0016 59.3693 59.4448 59.3693H59.7516V66.1364H59.4448ZM59.4448 65.233H59.6152V60.2727H59.4448C59.1096 60.2727 58.8184 60.3409 58.5712 60.4773C58.324 60.6108 58.1195 60.794 57.9576 61.027C57.7985 61.2571 57.6792 61.5213 57.5996 61.8196C57.5229 62.1179 57.4846 62.4318 57.4846 62.7614C57.4846 63.1989 57.5542 63.6051 57.6934 63.9801C57.8326 64.3551 58.0471 64.6577 58.3368 64.8878C58.6266 65.1179 58.9959 65.233 59.4448 65.233ZM60.4505 66.1364H60.1436V59.3693H60.4505C60.8936 59.3693 61.2971 59.4503 61.6607 59.6122C62.0243 59.7713 62.3368 60 62.5982 60.2983C62.8596 60.5966 63.0613 60.9545 63.2033 61.3722C63.3453 61.7869 63.4164 62.25 63.4164 62.7614C63.4164 63.267 63.3453 63.7273 63.2033 64.142C63.0613 64.5568 62.8596 64.9134 62.5982 65.2116C62.3368 65.5071 62.0243 65.7358 61.6607 65.8977C61.2971 66.0568 60.8936 66.1364 60.4505 66.1364ZM60.4505 65.233C60.7885 65.233 61.0797 65.1676 61.324 65.0369C61.5712 64.9034 61.7743 64.7216 61.9334 64.4915C62.0953 64.2585 62.2147 63.9943 62.2914 63.6989C62.3709 63.4006 62.4107 63.0881 62.4107 62.7614C62.4107 62.3239 62.3411 61.9162 62.2019 61.5384C62.0627 61.1605 61.8482 60.8551 61.5584 60.6222C61.2686 60.3892 60.8993 60.2727 60.4505 60.2727H60.28V65.233H60.4505ZM65.9593 64.517L69.1127 59.4545H70.2718V66H69.2662V60.9375L66.1298 66H64.9537V59.4545H65.9593V64.517ZM77.2615 59.4545V65.0625H78.182V68.1136H77.1763V66H72.1138V59.4545H73.1195V65.0625H76.2559V59.4545H77.2615ZM80.7367 64.517L83.8901 59.4545H85.0492V66H84.0435V60.9375L80.9071 66H79.731V59.4545H80.7367V64.517ZM86.8912 68.4545V59.4545H87.8627V60.4943H87.9821C88.0559 60.3807 88.1582 60.2358 88.2889 60.0597C88.4224 59.8807 88.6127 59.7216 88.8599 59.5824C89.1099 59.4403 89.448 59.3693 89.8741 59.3693C90.4252 59.3693 90.911 59.5071 91.3315 59.7827C91.752 60.0582 92.0801 60.4489 92.3159 60.9545C92.5517 61.4602 92.6696 62.0568 92.6696 62.7443C92.6696 63.4375 92.5517 64.0384 92.3159 64.5469C92.0801 65.0526 91.7534 65.4446 91.3358 65.723C90.9181 65.9986 90.4366 66.1364 89.8912 66.1364C89.4707 66.1364 89.1341 66.0668 88.8812 65.9276C88.6284 65.7855 88.4338 65.625 88.2974 65.446C88.161 65.2642 88.0559 65.1136 87.9821 64.9943H87.8968V68.4545H86.8912ZM87.8798 62.7273C87.8798 63.2216 87.9522 63.6577 88.0971 64.0355C88.242 64.4105 88.4537 64.7045 88.7321 64.9176C89.0105 65.1278 89.3514 65.233 89.7548 65.233C90.1752 65.233 90.5261 65.1222 90.8074 64.9006C91.0914 64.6761 91.3045 64.375 91.4466 63.9972C91.5914 63.6165 91.6639 63.1932 91.6639 62.7273C91.6639 62.267 91.5929 61.8523 91.4508 61.483C91.3116 61.1108 91.1 60.8168 90.8159 60.6009C90.5346 60.3821 90.1809 60.2727 89.7548 60.2727C89.3457 60.2727 89.002 60.3764 88.7235 60.5838C88.4451 60.7884 88.2349 61.0753 88.0929 61.4446C87.9508 61.8111 87.8798 62.2386 87.8798 62.7273ZM94.617 68.4545C94.4466 68.4545 94.2946 68.4403 94.161 68.4119C94.0275 68.3864 93.9352 68.3608 93.8841 68.3352L94.1397 67.4489C94.3841 67.5114 94.6 67.5341 94.7875 67.517C94.975 67.5 95.1412 67.4162 95.286 67.2656C95.4338 67.1179 95.5687 66.8778 95.6909 66.5455L95.8784 66.0341L93.4579 59.4545H94.5488L96.3556 64.6705H96.4238L98.2306 59.4545H99.3216L96.5431 66.9545C96.4181 67.2926 96.2633 67.5724 96.0787 67.794C95.894 68.0185 95.6795 68.1847 95.4352 68.2926C95.1937 68.4006 94.921 68.4545 94.617 68.4545ZM103.159 66.1364C102.528 66.1364 101.984 65.9972 101.527 65.7188C101.072 65.4375 100.721 65.0455 100.474 64.5426C100.23 64.0369 100.108 63.4489 100.108 62.7784C100.108 62.108 100.23 61.517 100.474 61.0057C100.721 60.4915 101.065 60.0909 101.506 59.804C101.949 59.5142 102.466 59.3693 103.057 59.3693C103.398 59.3693 103.734 59.4261 104.067 59.5398C104.399 59.6534 104.702 59.8381 104.974 60.0938C105.247 60.3466 105.464 60.6818 105.626 61.0994C105.788 61.517 105.869 62.0312 105.869 62.642V63.0682H100.824V62.1989H104.846C104.846 61.8295 104.773 61.5 104.625 61.2102C104.48 60.9205 104.273 60.6918 104.003 60.5241C103.736 60.3565 103.42 60.2727 103.057 60.2727C102.656 60.2727 102.309 60.3722 102.017 60.571C101.727 60.767 101.504 61.0227 101.348 61.3381C101.192 61.6534 101.113 61.9915 101.113 62.3523V62.9318C101.113 63.4261 101.199 63.8452 101.369 64.1889C101.542 64.5298 101.782 64.7898 102.089 64.9688C102.396 65.1449 102.753 65.233 103.159 65.233C103.423 65.233 103.662 65.196 103.875 65.1222C104.091 65.0455 104.277 64.9318 104.433 64.7812C104.589 64.6278 104.71 64.4375 104.795 64.2102L105.767 64.483C105.665 64.8125 105.493 65.1023 105.251 65.3523C105.01 65.5994 104.711 65.7926 104.356 65.9318C104.001 66.0682 103.602 66.1364 103.159 66.1364ZM110.979 64.6364L113.263 59.4545H114.217L111.388 66H110.569L107.791 59.4545H108.729L110.979 64.6364ZM108.405 59.4545V66H107.399V59.4545H108.405ZM113.552 66V59.4545H114.558V66H113.552ZM45.4888 82V75.4545H46.4945V78.3011H47.1593L49.5115 75.4545H50.807L48.165 78.608L50.8411 82H49.5456L47.3979 79.2386H46.4945V82H45.4888ZM54.3237 82.1364C53.7328 82.1364 53.2143 81.9957 52.7683 81.7145C52.3251 81.4332 51.9785 81.0398 51.7285 80.5341C51.4814 80.0284 51.3578 79.4375 51.3578 78.7614C51.3578 78.0795 51.4814 77.4844 51.7285 76.9759C51.9785 76.4673 52.3251 76.0724 52.7683 75.7912C53.2143 75.5099 53.7328 75.3693 54.3237 75.3693C54.9146 75.3693 55.4316 75.5099 55.8748 75.7912C56.3208 76.0724 56.6674 76.4673 56.9146 76.9759C57.1646 77.4844 57.2896 78.0795 57.2896 78.7614C57.2896 79.4375 57.1646 80.0284 56.9146 80.5341C56.6674 81.0398 56.3208 81.4332 55.8748 81.7145C55.4316 81.9957 54.9146 82.1364 54.3237 82.1364ZM54.3237 81.233C54.7725 81.233 55.1419 81.1179 55.4316 80.8878C55.7214 80.6577 55.9359 80.3551 56.0751 79.9801C56.2143 79.6051 56.2839 79.1989 56.2839 78.7614C56.2839 78.3239 56.2143 77.9162 56.0751 77.5384C55.9359 77.1605 55.7214 76.8551 55.4316 76.6222C55.1419 76.3892 54.7725 76.2727 54.3237 76.2727C53.8748 76.2727 53.5055 76.3892 53.2157 76.6222C52.926 76.8551 52.7115 77.1605 52.5723 77.5384C52.4331 77.9162 52.3635 78.3239 52.3635 78.7614C52.3635 79.1989 52.4331 79.6051 52.5723 79.9801C52.7115 80.3551 52.926 80.6577 53.2157 80.8878C53.5055 81.1179 53.8748 81.233 54.3237 81.233ZM58.2452 82V81.0625H58.4838C58.6799 81.0625 58.8432 81.0241 58.9739 80.9474C59.1046 80.8679 59.2097 80.7301 59.2892 80.5341C59.3716 80.3352 59.4341 80.0597 59.4767 79.7074C59.5222 79.3523 59.5549 78.9006 59.5748 78.3523L59.6941 75.4545H64.0577V82H63.052V76.392H60.6486L60.5463 78.7273C60.5236 79.2642 60.4753 79.7372 60.4015 80.1463C60.3304 80.5526 60.2211 80.8935 60.0733 81.169C59.9284 81.4446 59.7353 81.652 59.4938 81.7912C59.2523 81.9304 58.9498 82 58.5861 82H58.2452ZM68.6472 82.1364C68.0165 82.1364 67.4725 81.9972 67.0151 81.7188C66.5605 81.4375 66.2097 81.0455 65.9625 80.5426C65.7182 80.0369 65.5961 79.4489 65.5961 78.7784C65.5961 78.108 65.7182 77.517 65.9625 77.0057C66.2097 76.4915 66.5534 76.0909 66.9938 75.804C67.437 75.5142 67.954 75.3693 68.5449 75.3693C68.8858 75.3693 69.2225 75.4261 69.5549 75.5398C69.8873 75.6534 70.1898 75.8381 70.4625 76.0938C70.7353 76.3466 70.9526 76.6818 71.1145 77.0994C71.2765 77.517 71.3574 78.0312 71.3574 78.642V79.0682H66.312V78.1989H70.3347C70.3347 77.8295 70.2608 77.5 70.1131 77.2102C69.9682 76.9205 69.7608 76.6918 69.4909 76.5241C69.2239 76.3565 68.9086 76.2727 68.5449 76.2727C68.1444 76.2727 67.7978 76.3722 67.5051 76.571C67.2154 76.767 66.9924 77.0227 66.8361 77.3381C66.6799 77.6534 66.6017 77.9915 66.6017 78.3523V78.9318C66.6017 79.4261 66.687 79.8452 66.8574 80.1889C67.0307 80.5298 67.2708 80.7898 67.5776 80.9688C67.8844 81.1449 68.2409 81.233 68.6472 81.233C68.9114 81.233 69.15 81.196 69.3631 81.1222C69.579 81.0455 69.7651 80.9318 69.9213 80.7812C70.0776 80.6278 70.1983 80.4375 70.2836 80.2102L71.2551 80.483C71.1529 80.8125 70.981 81.1023 70.7395 81.3523C70.498 81.5994 70.1998 81.7926 69.8446 81.9318C69.4895 82.0682 69.0904 82.1364 68.6472 82.1364ZM75.5463 82.1364C74.9327 82.1364 74.4043 81.9915 73.9611 81.7017C73.5179 81.4119 73.177 81.0128 72.9384 80.5043C72.6998 79.9957 72.5804 79.4148 72.5804 78.7614C72.5804 78.0966 72.7026 77.5099 72.9469 77.0014C73.1941 76.4901 73.5378 76.0909 73.9782 75.804C74.4213 75.5142 74.9384 75.3693 75.5293 75.3693C75.9895 75.3693 76.4043 75.4545 76.7736 75.625C77.1429 75.7955 77.4455 76.0341 77.6813 76.3409C77.9171 76.6477 78.0634 77.0057 78.1202 77.4148H77.1145C77.0378 77.1165 76.8674 76.8523 76.6032 76.6222C76.3418 76.3892 75.9895 76.2727 75.5463 76.2727C75.1543 76.2727 74.8105 76.375 74.5151 76.5795C74.2225 76.7812 73.9938 77.0668 73.829 77.4361C73.6671 77.8026 73.5861 78.233 73.5861 78.7273C73.5861 79.233 73.6657 79.6733 73.8248 80.0483C73.9867 80.4233 74.214 80.7145 74.5066 80.9219C74.802 81.1293 75.1486 81.233 75.5463 81.233C75.8077 81.233 76.0449 81.1875 76.258 81.0966C76.4711 81.0057 76.6515 80.875 76.7992 80.7045C76.9469 80.5341 77.052 80.3295 77.1145 80.0909H78.1202C78.0634 80.4773 77.9228 80.8253 77.6983 81.1349C77.4767 81.4418 77.1827 81.6861 76.8162 81.8679C76.4526 82.0469 76.0293 82.1364 75.5463 82.1364ZM81.5165 82.1534C81.1017 82.1534 80.7253 82.0753 80.3873 81.919C80.0492 81.7599 79.7807 81.5312 79.5819 81.233C79.383 80.9318 79.2836 80.5682 79.2836 80.142C79.2836 79.767 79.3574 79.4631 79.5051 79.2301C79.6529 78.9943 79.8503 78.8097 80.0975 78.6761C80.3446 78.5426 80.6174 78.4432 80.9157 78.3778C81.2168 78.3097 81.5194 78.2557 81.8233 78.2159C82.2211 78.1648 82.5435 78.1264 82.7907 78.1009C83.0407 78.0724 83.2225 78.0256 83.3361 77.9602C83.4526 77.8949 83.5108 77.7812 83.5108 77.6193V77.5852C83.5108 77.1648 83.3958 76.8381 83.1657 76.6051C82.9384 76.3722 82.5932 76.2557 82.1301 76.2557C81.65 76.2557 81.2736 76.3608 81.0009 76.571C80.7282 76.7812 80.5364 77.0057 80.4256 77.2443L79.4711 76.9034C79.6415 76.5057 79.8688 76.196 80.1529 75.9744C80.4398 75.75 80.7523 75.5937 81.0904 75.5057C81.4313 75.4148 81.7665 75.3693 82.0961 75.3693C82.3063 75.3693 82.5478 75.3949 82.8205 75.446C83.0961 75.4943 83.3617 75.5952 83.6174 75.7486C83.8759 75.902 84.0904 76.1335 84.2608 76.4432C84.4313 76.7528 84.5165 77.1676 84.5165 77.6875V82H83.5108V81.1136H83.4597C83.3915 81.2557 83.2779 81.4077 83.1188 81.5696C82.9597 81.7315 82.748 81.8693 82.4838 81.983C82.2196 82.0966 81.8972 82.1534 81.5165 82.1534ZM81.6699 81.25C82.0676 81.25 82.4029 81.1719 82.6756 81.0156C82.9512 80.8594 83.1586 80.6577 83.2978 80.4105C83.4398 80.1634 83.5108 79.9034 83.5108 79.6307V78.7102C83.4682 78.7614 83.3745 78.8082 83.2296 78.8509C83.0875 78.8906 82.9228 78.9261 82.7353 78.9574C82.5506 78.9858 82.3702 79.0114 82.1941 79.0341C82.0208 79.054 81.8801 79.071 81.7722 79.0852C81.5108 79.1193 81.2665 79.1747 81.0392 79.2514C80.8148 79.3253 80.633 79.4375 80.4938 79.5881C80.3574 79.7358 80.2892 79.9375 80.2892 80.1932C80.2892 80.5426 80.4185 80.8068 80.677 80.9858C80.9384 81.1619 81.2694 81.25 81.6699 81.25Z" fill="#151515"/>
</svg>
