<svg width="130" height="70" viewBox="0 0 130 70" fill="none" xmlns="http://www.w3.org/2000/svg">
<path d="M65.0957 27.2784C63.6109 27.2784 62.2917 27.0099 61.1383 26.473C59.9849 25.9361 59.0734 25.197 58.4039 24.2557C57.7411 23.3144 57.3964 22.2339 57.3699 21.0142H62.1426C62.1824 21.7633 62.4873 22.3665 63.0574 22.8239C63.6274 23.2746 64.3069 23.5 65.0957 23.5C65.7122 23.5 66.2591 23.3641 66.7363 23.0923C67.2136 22.8205 67.5881 22.4394 67.8599 21.9489C68.1317 21.4517 68.2643 20.8816 68.2576 20.2386C68.2643 19.5824 68.1284 19.009 67.85 18.5185C67.5782 18.0279 67.2003 17.6468 66.7164 17.375C66.2392 17.0966 65.689 16.9574 65.0659 16.9574C64.4759 16.9508 63.9158 17.08 63.3855 17.3452C62.8618 17.6103 62.4641 17.9716 62.1923 18.429L57.8471 17.6136L58.7321 6.63636H71.7974V10.6037H62.7789L62.3116 15.4062H62.4309C62.769 14.8428 63.3126 14.3788 64.0616 14.0142C64.8173 13.643 65.6757 13.4574 66.6369 13.4574C67.8566 13.4574 68.9437 13.7424 69.8983 14.3125C70.8594 14.8759 71.6151 15.6581 72.1653 16.6591C72.7221 17.66 73.0005 18.8068 73.0005 20.0994C73.0005 21.4981 72.6691 22.7377 72.0062 23.8182C71.35 24.8987 70.4286 25.7472 69.242 26.3636C68.0621 26.9735 66.68 27.2784 65.0957 27.2784Z" fill="#FFBC00"/>
<path d="M8.78569 50V43.4545H13.9334V50H12.9277V44.392H9.79137V50H8.78569ZM15.7701 52.4545V43.4545H16.7417V44.4943H16.861C16.9348 44.3807 17.0371 44.2358 17.1678 44.0597C17.3013 43.8807 17.4917 43.7216 17.7388 43.5824C17.9888 43.4403 18.3269 43.3693 18.753 43.3693C19.3042 43.3693 19.79 43.5071 20.2104 43.7827C20.6309 44.0582 20.959 44.4489 21.1948 44.9545C21.4306 45.4602 21.5485 46.0568 21.5485 46.7443C21.5485 47.4375 21.4306 48.0384 21.1948 48.5469C20.959 49.0526 20.6323 49.4446 20.2147 49.723C19.7971 49.9986 19.3155 50.1364 18.7701 50.1364C18.3496 50.1364 18.013 50.0668 17.7601 49.9276C17.5073 49.7855 17.3127 49.625 17.1763 49.446C17.04 49.2642 16.9348 49.1136 16.861 48.9943H16.7757V52.4545H15.7701ZM16.7587 46.7273C16.7587 47.2216 16.8311 47.6577 16.976 48.0355C17.1209 48.4105 17.3326 48.7045 17.611 48.9176C17.8894 49.1278 18.2303 49.233 18.6337 49.233C19.0542 49.233 19.405 49.1222 19.6863 48.9006C19.9703 48.6761 20.1834 48.375 20.3255 47.9972C20.4703 47.6165 20.5428 47.1932 20.5428 46.7273C20.5428 46.267 20.4718 45.8523 20.3297 45.483C20.1905 45.1108 19.9789 44.8168 19.6948 44.6009C19.4135 44.3821 19.0598 44.2727 18.6337 44.2727C18.2246 44.2727 17.8809 44.3764 17.6025 44.5838C17.324 44.7884 17.1138 45.0753 16.9718 45.4446C16.8297 45.8111 16.7587 46.2386 16.7587 46.7273ZM25.7417 50.1364C25.1507 50.1364 24.6323 49.9957 24.1863 49.7145C23.7431 49.4332 23.3965 49.0398 23.1465 48.5341C22.8993 48.0284 22.7757 47.4375 22.7757 46.7614C22.7757 46.0795 22.8993 45.4844 23.1465 44.9759C23.3965 44.4673 23.7431 44.0724 24.1863 43.7912C24.6323 43.5099 25.1507 43.3693 25.7417 43.3693C26.3326 43.3693 26.8496 43.5099 27.2928 43.7912C27.7388 44.0724 28.0854 44.4673 28.3326 44.9759C28.5826 45.4844 28.7076 46.0795 28.7076 46.7614C28.7076 47.4375 28.5826 48.0284 28.3326 48.5341C28.0854 49.0398 27.7388 49.4332 27.2928 49.7145C26.8496 49.9957 26.3326 50.1364 25.7417 50.1364ZM25.7417 49.233C26.1905 49.233 26.5598 49.1179 26.8496 48.8878C27.1394 48.6577 27.3539 48.3551 27.4931 47.9801C27.6323 47.6051 27.7019 47.1989 27.7019 46.7614C27.7019 46.3239 27.6323 45.9162 27.4931 45.5384C27.3539 45.1605 27.1394 44.8551 26.8496 44.6222C26.5598 44.3892 26.1905 44.2727 25.7417 44.2727C25.2928 44.2727 24.9235 44.3892 24.6337 44.6222C24.3439 44.8551 24.1294 45.1605 23.9902 45.5384C23.851 45.9162 23.7814 46.3239 23.7814 46.7614C23.7814 47.1989 23.851 47.6051 23.9902 47.9801C24.1294 48.3551 24.3439 48.6577 24.6337 48.8878C24.9235 49.1179 25.2928 49.233 25.7417 49.233ZM32.9018 52.233V41.2727H33.9075V52.233H32.9018ZM32.9018 50.1364C32.4586 50.1364 32.0552 50.0568 31.6916 49.8977C31.3279 49.7358 31.0154 49.5071 30.7541 49.2116C30.4927 48.9134 30.291 48.5568 30.149 48.142C30.0069 47.7273 29.9359 47.267 29.9359 46.7614C29.9359 46.25 30.0069 45.7869 30.149 45.3722C30.291 44.9545 30.4927 44.5966 30.7541 44.2983C31.0154 44 31.3279 43.7713 31.6916 43.6122C32.0552 43.4503 32.4586 43.3693 32.9018 43.3693H33.2086V50.1364H32.9018ZM32.9018 49.233H33.0723V44.2727H32.9018C32.5666 44.2727 32.2754 44.3409 32.0282 44.4773C31.7811 44.6108 31.5765 44.794 31.4146 45.027C31.2555 45.2571 31.1362 45.5213 31.0566 45.8196C30.9799 46.1179 30.9416 46.4318 30.9416 46.7614C30.9416 47.1989 31.0112 47.6051 31.1504 47.9801C31.2896 48.3551 31.5041 48.6577 31.7939 48.8878C32.0836 49.1179 32.4529 49.233 32.9018 49.233ZM33.9075 50.1364H33.6007V43.3693H33.9075C34.3507 43.3693 34.7541 43.4503 35.1177 43.6122C35.4814 43.7713 35.7939 44 36.0552 44.2983C36.3166 44.5966 36.5183 44.9545 36.6603 45.3722C36.8024 45.7869 36.8734 46.25 36.8734 46.7614C36.8734 47.267 36.8024 47.7273 36.6603 48.142C36.5183 48.5568 36.3166 48.9134 36.0552 49.2116C35.7939 49.5071 35.4814 49.7358 35.1177 49.8977C34.7541 50.0568 34.3507 50.1364 33.9075 50.1364ZM33.9075 49.233C34.2456 49.233 34.5368 49.1676 34.7811 49.0369C35.0282 48.9034 35.2314 48.7216 35.3904 48.4915C35.5524 48.2585 35.6717 47.9943 35.7484 47.6989C35.8279 47.4006 35.8677 47.0881 35.8677 46.7614C35.8677 46.3239 35.7981 45.9162 35.6589 45.5384C35.5197 45.1605 35.3052 44.8551 35.0154 44.6222C34.7257 44.3892 34.3564 44.2727 33.9075 44.2727H33.737V49.233H33.9075ZM41.155 50.1364C40.5243 50.1364 39.9803 49.9972 39.5229 49.7188C39.0684 49.4375 38.7175 49.0455 38.4703 48.5426C38.226 48.0369 38.1039 47.4489 38.1039 46.7784C38.1039 46.108 38.226 45.517 38.4703 45.0057C38.7175 44.4915 39.0613 44.0909 39.5016 43.804C39.9448 43.5142 40.4618 43.3693 41.0527 43.3693C41.3936 43.3693 41.7303 43.4261 42.0627 43.5398C42.3951 43.6534 42.6976 43.8381 42.9703 44.0938C43.2431 44.3466 43.4604 44.6818 43.6223 45.0994C43.7843 45.517 43.8652 46.0312 43.8652 46.642V47.0682H38.8198V46.1989H42.8425C42.8425 45.8295 42.7686 45.5 42.6209 45.2102C42.476 44.9205 42.2686 44.6918 41.9988 44.5241C41.7317 44.3565 41.4164 44.2727 41.0527 44.2727C40.6522 44.2727 40.3056 44.3722 40.013 44.571C39.7232 44.767 39.5002 45.0227 39.3439 45.3381C39.1877 45.6534 39.1096 45.9915 39.1096 46.3523V46.9318C39.1096 47.4261 39.1948 47.8452 39.3652 48.1889C39.5385 48.5298 39.7786 48.7898 40.0854 48.9688C40.3922 49.1449 40.7488 49.233 41.155 49.233C41.4192 49.233 41.6578 49.196 41.8709 49.1222C42.0868 49.0455 42.2729 48.9318 42.4292 48.7812C42.5854 48.6278 42.7061 48.4375 42.7914 48.2102L43.763 48.483C43.6607 48.8125 43.4888 49.1023 43.2473 49.3523C43.0059 49.5994 42.7076 49.7926 42.3525 49.9318C41.9973 50.0682 41.5982 50.1364 41.155 50.1364ZM48.0542 50.1364C47.4405 50.1364 46.9121 49.9915 46.4689 49.7017C46.0257 49.4119 45.6848 49.0128 45.4462 48.5043C45.2076 47.9957 45.0882 47.4148 45.0882 46.7614C45.0882 46.0966 45.2104 45.5099 45.4547 45.0014C45.7019 44.4901 46.0456 44.0909 46.486 43.804C46.9292 43.5142 47.4462 43.3693 48.0371 43.3693C48.4973 43.3693 48.9121 43.4545 49.2814 43.625C49.6507 43.7955 49.9533 44.0341 50.1891 44.3409C50.4249 44.6477 50.5712 45.0057 50.628 45.4148H49.6223C49.5456 45.1165 49.3752 44.8523 49.111 44.6222C48.8496 44.3892 48.4973 44.2727 48.0542 44.2727C47.6621 44.2727 47.3184 44.375 47.0229 44.5795C46.7303 44.7812 46.5016 45.0668 46.3368 45.4361C46.1749 45.8026 46.0939 46.233 46.0939 46.7273C46.0939 47.233 46.1735 47.6733 46.3326 48.0483C46.4945 48.4233 46.7218 48.7145 47.0144 48.9219C47.3098 49.1293 47.6564 49.233 48.0542 49.233C48.3155 49.233 48.5527 49.1875 48.7658 49.0966C48.9789 49.0057 49.1593 48.875 49.307 48.7045C49.4547 48.5341 49.5598 48.3295 49.6223 48.0909H50.628C50.5712 48.4773 50.4306 48.8253 50.2061 49.1349C49.9846 49.4418 49.6905 49.6861 49.324 49.8679C48.9604 50.0469 48.5371 50.1364 48.0542 50.1364ZM54.7573 50.1364C54.1436 50.1364 53.6152 49.9915 53.1721 49.7017C52.7289 49.4119 52.388 49.0128 52.1493 48.5043C51.9107 47.9957 51.7914 47.4148 51.7914 46.7614C51.7914 46.0966 51.9135 45.5099 52.1578 45.0014C52.405 44.4901 52.7488 44.0909 53.1891 43.804C53.6323 43.5142 54.1493 43.3693 54.7402 43.3693C55.2005 43.3693 55.6152 43.4545 55.9846 43.625C56.3539 43.7955 56.6564 44.0341 56.8922 44.3409C57.128 44.6477 57.2743 45.0057 57.3311 45.4148H56.3255C56.2488 45.1165 56.0783 44.8523 55.8141 44.6222C55.5527 44.3892 55.2005 44.2727 54.7573 44.2727C54.3652 44.2727 54.0215 44.375 53.726 44.5795C53.4334 44.7812 53.2047 45.0668 53.04 45.4361C52.878 45.8026 52.7971 46.233 52.7971 46.7273C52.7971 47.233 52.8766 47.6733 53.0357 48.0483C53.1976 48.4233 53.4249 48.7145 53.7175 48.9219C54.013 49.1293 54.3596 49.233 54.7573 49.233C55.0186 49.233 55.2559 49.1875 55.4689 49.0966C55.682 49.0057 55.8624 48.875 56.0101 48.7045C56.1578 48.5341 56.263 48.3295 56.3255 48.0909H57.3311C57.2743 48.4773 57.1337 48.8253 56.9093 49.1349C56.6877 49.4418 56.3936 49.6861 56.0272 49.8679C55.6635 50.0469 55.2402 50.1364 54.7573 50.1364ZM59.807 48.517L62.9604 43.4545H64.1195V50H63.1138V44.9375L59.9775 50H58.8013V43.4545H59.807V48.517ZM68.6206 50.1364C68.0297 50.1364 67.5112 49.9957 67.0652 49.7145C66.622 49.4332 66.2754 49.0398 66.0254 48.5341C65.7782 48.0284 65.6547 47.4375 65.6547 46.7614C65.6547 46.0795 65.7782 45.4844 66.0254 44.9759C66.2754 44.4673 66.622 44.0724 67.0652 43.7912C67.5112 43.5099 68.0297 43.3693 68.6206 43.3693C69.2115 43.3693 69.7285 43.5099 70.1717 43.7912C70.6177 44.0724 70.9643 44.4673 71.2115 44.9759C71.4615 45.4844 71.5865 46.0795 71.5865 46.7614C71.5865 47.4375 71.4615 48.0284 71.2115 48.5341C70.9643 49.0398 70.6177 49.4332 70.1717 49.7145C69.7285 49.9957 69.2115 50.1364 68.6206 50.1364ZM68.6206 49.233C69.0694 49.233 69.4387 49.1179 69.7285 48.8878C70.0183 48.6577 70.2328 48.3551 70.372 47.9801C70.5112 47.6051 70.5808 47.1989 70.5808 46.7614C70.5808 46.3239 70.5112 45.9162 70.372 45.5384C70.2328 45.1605 70.0183 44.8551 69.7285 44.6222C69.4387 44.3892 69.0694 44.2727 68.6206 44.2727C68.1717 44.2727 67.8024 44.3892 67.5126 44.6222C67.2228 44.8551 67.0083 45.1605 66.8691 45.5384C66.7299 45.9162 66.6603 46.3239 66.6603 46.7614C66.6603 47.1989 66.7299 47.6051 66.8691 47.9801C67.0083 48.3551 67.2228 48.6577 67.5126 48.8878C67.8024 49.1179 68.1717 49.233 68.6206 49.233ZM77.5023 46.267V47.2045H73.8887V46.267H77.5023ZM74.1273 43.4545V50H73.1216V43.4545H74.1273ZM78.2694 43.4545V50H77.2637V43.4545H78.2694ZM82.0321 50.1534C81.6174 50.1534 81.2409 50.0753 80.9029 49.919C80.5648 49.7599 80.2963 49.5312 80.0975 49.233C79.8986 48.9318 79.7992 48.5682 79.7992 48.142C79.7992 47.767 79.873 47.4631 80.0208 47.2301C80.1685 46.9943 80.3659 46.8097 80.6131 46.6761C80.8603 46.5426 81.133 46.4432 81.4313 46.3778C81.7324 46.3097 82.035 46.2557 82.339 46.2159C82.7367 46.1648 83.0591 46.1264 83.3063 46.1009C83.5563 46.0724 83.7381 46.0256 83.8517 45.9602C83.9682 45.8949 84.0265 45.7812 84.0265 45.6193V45.5852C84.0265 45.1648 83.9114 44.8381 83.6813 44.6051C83.454 44.3722 83.1088 44.2557 82.6458 44.2557C82.1657 44.2557 81.7892 44.3608 81.5165 44.571C81.2438 44.7812 81.052 45.0057 80.9412 45.2443L79.9867 44.9034C80.1571 44.5057 80.3844 44.196 80.6685 43.9744C80.9554 43.75 81.2679 43.5937 81.606 43.5057C81.9469 43.4148 82.2821 43.3693 82.6117 43.3693C82.8219 43.3693 83.0634 43.3949 83.3361 43.446C83.6117 43.4943 83.8773 43.5952 84.133 43.7486C84.3915 43.902 84.606 44.1335 84.7765 44.4432C84.9469 44.7528 85.0321 45.1676 85.0321 45.6875V50H84.0265V49.1136H83.9753C83.9071 49.2557 83.7935 49.4077 83.6344 49.5696C83.4753 49.7315 83.2637 49.8693 82.9995 49.983C82.7353 50.0966 82.4128 50.1534 82.0321 50.1534ZM82.1855 49.25C82.5833 49.25 82.9185 49.1719 83.1912 49.0156C83.4668 48.8594 83.6742 48.6577 83.8134 48.4105C83.9554 48.1634 84.0265 47.9034 84.0265 47.6307V46.7102C83.9838 46.7614 83.8901 46.8082 83.7452 46.8509C83.6032 46.8906 83.4384 46.9261 83.2509 46.9574C83.0662 46.9858 82.8858 47.0114 82.7097 47.0341C82.5364 47.054 82.3958 47.071 82.2878 47.0852C82.0265 47.1193 81.7821 47.1747 81.5549 47.2514C81.3304 47.3253 81.1486 47.4375 81.0094 47.5881C80.873 47.7358 80.8049 47.9375 80.8049 48.1932C80.8049 48.5426 80.9341 48.8068 81.1926 48.9858C81.454 49.1619 81.785 49.25 82.1855 49.25ZM86.2882 50V49.0625H86.5268C86.7228 49.0625 86.8862 49.0241 87.0169 48.9474C87.1475 48.8679 87.2527 48.7301 87.3322 48.5341C87.4146 48.3352 87.4771 48.0597 87.5197 47.7074C87.5652 47.3523 87.5978 46.9006 87.6177 46.3523L87.737 43.4545H92.1007V50H91.095V44.392H88.6916L88.5893 46.7273C88.5666 47.2642 88.5183 47.7372 88.4444 48.1463C88.3734 48.5526 88.264 48.8935 88.1163 49.169C87.9714 49.4446 87.7782 49.652 87.5368 49.7912C87.2953 49.9304 86.9927 50 86.6291 50H86.2882ZM94.8152 45.8239H96.6902C97.4572 45.8239 98.0439 46.0185 98.4501 46.4077C98.8564 46.7969 99.0595 47.2898 99.0595 47.8864C99.0595 48.2784 98.9686 48.6349 98.7868 48.956C98.6049 49.2741 98.3379 49.5284 97.9856 49.7188C97.6333 49.9062 97.2015 50 96.6902 50H93.9458V43.4545H94.9515V49.0625H96.6902C97.0879 49.0625 97.4146 48.9574 97.6703 48.7472C97.926 48.5369 98.0538 48.267 98.0538 47.9375C98.0538 47.5909 97.926 47.3082 97.6703 47.0895C97.4146 46.8707 97.0879 46.7614 96.6902 46.7614H94.8152V45.8239ZM104.971 46.267V47.2045H101.357V46.267H104.971ZM101.596 43.4545V50H100.59V43.4545H101.596ZM105.738 43.4545V50H104.732V43.4545H105.738ZM108.444 45.8239H110.319C111.086 45.8239 111.673 46.0185 112.079 46.4077C112.485 46.7969 112.688 47.2898 112.688 47.8864C112.688 48.2784 112.597 48.6349 112.416 48.956C112.234 49.2741 111.967 49.5284 111.615 49.7188C111.262 49.9062 110.83 50 110.319 50H107.575V43.4545H108.58V49.0625H110.319C110.717 49.0625 111.044 48.9574 111.299 48.7472C111.555 48.5369 111.683 48.267 111.683 47.9375C111.683 47.5909 111.555 47.3082 111.299 47.0895C111.044 46.8707 110.717 46.7614 110.319 46.7614H108.444V45.8239ZM113.728 50V43.4545H114.734V50H113.728ZM117.325 43.4545L118.893 46.1307L120.461 43.4545H121.62L119.507 46.7273L121.62 50H120.461L118.893 47.4602L117.325 50H116.166L118.245 46.7273L116.166 43.4545H117.325ZM41.2051 64.6364L43.4892 59.4545H44.4437L41.6142 66H40.796L38.0176 59.4545H38.9551L41.2051 64.6364ZM38.6312 59.4545V66H37.6255V59.4545H38.6312ZM43.7789 66V59.4545H44.7846V66H43.7789ZM48.5517 66.1534C48.1369 66.1534 47.7605 66.0753 47.4224 65.919C47.0843 65.7599 46.8159 65.5312 46.617 65.233C46.4181 64.9318 46.3187 64.5682 46.3187 64.142C46.3187 63.767 46.3926 63.4631 46.5403 63.2301C46.688 62.9943 46.8855 62.8097 47.1326 62.6761C47.3798 62.5426 47.6525 62.4432 47.9508 62.3778C48.252 62.3097 48.5545 62.2557 48.8585 62.2159C49.2562 62.1648 49.5787 62.1264 49.8258 62.1009C50.0758 62.0724 50.2576 62.0256 50.3713 61.9602C50.4877 61.8949 50.546 61.7812 50.546 61.6193V61.5852C50.546 61.1648 50.4309 60.8381 50.2008 60.6051C49.9735 60.3722 49.6284 60.2557 49.1653 60.2557C48.6852 60.2557 48.3088 60.3608 48.036 60.571C47.7633 60.7812 47.5716 61.0057 47.4608 61.2443L46.5062 60.9034C46.6767 60.5057 46.9039 60.196 47.188 59.9744C47.475 59.75 47.7875 59.5937 48.1255 59.5057C48.4664 59.4148 48.8017 59.3693 49.1312 59.3693C49.3414 59.3693 49.5829 59.3949 49.8556 59.446C50.1312 59.4943 50.3968 59.5952 50.6525 59.7486C50.911 59.902 51.1255 60.1335 51.296 60.4432C51.4664 60.7528 51.5517 61.1676 51.5517 61.6875V66H50.546V65.1136H50.4949C50.4267 65.2557 50.313 65.4077 50.1539 65.5696C49.9949 65.7315 49.7832 65.8693 49.519 65.983C49.2548 66.0966 48.9324 66.1534 48.5517 66.1534ZM48.7051 65.25C49.1028 65.25 49.438 65.1719 49.7108 65.0156C49.9863 64.8594 50.1937 64.6577 50.3329 64.4105C50.475 64.1634 50.546 63.9034 50.546 63.6307V62.7102C50.5034 62.7614 50.4096 62.8082 50.2647 62.8509C50.1227 62.8906 49.9579 62.9261 49.7704 62.9574C49.5858 62.9858 49.4054 63.0114 49.2292 63.0341C49.0559 63.054 48.9153 63.071 48.8074 63.0852C48.546 63.1193 48.3017 63.1747 48.0744 63.2514C47.85 63.3253 47.6681 63.4375 47.5289 63.5881C47.3926 63.7358 47.3244 63.9375 47.3244 64.1932C47.3244 64.5426 47.4537 64.8068 47.7122 64.9858C47.9735 65.1619 48.3045 65.25 48.7051 65.25ZM56.0463 66.1364C55.4327 66.1364 54.9043 65.9915 54.4611 65.7017C54.0179 65.4119 53.677 65.0128 53.4384 64.5043C53.1998 63.9957 53.0804 63.4148 53.0804 62.7614C53.0804 62.0966 53.2026 61.5099 53.4469 61.0014C53.6941 60.4901 54.0378 60.0909 54.4782 59.804C54.9213 59.5142 55.4384 59.3693 56.0293 59.3693C56.4895 59.3693 56.9043 59.4545 57.2736 59.625C57.6429 59.7955 57.9455 60.0341 58.1813 60.3409C58.4171 60.6477 58.5634 61.0057 58.6202 61.4148H57.6145C57.5378 61.1165 57.3674 60.8523 57.1032 60.6222C56.8418 60.3892 56.4895 60.2727 56.0463 60.2727C55.6543 60.2727 55.3105 60.375 55.0151 60.5795C54.7225 60.7812 54.4938 61.0668 54.329 61.4361C54.1671 61.8026 54.0861 62.233 54.0861 62.7273C54.0861 63.233 54.1657 63.6733 54.3248 64.0483C54.4867 64.4233 54.714 64.7145 55.0066 64.9219C55.302 65.1293 55.6486 65.233 56.0463 65.233C56.3077 65.233 56.5449 65.1875 56.758 65.0966C56.9711 65.0057 57.1515 64.875 57.2992 64.7045C57.4469 64.5341 57.552 64.3295 57.6145 64.0909H58.6202C58.5634 64.4773 58.4228 64.8253 58.1983 65.1349C57.9767 65.4418 57.6827 65.6861 57.3162 65.8679C56.9526 66.0469 56.5293 66.1364 56.0463 66.1364ZM59.5748 60.392V59.4545H64.8929V60.392H62.7452V66H61.7395V60.392H59.5748ZM68.7644 66.1364C68.1337 66.1364 67.5897 65.9972 67.1323 65.7188C66.6777 65.4375 66.3269 65.0455 66.0797 64.5426C65.8354 64.0369 65.7132 63.4489 65.7132 62.7784C65.7132 62.108 65.8354 61.517 66.0797 61.0057C66.3269 60.4915 66.6706 60.0909 67.111 59.804C67.5542 59.5142 68.0712 59.3693 68.6621 59.3693C69.003 59.3693 69.3397 59.4261 69.6721 59.5398C70.0044 59.6534 70.307 59.8381 70.5797 60.0938C70.8525 60.3466 71.0698 60.6818 71.2317 61.0994C71.3936 61.517 71.4746 62.0312 71.4746 62.642V63.0682H66.4292V62.1989H70.4519C70.4519 61.8295 70.378 61.5 70.2303 61.2102C70.0854 60.9205 69.878 60.6918 69.6081 60.5241C69.3411 60.3565 69.0257 60.2727 68.6621 60.2727C68.2615 60.2727 67.915 60.3722 67.6223 60.571C67.3326 60.767 67.1096 61.0227 66.9533 61.3381C66.7971 61.6534 66.7189 61.9915 66.7189 62.3523V62.9318C66.7189 63.4261 66.8042 63.8452 66.9746 64.1889C67.1479 64.5298 67.388 64.7898 67.6948 64.9688C68.0016 65.1449 68.3581 65.233 68.7644 65.233C69.0286 65.233 69.2672 65.196 69.4803 65.1222C69.6962 65.0455 69.8823 64.9318 70.0385 64.7812C70.1948 64.6278 70.3155 64.4375 70.4007 64.2102L71.3723 64.483C71.2701 64.8125 71.0982 65.1023 70.8567 65.3523C70.6152 65.5994 70.3169 65.7926 69.9618 65.9318C69.6067 66.0682 69.2076 66.1364 68.7644 66.1364ZM73.0044 68.4545V59.4545H73.976V60.4943H74.0953C74.1692 60.3807 74.2715 60.2358 74.4022 60.0597C74.5357 59.8807 74.726 59.7216 74.9732 59.5824C75.2232 59.4403 75.5613 59.3693 75.9874 59.3693C76.5385 59.3693 77.0243 59.5071 77.4448 59.7827C77.8652 60.0582 78.1934 60.4489 78.4292 60.9545C78.665 61.4602 78.7828 62.0568 78.7828 62.7443C78.7828 63.4375 78.665 64.0384 78.4292 64.5469C78.1934 65.0526 77.8667 65.4446 77.449 65.723C77.0314 65.9986 76.5499 66.1364 76.0044 66.1364C75.584 66.1364 75.2473 66.0668 74.9945 65.9276C74.7417 65.7855 74.5471 65.625 74.4107 65.446C74.2743 65.2642 74.1692 65.1136 74.0953 64.9943H74.0101V68.4545H73.0044ZM73.9931 62.7273C73.9931 63.2216 74.0655 63.6577 74.2104 64.0355C74.3553 64.4105 74.5669 64.7045 74.8453 64.9176C75.1238 65.1278 75.4647 65.233 75.8681 65.233C76.2885 65.233 76.6394 65.1222 76.9206 64.9006C77.2047 64.6761 77.4178 64.375 77.5598 63.9972C77.7047 63.6165 77.7772 63.1932 77.7772 62.7273C77.7772 62.267 77.7061 61.8523 77.5641 61.483C77.4249 61.1108 77.2132 60.8168 76.9292 60.6009C76.6479 60.3821 76.2942 60.2727 75.8681 60.2727C75.459 60.2727 75.1152 60.3764 74.8368 60.5838C74.5584 60.7884 74.3482 61.0753 74.2061 61.4446C74.0641 61.8111 73.9931 62.2386 73.9931 62.7273ZM82.976 66.1364C82.3851 66.1364 81.8667 65.9957 81.4206 65.7145C80.9775 65.4332 80.6309 65.0398 80.3809 64.5341C80.1337 64.0284 80.0101 63.4375 80.0101 62.7614C80.0101 62.0795 80.1337 61.4844 80.3809 60.9759C80.6309 60.4673 80.9775 60.0724 81.4206 59.7912C81.8667 59.5099 82.3851 59.3693 82.976 59.3693C83.5669 59.3693 84.084 59.5099 84.5272 59.7912C84.9732 60.0724 85.3198 60.4673 85.5669 60.9759C85.8169 61.4844 85.9419 62.0795 85.9419 62.7614C85.9419 63.4375 85.8169 64.0284 85.5669 64.5341C85.3198 65.0398 84.9732 65.4332 84.5272 65.7145C84.084 65.9957 83.5669 66.1364 82.976 66.1364ZM82.976 65.233C83.4249 65.233 83.7942 65.1179 84.084 64.8878C84.3738 64.6577 84.5882 64.3551 84.7275 63.9801C84.8667 63.6051 84.9363 63.1989 84.9363 62.7614C84.9363 62.3239 84.8667 61.9162 84.7275 61.5384C84.5882 61.1605 84.3738 60.8551 84.084 60.6222C83.7942 60.3892 83.4249 60.2727 82.976 60.2727C82.5272 60.2727 82.1578 60.3892 81.8681 60.6222C81.5783 60.8551 81.3638 61.1605 81.2246 61.5384C81.0854 61.9162 81.0158 62.3239 81.0158 62.7614C81.0158 63.1989 81.0854 63.6051 81.2246 63.9801C81.3638 64.3551 81.5783 64.6577 81.8681 64.8878C82.1578 65.1179 82.5272 65.233 82.976 65.233ZM87.4771 66V59.4545H90.1532C90.8578 59.4545 91.4174 59.6136 91.8322 59.9318C92.247 60.25 92.4544 60.6705 92.4544 61.1932C92.4544 61.5909 92.3365 61.8991 92.1007 62.1179C91.8649 62.3338 91.5623 62.4801 91.193 62.5568C91.4345 62.5909 91.6689 62.6761 91.8961 62.8125C92.1262 62.9489 92.3166 63.1364 92.4672 63.375C92.6177 63.6108 92.693 63.9006 92.693 64.2443C92.693 64.5795 92.6078 64.8793 92.4373 65.1435C92.2669 65.4077 92.0225 65.6165 91.7044 65.7699C91.3862 65.9233 91.0055 66 90.5623 66H87.4771ZM88.4316 65.0795H90.5623C90.9089 65.0795 91.1802 64.9972 91.3762 64.8324C91.5723 64.6676 91.6703 64.4432 91.6703 64.1591C91.6703 63.821 91.5723 63.5554 91.3762 63.3622C91.1802 63.1662 90.9089 63.0682 90.5623 63.0682H88.4316V65.0795ZM88.4316 62.1989H90.1532C90.4231 62.1989 90.6547 62.1619 90.8478 62.0881C91.041 62.0114 91.1887 61.9034 91.291 61.7642C91.3961 61.6222 91.4487 61.4545 91.4487 61.2614C91.4487 60.9858 91.3336 60.7699 91.1035 60.6136C90.8734 60.4545 90.5566 60.375 90.1532 60.375H88.4316V62.1989Z" fill="#151515"/>
</svg>
