<svg width="18" height="11" viewBox="0 0 18 11" fill="none" xmlns="http://www.w3.org/2000/svg">
<path d="M1.04494 1.11619C1.27935 0.881851 1.59723 0.750207 1.92869 0.750207C2.26014 0.750207 2.57803 0.881851 2.81244 1.11619L8.99994 7.30369L15.1874 1.11619C15.4232 0.888493 15.7389 0.7625 16.0667 0.765347C16.3944 0.768195 16.708 0.899656 16.9397 1.13142C17.1715 1.36318 17.3029 1.67669 17.3058 2.00444C17.3086 2.33218 17.1826 2.64794 16.9549 2.88369L9.88369 9.95494C9.64928 10.1893 9.33139 10.3209 8.99994 10.3209C8.66848 10.3209 8.3506 10.1893 8.11619 9.95494L1.04494 2.88369C0.810599 2.64928 0.678955 2.3314 0.678955 1.99994C0.678955 1.66848 0.810599 1.3506 1.04494 1.11619Z" fill="#FFBC00"/>
</svg>
