<svg width="24" height="24" viewBox="0 0 24 24" fill="none" xmlns="http://www.w3.org/2000/svg">
<path d="M0 4C0 1.79086 1.79086 0 4 0H20C22.2091 0 24 1.79086 24 4V20C24 22.2091 22.2091 24 20 24H4C1.79086 24 0 22.2091 0 20V4Z" fill="#FFBC00"/>
<path d="M16.4792 7.31882C16.7039 7.11207 17.0028 6.99776 17.313 7.00003C17.6232 7.0023 17.9203 7.12096 18.1417 7.33098C18.3631 7.541 18.4914 7.82594 18.4996 8.12569C18.5078 8.42543 18.3952 8.71653 18.1856 8.93756L11.8226 16.6305C11.7132 16.7444 11.5812 16.8358 11.4344 16.8993C11.2876 16.9627 11.129 16.9969 10.9683 16.9998C10.8075 17.0027 10.6478 16.9742 10.4986 16.916C10.3495 16.8579 10.214 16.7712 10.1003 16.6613L5.88068 12.5821C5.76316 12.4762 5.66891 12.3485 5.60354 12.2067C5.53817 12.0649 5.50302 11.9118 5.50019 11.7565C5.49735 11.6013 5.52689 11.4471 5.58705 11.3031C5.6472 11.1591 5.73674 11.0283 5.85031 10.9185C5.96389 10.8087 6.09918 10.7222 6.2481 10.664C6.39703 10.6059 6.55655 10.5773 6.71715 10.5801C6.87774 10.5828 7.03612 10.6168 7.18283 10.68C7.32955 10.7432 7.46159 10.8343 7.57109 10.9479L10.9105 14.1746L16.4489 7.35274C16.4589 7.34087 16.4696 7.32954 16.4808 7.31882H16.4792Z" fill="white"/>
<path d="M4 2H20V-2H4V2ZM22 4V20H26V4H22ZM20 22H4V26H20V22ZM2 20V4H-2V20H2ZM4 22C2.89543 22 2 21.1046 2 20H-2C-2 23.3137 0.686292 26 4 26V22ZM22 20C22 21.1046 21.1046 22 20 22V26C23.3137 26 26 23.3137 26 20H22ZM20 2C21.1046 2 22 2.89543 22 4H26C26 0.686291 23.3137 -2 20 -2V2ZM4 -2C0.686291 -2 -2 0.686292 -2 4H2C2 2.89543 2.89543 2 4 2V-2Z" fill="#FFBC00"/>
</svg>
